<?xml version="1.0" encoding="utf-8"?>
<!-- Generator: Adobe Illustrator 23.1.0, SVG Export Plug-In . SVG Version: 6.00 Build 0)  -->
<svg version="1.1" xmlns="http://www.w3.org/2000/svg" xmlns:xlink="http://www.w3.org/1999/xlink" x="0px" y="0px"
	 viewBox="0 0 100 100" style="enable-background:new 0 0 100 100;" xml:space="preserve">
<style type="text/css">
	.st0{display:none;}
	.st1{display:inline;opacity:0.5;fill:#555555;}
	.st2{fill:#555555;}
	.st3{fill:none;stroke:#555555;stroke-width:7;stroke-miterlimit:10;}
	.st4{fill:none;stroke:#555555;stroke-width:7;stroke-linecap:round;stroke-miterlimit:10;}
	.st5{fill:#FFFFFF;}
</style>
<g id="Layer_1_copy_3" class="st0">
	<path class="st1" d="M45.5,97.7c-6.3,0-12.2-1.2-17.7-3.6c-5.5-2.4-10.3-5.6-14.4-9.7C9.2,80.3,6,75.5,3.6,70S0,58.6,0,52.3
		s1.2-12.2,3.6-17.7s5.6-10.3,9.7-14.4s8.9-7.3,14.4-9.7s11.4-3.6,17.7-3.6c3.3,0,6.4,0.3,9.4,1s5.9,1.6,8.8,2.8v10.2
		c-2.7-1.5-5.5-2.7-8.6-3.6c-3.1-0.9-6.3-1.3-9.6-1.3c-10.1,0-18.7,3.5-25.7,10.6S9.1,42.2,9.1,52.3S12.6,70.9,19.7,78
		c7.1,7.1,15.7,10.6,25.7,10.6S64.1,85.1,71.2,78c7.1-7.1,10.6-15.7,10.6-25.7c0-2.4-0.2-4.8-0.7-7s-1.2-4.5-2-6.6h9.8
		c0.7,2.2,1.2,4.4,1.5,6.6c0.3,2.2,0.5,4.6,0.5,7c0,6.3-1.2,12.2-3.6,17.7c-2.4,5.5-5.6,10.3-9.7,14.4c-4.1,4.1-8.9,7.3-14.4,9.7
		C57.7,96.5,51.7,97.7,45.5,97.7z M81.8,29.5v-9.1h-9.1v-9.1h9.1V2.3h9.1v9.1h9.1v9.1h-9.1v9.1H81.8z M61.4,47.7
		c1.9,0,3.5-0.7,4.8-2s2-2.9,2-4.8c0-1.9-0.7-3.5-2-4.8s-2.9-2-4.8-2c-1.9,0-3.5,0.7-4.8,2s-2,2.9-2,4.8c0,1.9,0.7,3.5,2,4.8
		S59.5,47.7,61.4,47.7z M29.5,47.7c1.9,0,3.5-0.7,4.8-2s2-2.9,2-4.8c0-1.9-0.7-3.5-2-4.8s-2.9-2-4.8-2s-3.5,0.7-4.8,2
		c-1.3,1.3-2,2.9-2,4.8c0,1.9,0.7,3.5,2,4.8C26,47.1,27.7,47.7,29.5,47.7z M45.5,77.3c5.2,0,9.8-1.5,14-4.4s7.3-6.8,9.1-11.5H22.3
		c1.9,4.8,4.9,8.6,9.1,11.5S40.3,77.3,45.5,77.3z"/>
</g>
<g id="Layer_1_copy">
	<path class="st2" d="M-118.5,97.7c-6.3,0-12.2-1.2-17.7-3.6c-5.5-2.4-10.3-5.6-14.4-9.7c-4.1-4.1-7.3-8.9-9.7-14.4
		s-3.6-11.4-3.6-17.7s1.2-12.2,3.6-17.7s5.6-10.3,9.7-14.4s8.9-7.3,14.4-9.7c5.5-2.4,11.4-3.6,17.7-3.6c3.3,0,6.4,0.3,9.4,1
		c3,0.6,5.9,1.6,8.8,2.8v10.2c-2.7-1.5-5.5-2.7-8.6-3.6c-3.1-0.9-6.3-1.3-9.6-1.3c-10.1,0-18.7,3.5-25.7,10.6s-10.6,15.7-10.6,25.7
		s3.5,18.7,10.6,25.7c7.1,7.1,15.7,10.6,25.7,10.6s18.7-3.5,25.7-10.6c7.1-7.1,10.6-15.7,10.6-25.7c0-2.4-0.2-4.8-0.7-7
		s-1.2-4.5-2-6.6h9.8c0.7,2.2,1.2,4.4,1.5,6.6c0.3,2.2,0.5,4.6,0.5,7c0,6.3-1.2,12.2-3.6,17.7c-2.4,5.5-5.6,10.3-9.7,14.4
		c-4.1,4.1-8.9,7.3-14.4,9.7C-106.3,96.5-112.3,97.7-118.5,97.7z M-82.2,29.5v-9.1h-9.1v-9.1h9.1V2.3h9.1v9.1h9.1v9.1h-9.1v9.1
		H-82.2z M-102.6,47.7c1.9,0,3.5-0.7,4.8-2s2-2.9,2-4.8c0-1.9-0.7-3.5-2-4.8s-2.9-2-4.8-2c-1.9,0-3.5,0.7-4.8,2s-2,2.9-2,4.8
		c0,1.9,0.7,3.5,2,4.8S-104.5,47.7-102.6,47.7z M-134.5,47.7c1.9,0,3.5-0.7,4.8-2s2-2.9,2-4.8c0-1.9-0.7-3.5-2-4.8s-2.9-2-4.8-2
		s-3.5,0.7-4.8,2s-2,2.9-2,4.8c0,1.9,0.7,3.5,2,4.8S-136.3,47.7-134.5,47.7z M-118.5,77.3c5.2,0,9.8-1.5,14-4.4
		c4.2-2.9,7.3-6.8,9.1-11.5h-46.4c1.9,4.8,4.9,8.6,9.1,11.5S-123.7,77.3-118.5,77.3z"/>
	<g>
		<line class="st3" x1="124" y1="-25" x2="124" y2="9"/>
		<line class="st3" x1="107" y1="-8" x2="141" y2="-8"/>
	</g>
	<g>
		<g>
			<path class="st4" d="M25.5,64"/>
			<path class="st4" d="M65.5,64"/>
			<path class="st2" d="M45.5,80.5c-10.7,0-20.3-6.3-23.4-15.4c-0.6-1.8,0.4-3.8,2.2-4.4c1.8-0.6,3.8,0.4,4.4,2.2
				c2.1,6.3,9,10.6,16.7,10.6c7.7,0,14.6-4.4,16.7-10.6c0.6-1.8,2.6-2.8,4.4-2.2c1.8,0.6,2.8,2.6,2.2,4.4
				C65.8,74.2,56.2,80.5,45.5,80.5z"/>
		</g>
		<path class="st2" d="M45.5,16C66.7,16,84,33.3,84,54.5S66.7,93,45.5,93S7,75.7,7,54.5S24.3,16,45.5,16 M45.5,9
			C20.4,9,0,29.4,0,54.5C0,79.6,20.4,100,45.5,100C70.6,100,91,79.6,91,54.5C91,29.4,70.6,9,45.5,9L45.5,9z"/>
		<g>
			<circle class="st2" cx="26.9" cy="44.1" r="6.2"/>
			<circle class="st2" cx="64.1" cy="44.1" r="6.2"/>
		</g>
	</g>
	<g>
		<polygon class="st2" points="22,-28.5 22,-41 9.5,-41 9.5,-55 22,-55 22,-67.5 36,-67.5 36,-55 48.5,-55 48.5,-41 36,-41 
			36,-28.5 		"/>
		<path class="st5" d="M32.5-64v12.5H45v7H32.5V-32h-7v-12.5H13v-7h12.5V-64H32.5 M39.5-71h-7h-7h-7v7v5.5H13H6v7v7v7h7h5.5v5.5v7h7
			h7h7v-7v-5.5H45h7v-7v-7v-7h-7h-5.5V-64V-71L39.5-71z"/>
	</g>
	<g>
		<circle class="st5" cx="73.5" cy="27.5" r="4.5"/>
	</g>
	<g>
		<path class="st2" d="M186.5,43c9.1,0,16.5,7.4,16.5,16.5v15c0,9.1-7.4,16.5-16.5,16.5c-9.1,0-16.5-7.4-16.5-16.5v-15
			C170,50.4,177.4,43,186.5,43 M186.5,36L186.5,36c-13,0-23.5,10.5-23.5,23.5v15c0,13,10.5,23.5,23.5,23.5h0
			c13,0,23.5-10.5,23.5-23.5v-15C210,46.5,199.5,36,186.5,36L186.5,36z"/>
	</g>
	<g>
		<rect x="153" y="34" class="st5" width="69" height="47"/>
	</g>
	<g>
		<line class="st3" x1="232.1" y1="-36" x2="232.1" y2="-4"/>
		<line class="st3" x1="216.1" y1="-20" x2="248.1" y2="-20"/>
	</g>
	<g>
		<path class="st2" d="M186.5,33c21.2,0,38.5,17.3,38.5,38.5S207.7,110,186.5,110S148,92.7,148,71.5S165.3,33,186.5,33 M186.5,26
			C161.4,26,141,46.4,141,71.5c0,25.1,20.4,45.5,45.5,45.5c25.1,0,45.5-20.4,45.5-45.5C232,46.4,211.6,26,186.5,26L186.5,26z"/>
	</g>
	<g>
		<circle class="st2" cx="168.6" cy="60" r="5.1"/>
		<circle class="st2" cx="205.4" cy="60" r="5.1"/>
	</g>
	<g>
		<polygon class="st2" points="218,52.5 218,40 205.5,40 205.5,26 218,26 218,13.5 232,13.5 232,26 244.5,26 244.5,40 232,40 
			232,52.5 		"/>
		<path class="st5" d="M228.5,17v12.5H241v7h-12.5V49h-7V36.5H209v-7h12.5V17H228.5 M235.5,10h-7h-7h-7v7v5.5H209h-7v7v7v7h7h5.5V49
			v7h7h7h7v-7v-5.5h5.5h7v-7v-7v-7h-7h-5.5V17V10L235.5,10z"/>
	</g>
	<g>
		<circle class="st5" cx="214.5" cy="44.5" r="4.5"/>
	</g>
	<g>
		<polygon class="st2" points="76,37.5 76,24 62.5,24 62.5,10 76,10 76,-3.5 90,-3.5 90,10 103.5,10 103.5,24 90,24 90,37.5 		"/>
		<path class="st5" d="M86.5,0v13.5H100v7H86.5V34h-7V20.5H66v-7h13.5V0H86.5 M93.5-7h-7h-7h-7v7v6.5H66h-7v7v7v7h7h6.5V34v7h7h7h7
			v-7v-6.5h6.5h7v-7v-7v-7h-7h-6.5V0V-7L93.5-7z"/>
	</g>
</g>
</svg>
