<?xml version="1.0" encoding="utf-8"?>
<!-- Generator: Adobe Illustrator 23.1.0, SVG Export Plug-In . SVG Version: 6.00 Build 0)  -->
<svg version="1.1" xmlns="http://www.w3.org/2000/svg" xmlns:xlink="http://www.w3.org/1999/xlink" x="0px" y="0px"
	 viewBox="0 0 100 100" style="enable-background:new 0 0 100 100;" xml:space="preserve">
<style type="text/css">
	.st0{display:none;}
	.st1{display:inline;opacity:0.5;fill:#555555;}
	.st2{fill:#555555;}
	.st3{fill:none;stroke:#555555;stroke-width:7;stroke-miterlimit:10;}
	.st4{fill:#FFFFFF;}
	.st5{fill:none;stroke:#555555;stroke-width:7;stroke-linecap:round;stroke-miterlimit:10;}
</style>
<g id="Layer_1_copy_3" class="st0">
</g>
<g id="Layer_1_copy">
	<path class="st2" d="M50,68c22.7,0,41.4,17.7,42.9,40H7.1C8.6,85.7,27.3,68,50,68 M50,61L50,61C22.4,61,0,83.4,0,111v0
		c0,2.2,1.8,4,4,4h92c2.2,0,4-1.8,4-4v0C100,83.4,77.6,61,50,61L50,61z"/>
	<path class="st2" d="M50,16c11.7,0,21.3,9.5,21.3,21.3S61.7,58.5,50,58.5S28.8,49,28.8,37.3S38.3,16,50,16 M50,9
		C34.4,9,21.8,21.6,21.8,37.3S34.4,65.5,50,65.5s28.3-12.6,28.3-28.3S65.6,9,50,9L50,9z"/>
</g>
</svg>
