<?xml version="1.0" encoding="utf-8"?>
<!-- Generator: Adobe Illustrator 23.1.0, SVG Export Plug-In . SVG Version: 6.00 Build 0)  -->
<svg version="1.1" xmlns="http://www.w3.org/2000/svg" xmlns:xlink="http://www.w3.org/1999/xlink" x="0px" y="0px"
	 viewBox="0 0 100 100" style="enable-background:new 0 0 100 100;" xml:space="preserve">
<style type="text/css">
	.st0{display:none;}
	.st1{display:inline;opacity:0.5;fill:#555555;}
	.st2{fill:#555555;}
	.st3{fill:none;stroke:#555555;stroke-width:7;stroke-miterlimit:10;}
	.st4{fill:#FFFFFF;}
	.st5{fill:none;stroke:#555555;stroke-width:7;stroke-linecap:round;stroke-miterlimit:10;}
	.st6{fill:none;stroke:#555555;stroke-width:14;stroke-linecap:round;stroke-miterlimit:10;}
</style>
<g id="Layer_1_copy_3" class="st0">
</g>
<g id="Layer_1_copy">
	<g>
		<path class="st2" d="M90,96c-1.8,0-3.6-0.7-5-2L6,15C3.3,12.2,3.3,7.8,6,5c2.7-2.7,7.2-2.7,9.9,0l79,79c2.7,2.7,2.7,7.2,0,9.9
			C93.6,95.3,91.8,96,90,96z"/>
		<path class="st2" d="M11,96c-1.8,0-3.6-0.7-5-2c-2.7-2.7-2.7-7.2,0-9.9L85,5c2.7-2.7,7.2-2.7,9.9,0c2.7,2.7,2.7,7.2,0,9.9L16,94
			C14.6,95.3,12.8,96,11,96z"/>
	</g>
</g>
</svg>
