<?xml version="1.0" encoding="utf-8"?>
<!-- Generator: Adobe Illustrator 23.1.0, SVG Export Plug-In . SVG Version: 6.00 Build 0)  -->
<svg version="1.1" id="Layer_1" xmlns="http://www.w3.org/2000/svg" xmlns:xlink="http://www.w3.org/1999/xlink" x="0px" y="0px"
	 viewBox="0 0 15 15" style="enable-background:new 0 0 15 15;" xml:space="preserve">
<style type="text/css">
	.st0{fill:#1D1D1D;}
	.st1{fill:#FFFFFF;}
</style>
<circle class="st0" cx="7.5" cy="7.5" r="7.5"/>
<g>
	<path class="st1" d="M10.6,4.4c-0.4-0.4-1-0.6-1.6-0.6c-0.6,0-2.5,0-3.1,0c-0.6,0-1.1,0.2-1.6,0.6C3.9,4.8,3.8,5.4,3.8,6
		c0,0.6,0,2.5,0,3.1c0,0.6,0.2,1.1,0.6,1.6c0.4,0.4,1,0.6,1.6,0.6c0.6,0,2.5,0,3.1,0c0.6,0,1.1-0.2,1.6-0.6v0c0.4-0.4,0.6-1,0.6-1.6
		c0-0.6,0-2.5,0-3.1C11.2,5.4,11.1,4.8,10.6,4.4z M10.6,7.8c0,0.6,0,1.5-0.2,1.9c-0.1,0.2-0.2,0.3-0.3,0.4c-0.1,0.1-0.3,0.2-0.4,0.3
		c-0.4,0.2-1.3,0.2-1.9,0.2c-0.1,0-0.2,0-0.3,0c-0.1,0-0.2,0-0.3,0c-0.6,0-1.5,0-1.9-0.2c-0.2-0.1-0.3-0.2-0.4-0.3
		C4.7,10,4.6,9.9,4.6,9.7c-0.2-0.4-0.2-1.4-0.2-2c0-0.1,0-0.2,0-0.3s0-0.2,0-0.3c0-0.6,0-1.5,0.2-2C4.6,5.1,4.7,5,4.9,4.9
		C5,4.7,5.1,4.6,5.3,4.6c0.4-0.2,1.3-0.2,1.9-0.2c0.1,0,0.2,0,0.3,0c0.1,0,0.2,0,0.3,0c0.6,0,1.5,0,1.9,0.2c0.2,0.1,0.3,0.2,0.4,0.3
		v0c0.1,0.1,0.2,0.3,0.3,0.4c0.2,0.4,0.2,1.3,0.2,1.9c0,0.1,0,0.2,0,0.3C10.6,7.6,10.6,7.7,10.6,7.8z"/>
	<path class="st1" d="M8.6,5.9L8.6,5.9C7.7,5.3,6.5,5.5,5.9,6.4C5.3,7.3,5.5,8.5,6.4,9.1c0.9,0.6,2.1,0.4,2.7-0.5
		C9.7,7.7,9.5,6.5,8.6,5.9z M8.2,8.5C7.6,8.9,6.8,8.8,6.5,8.2C6.1,7.6,6.2,6.8,6.8,6.5c0.6-0.4,1.4-0.2,1.7,0.3S8.8,8.2,8.2,8.5z"/>
	<path class="st1" d="M9.7,5.1c-0.1,0-0.2,0-0.3,0c-0.1,0-0.2,0.1-0.2,0.1C9.1,5.2,9.1,5.3,9.1,5.4c0,0.1,0,0.2,0,0.3
		c0,0.1,0.1,0.2,0.2,0.2h0c0.1,0,0.2,0.1,0.2,0.1c0.1,0,0.1,0,0.2,0c0.1,0,0.1-0.1,0.1-0.1c0,0,0.1-0.1,0.1-0.1c0-0.1,0-0.1,0-0.2
		c0-0.1,0-0.2-0.1-0.2C9.8,5.2,9.8,5.1,9.7,5.1z"/>
</g>
</svg>
