<?xml version="1.0" encoding="utf-8"?>
<!-- Generator: Adobe Illustrator 28.0.0, SVG Export Plug-In . SVG Version: 6.00 Build 0)  -->
<svg version="1.1" id="레이어_1" xmlns="http://www.w3.org/2000/svg" xmlns:xlink="http://www.w3.org/1999/xlink" x="0px"
	 y="0px" viewBox="0 0 141.73 38.02" style="enable-background:new 0 0 141.73 38.02;" xml:space="preserve">
<style type="text/css">
	.st0{fill:#FDD22B;}
	.st1{fill:#FDD22B;stroke:#F2CA35;stroke-width:0;stroke-linecap:round;stroke-linejoin:round;}
</style>
<g>
	<polygon class="st0" points="23.38,15.13 23.38,15.13 23.38,15.13 	"/>
	<line class="st1" x1="70.92" y1="20.99" x2="70.81" y2="21.04"/>
	<g>
		<path class="st0" d="M64.93,28.76c-0.51-0.51-1.09-0.9-1.72-1.16h0c-0.64-0.26-1.33-0.4-2.08-0.41c-0.04,0-0.08,0-0.12,0
			c-0.72,0-1.4,0.12-2.02,0.36c-0.63,0.24-1.2,0.6-1.72,1.08c0,0,0,0,0,0c-0.27,0.25-0.5,0.51-0.71,0.8
			c-0.2,0.29-0.37,0.59-0.51,0.92c-0.14,0.33-0.24,0.67-0.31,1.04c-0.07,0.36-0.11,0.74-0.12,1.14c0,0.04,0,0.08,0,0.13v0
			c0,0.38,0.03,0.75,0.09,1.1c0.06,0.35,0.16,0.69,0.28,1.01c0.13,0.32,0.29,0.62,0.47,0.91c0.19,0.28,0.41,0.55,0.66,0.8
			c0,0,0,0,0,0c0.51,0.51,1.09,0.9,1.73,1.16c0,0,0,0,0,0c0.64,0.26,1.33,0.4,2.08,0.41c0.04,0,0.08,0,0.12,0h0
			c0.72,0,1.4-0.12,2.02-0.36c0.62-0.24,1.2-0.6,1.71-1.08c0.27-0.25,0.5-0.51,0.7-0.8c0.2-0.29,0.37-0.59,0.51-0.92
			c0.14-0.33,0.24-0.67,0.31-1.03c0.07-0.36,0.11-0.74,0.12-1.14c0-0.04,0-0.08,0-0.12v0v0c0-0.76-0.12-1.47-0.38-2.11
			C65.81,29.83,65.44,29.26,64.93,28.76z M63.64,32.64c-0.01,0.46-0.08,0.85-0.22,1.19c-0.07,0.17-0.15,0.32-0.25,0.46
			c-0.1,0.14-0.21,0.26-0.34,0.38c-0.26,0.23-0.54,0.39-0.83,0.51c-0.3,0.11-0.61,0.17-0.95,0.17c-0.02,0-0.04,0-0.05,0c0,0,0,0,0,0
			c-0.35-0.01-0.68-0.07-0.98-0.19h0c-0.3-0.12-0.58-0.3-0.84-0.54c-0.12-0.11-0.23-0.24-0.32-0.38c-0.09-0.14-0.17-0.29-0.23-0.45
			c0,0,0,0,0,0c0,0,0,0,0,0c-0.12-0.32-0.19-0.7-0.19-1.14c0-0.03,0-0.05,0-0.08c0-0.23,0.02-0.44,0.06-0.64
			c0.04-0.2,0.09-0.38,0.16-0.55c0.07-0.17,0.15-0.32,0.25-0.46c0.1-0.14,0.21-0.26,0.34-0.38c0,0,0,0,0,0c0,0,0,0,0,0
			c0.26-0.23,0.54-0.4,0.84-0.51c0.3-0.11,0.61-0.17,0.96-0.17c0.02,0,0.04,0,0.05,0c0.35,0.01,0.68,0.07,0.98,0.19
			c0.3,0.12,0.58,0.3,0.84,0.55c0.12,0.11,0.23,0.24,0.32,0.38c0.09,0.14,0.17,0.29,0.23,0.45c0.12,0.33,0.19,0.71,0.19,1.15
			C63.64,32.58,63.64,32.61,63.64,32.64z"/>
		<polygon class="st0" points="67.39,27.5 67.39,27.5 67.39,27.5 		"/>
		<path class="st0" d="M74.17,27.46c-0.02-0.02-0.05-0.04-0.08-0.06c-0.03-0.01-0.06-0.02-0.1-0.02H67.6h0h0
			c-0.03,0-0.07,0.01-0.1,0.02c-0.05,0.02-0.08,0.05-0.11,0.09c-0.01,0.02-0.02,0.04-0.03,0.07v0c-0.01,0.02-0.01,0.05-0.01,0.07
			v9.92v0c0,0.03,0.01,0.07,0.02,0.1c0.02,0.05,0.05,0.08,0.09,0.11c0.02,0.01,0.04,0.02,0.07,0.03c0.02,0.01,0.05,0.01,0.07,0.01
			h2.22h0c0.03,0,0.06-0.01,0.1-0.02c0.03-0.01,0.06-0.03,0.08-0.05c0.02-0.02,0.04-0.05,0.06-0.08c0.01-0.03,0.02-0.06,0.02-0.1
			v-3.25c0-0.05,0.02-0.1,0.06-0.14c0.04-0.04,0.09-0.06,0.14-0.06l3.21,0l0.01,0c0.03,0,0.06-0.01,0.09-0.02
			c0.03-0.01,0.06-0.03,0.08-0.05c0.02-0.02,0.04-0.05,0.06-0.08c0.01-0.03,0.02-0.06,0.02-0.1v-2.01v-0.01
			c0-0.03-0.01-0.07-0.02-0.1c-0.02-0.05-0.05-0.08-0.09-0.11c-0.02-0.01-0.04-0.02-0.07-0.03h0c-0.02-0.01-0.05-0.01-0.07-0.01
			h-3.22c-0.05,0-0.1-0.02-0.14-0.06c-0.04-0.04-0.06-0.09-0.06-0.14v-1.19c0-0.05,0.02-0.1,0.06-0.14
			c0.04-0.04,0.09-0.06,0.14-0.06h3.73h0h0c0.03,0,0.07-0.01,0.1-0.02c0.05-0.02,0.08-0.05,0.11-0.09c0.01-0.02,0.02-0.04,0.03-0.07
			c0.01-0.02,0.01-0.05,0.01-0.07v-2.1v-0.01c0-0.03-0.01-0.06-0.02-0.09C74.21,27.51,74.2,27.49,74.17,27.46z"/>
		<path class="st0" d="M81.89,27.43c-0.02-0.01-0.04-0.02-0.07-0.03c-0.02-0.01-0.05-0.01-0.07-0.01h-6.39h0h0
			c-0.03,0-0.07,0.01-0.1,0.02c-0.05,0.02-0.08,0.05-0.11,0.09c-0.01,0.02-0.02,0.04-0.03,0.07c-0.01,0.02-0.01,0.05-0.01,0.07v9.92
			v0.01c0,0.03,0.01,0.07,0.02,0.1c0.02,0.05,0.05,0.08,0.09,0.11c0.02,0.01,0.04,0.02,0.07,0.03h0c0.02,0.01,0.05,0.01,0.07,0.01
			h2.22h0.01c0.03,0,0.06-0.01,0.09-0.02c0.03-0.01,0.06-0.03,0.08-0.05c0.02-0.02,0.04-0.05,0.06-0.08
			c0.01-0.03,0.02-0.06,0.02-0.1v-3.25c0-0.05,0.02-0.1,0.06-0.14c0.04-0.04,0.09-0.06,0.14-0.06h3.21h0.01
			c0.03,0,0.06-0.01,0.09-0.02c0.03-0.01,0.06-0.03,0.08-0.05c0.02-0.02,0.04-0.05,0.06-0.08c0.01-0.03,0.02-0.06,0.02-0.1v-2.01
			v-0.01c0-0.03-0.01-0.07-0.02-0.1c-0.02-0.05-0.05-0.08-0.09-0.11c-0.02-0.01-0.04-0.02-0.07-0.03c-0.02-0.01-0.05-0.01-0.07-0.01
			h-3.22c-0.05,0-0.1-0.02-0.14-0.06c-0.04-0.04-0.06-0.09-0.06-0.14v-1.19c0-0.05,0.02-0.1,0.06-0.14
			c0.04-0.04,0.09-0.06,0.14-0.06h3.73h0.01c0.03,0,0.06-0.01,0.09-0.02c0.03-0.01,0.06-0.03,0.08-0.05
			c0.02-0.02,0.04-0.05,0.06-0.08c0.01-0.03,0.02-0.06,0.02-0.1v-2.1v-0.01c0-0.03-0.01-0.07-0.02-0.1
			C81.97,27.49,81.94,27.46,81.89,27.43z"/>
		<path class="st0" d="M89.56,35.25L89.56,35.25c-0.02-0.01-0.04-0.02-0.07-0.03c-0.02-0.01-0.05-0.01-0.07-0.01h-3.63
			c-0.05,0-0.1-0.02-0.14-0.06c-0.04-0.04-0.06-0.09-0.06-0.14v-0.99c0-0.05,0.02-0.1,0.06-0.14c0.04-0.04,0.09-0.06,0.14-0.06h3.24
			h0c0.03,0,0.06-0.01,0.09-0.02c0.03-0.01,0.06-0.03,0.08-0.05c0.02-0.02,0.04-0.05,0.06-0.08c0.01-0.03,0.02-0.06,0.02-0.1v-1.94
			v-0.01c0-0.03-0.01-0.07-0.02-0.1c-0.02-0.05-0.05-0.08-0.09-0.11c-0.02-0.01-0.04-0.02-0.07-0.03c-0.02-0.01-0.05-0.01-0.07-0.01
			h-3.24c-0.05,0-0.1-0.02-0.14-0.06c-0.04-0.04-0.06-0.09-0.06-0.14v-0.98c0-0.05,0.02-0.1,0.06-0.14
			c0.04-0.04,0.09-0.06,0.14-0.06h3.61h0.01c0.03,0,0.06-0.01,0.1-0.02c0.03-0.01,0.06-0.03,0.08-0.05
			c0.02-0.02,0.04-0.05,0.06-0.08c0.01-0.03,0.02-0.06,0.02-0.1v-2.08v-0.01c0-0.03-0.01-0.06-0.02-0.09
			c-0.01-0.03-0.03-0.06-0.05-0.08c-0.02-0.02-0.05-0.04-0.08-0.06c-0.03-0.01-0.06-0.02-0.1-0.02h-6.28h-0.01
			c-0.03,0-0.07,0.01-0.1,0.02c-0.05,0.02-0.08,0.05-0.11,0.09v0c-0.01,0.02-0.02,0.04-0.03,0.07c-0.01,0.02-0.01,0.05-0.01,0.07
			v9.92v0.01c0,0.03,0.01,0.07,0.02,0.1c0.02,0.05,0.05,0.08,0.09,0.11c0.02,0.01,0.04,0.02,0.07,0.03
			c0.02,0.01,0.05,0.01,0.07,0.01h6.29h0c0.03,0,0.06-0.01,0.09-0.02c0.03-0.01,0.06-0.03,0.08-0.05c0.02-0.02,0.04-0.05,0.06-0.08
			c0.01-0.03,0.02-0.06,0.02-0.1v-2.1v-0.01c0-0.03-0.01-0.07-0.02-0.1C89.63,35.31,89.6,35.28,89.56,35.25z"/>
		<path class="st0" d="M97.34,35.46L97.34,35.46c0-0.04-0.01-0.07-0.02-0.1c-0.02-0.05-0.05-0.08-0.09-0.11
			c-0.02-0.01-0.04-0.02-0.07-0.03c-0.02-0.01-0.05-0.01-0.08-0.01h-3.63c-0.05,0-0.1-0.02-0.14-0.06
			c-0.04-0.04-0.06-0.09-0.06-0.14v-0.99c0-0.05,0.02-0.1,0.06-0.14c0.04-0.04,0.09-0.06,0.14-0.06h3.24h0
			c0.03,0,0.06-0.01,0.09-0.02c0.03-0.01,0.06-0.03,0.08-0.05c0.02-0.02,0.04-0.05,0.05-0.08c0.01-0.03,0.02-0.06,0.02-0.1v-1.94
			v-0.01c0-0.03-0.01-0.07-0.02-0.1c-0.02-0.05-0.05-0.08-0.09-0.11c-0.02-0.01-0.04-0.02-0.07-0.03c-0.02-0.01-0.05-0.01-0.08-0.01
			h-3.24c-0.05,0-0.1-0.02-0.14-0.06c-0.04-0.04-0.06-0.09-0.06-0.14v-0.98c0-0.05,0.02-0.1,0.06-0.14
			c0.04-0.04,0.09-0.06,0.14-0.06l3.61,0l0.01,0c0.03,0,0.06-0.01,0.09-0.02c0.03-0.01,0.06-0.03,0.08-0.05
			c0.02-0.02,0.04-0.05,0.06-0.08c0.01-0.03,0.02-0.06,0.02-0.1v-2.08v-0.01c0-0.03-0.01-0.06-0.02-0.09
			c-0.01-0.03-0.03-0.06-0.05-0.08c-0.02-0.02-0.05-0.04-0.08-0.06c-0.03-0.01-0.06-0.02-0.1-0.02h-6.28h-0.01
			c-0.03,0-0.06,0.01-0.09,0.02c-0.03,0.01-0.06,0.03-0.08,0.05c-0.02,0.02-0.04,0.05-0.06,0.08c-0.01,0.03-0.02,0.06-0.02,0.1v9.92
			v0.01c0,0.03,0.01,0.07,0.02,0.1c0.02,0.05,0.05,0.08,0.09,0.11c0.02,0.01,0.04,0.02,0.07,0.03c0.02,0.01,0.05,0.01,0.08,0.01
			h6.29h0h0c0.03,0,0.06-0.01,0.09-0.02c0.03-0.01,0.06-0.03,0.08-0.05c0.02-0.02,0.04-0.05,0.06-0.08c0.01-0.03,0.02-0.06,0.02-0.1
			L97.34,35.46z"/>
		<path class="st0" d="M54.96,30.94c-0.03-0.17-0.07-0.32-0.13-0.47c-0.13-0.32-0.28-0.62-0.47-0.91c-0.19-0.29-0.41-0.55-0.66-0.8
			c-0.51-0.51-1.09-0.9-1.72-1.16c0,0,0,0,0,0c-0.32-0.13-0.65-0.23-1-0.3c-0.35-0.07-0.71-0.11-1.08-0.11c-0.04,0-0.08,0-0.12,0h0
			c-0.72,0-1.4,0.12-2.03,0.36c-0.63,0.24-1.2,0.6-1.72,1.08v0c-0.27,0.25-0.5,0.51-0.71,0.8s-0.37,0.59-0.51,0.92
			c-0.14,0.33-0.24,0.67-0.31,1.03c-0.07,0.36-0.11,0.75-0.12,1.14c0,0.04,0,0.08,0,0.12c0,0.38,0.03,0.75,0.09,1.1
			c0.06,0.35,0.16,0.69,0.28,1.01c0.13,0.32,0.28,0.62,0.47,0.91c0.19,0.28,0.41,0.55,0.66,0.8c0.51,0.51,1.09,0.9,1.73,1.16
			c0.32,0.13,0.65,0.23,1,0.3c0.35,0.07,0.71,0.11,1.08,0.11c0.04,0,0.08,0,0.12,0h0c0.72,0,1.4-0.12,2.02-0.36
			c0.63-0.24,1.2-0.6,1.71-1.08c0.27-0.25,0.5-0.51,0.7-0.8c0.2-0.29,0.37-0.59,0.51-0.92c0.06-0.15,0.11-0.31,0.14-0.48
			c0.04-0.17,0.06-0.35,0.1-0.55c0.01-0.04,0.01-0.07,0.02-0.11l0,0c0-0.01,0-0.01-0.01-0.02c-0.01,0-0.01-0.01-0.02-0.01h-2.7
			c-0.01,0-0.02,0.01-0.02,0.01c-0.02,0.05-0.03,0.09-0.05,0.14c-0.07,0.17-0.15,0.33-0.25,0.47c-0.1,0.14-0.22,0.27-0.35,0.39
			c-0.27,0.23-0.55,0.4-0.85,0.52c-0.15,0.06-0.31,0.1-0.47,0.13c-0.16,0.03-0.33,0.04-0.51,0.04c-0.02,0-0.04,0-0.06,0
			c-0.18,0-0.35-0.02-0.52-0.05c-0.17-0.03-0.33-0.08-0.48-0.14h0c-0.15-0.06-0.3-0.14-0.45-0.23c-0.14-0.09-0.28-0.2-0.42-0.32l0,0
			l0,0l0,0l0,0c0,0,0,0,0,0c-0.12-0.12-0.23-0.24-0.33-0.38c-0.09-0.14-0.17-0.29-0.24-0.46c-0.06-0.17-0.11-0.35-0.14-0.54
			c-0.03-0.19-0.05-0.4-0.05-0.63c0-0.03,0-0.06,0-0.08c0-0.23,0.02-0.45,0.06-0.65c0.04-0.2,0.09-0.39,0.16-0.56
			c0.07-0.17,0.16-0.33,0.26-0.47c0.1-0.14,0.22-0.27,0.35-0.39c0.27-0.23,0.55-0.41,0.86-0.52c0.15-0.06,0.31-0.1,0.47-0.13
			c0.16-0.03,0.33-0.04,0.51-0.04c0.02,0,0.04,0,0.06,0c0,0,0,0,0,0c0.18,0,0.35,0.02,0.52,0.05c0.17,0.03,0.33,0.08,0.48,0.14
			s0.3,0.14,0.45,0.23c0.14,0.09,0.28,0.2,0.41,0.33h0c0.12,0.12,0.23,0.25,0.33,0.39c0.09,0.14,0.17,0.29,0.24,0.46
			c0.01,0.03,0.02,0.07,0.04,0.1c0,0.01,0.01,0.02,0.02,0.02h2.69c0.01,0,0.01,0,0.02-0.01c0,0,0.01-0.01,0.01-0.02v0l0,0
			C55.01,31.28,54.99,31.11,54.96,30.94z"/>
	</g>
	<line class="st1" x1="23.66" y1="6.31" x2="23.66" y2="6.31"/>
	<g>
		<path class="st0" d="M43.66,6.57c-0.25-0.64-0.57-1.24-0.94-1.81c-0.38-0.57-0.82-1.11-1.32-1.6h0c-1.02-1.02-2.17-1.8-3.44-2.33
			c-0.64-0.26-1.3-0.46-1.99-0.6C35.27,0.09,34.55,0.01,33.8,0c-0.08,0-0.15,0-0.23,0h0c-1.44,0-2.79,0.24-4.04,0.72
			c-1.25,0.48-2.4,1.2-3.43,2.15v0c-0.53,0.49-1.01,1.02-1.41,1.6c-0.41,0.57-0.75,1.19-1.02,1.84c-0.28,0.65-0.48,1.34-0.63,2.07
			c-0.14,0.73-0.22,1.49-0.24,2.29c0,0.08,0,0.16,0,0.25v0c0,0.77,0.06,1.5,0.19,2.2c0.13,0.7,0.31,1.37,0.57,2.01
			c0.25,0.64,0.57,1.24,0.95,1.81c0.38,0.57,0.82,1.1,1.32,1.6c1.03,1.02,2.18,1.79,3.45,2.32c0.64,0.26,1.3,0.46,1.99,0.6
			c0.69,0.14,1.41,0.21,2.16,0.22c0.08,0,0.16,0,0.23,0h0h0c1.44,0,2.79-0.24,4.04-0.72c1.25-0.48,2.39-1.2,3.42-2.16
			c0.53-0.49,1-1.02,1.41-1.6c0.4-0.57,0.74-1.18,1.02-1.83c0.27-0.65,0.48-1.34,0.63-2.06c0.14-0.72,0.22-1.48,0.23-2.27
			c0-0.08,0-0.17,0-0.25c0-0.77-0.06-1.5-0.19-2.2C44.1,7.88,43.91,7.21,43.66,6.57z M38.91,10.92c-0.01,0.47-0.05,0.9-0.12,1.3
			c-0.07,0.4-0.18,0.77-0.32,1.11c-0.14,0.34-0.31,0.65-0.51,0.93c-0.2,0.28-0.43,0.54-0.69,0.77h0c-0.53,0.46-1.09,0.8-1.7,1.03
			c-0.3,0.11-0.61,0.2-0.94,0.25c-0.32,0.06-0.66,0.09-1.01,0.09c-0.04,0-0.07,0-0.11,0c-0.36-0.01-0.71-0.04-1.04-0.11
			c-0.33-0.06-0.65-0.16-0.95-0.28l0,0c-0.31-0.12-0.61-0.28-0.89-0.46c-0.29-0.18-0.56-0.4-0.83-0.64v0
			c-0.25-0.23-0.47-0.49-0.66-0.76c-0.19-0.28-0.34-0.58-0.47-0.91c-0.13-0.33-0.22-0.69-0.29-1.08c-0.06-0.39-0.1-0.8-0.1-1.25
			c0-0.05,0-0.11,0-0.17c0.01-0.47,0.05-0.9,0.12-1.3c0.08-0.4,0.18-0.77,0.32-1.11v0c0.14-0.34,0.31-0.65,0.51-0.94
			c0.2-0.28,0.44-0.54,0.7-0.77c0.53-0.46,1.1-0.81,1.71-1.04c0.3-0.11,0.62-0.2,0.94-0.26c0.32-0.06,0.66-0.09,1.01-0.09
			c0.04,0,0.07,0,0.1,0h0.01c0.36,0.01,0.7,0.04,1.04,0.11c0.33,0.07,0.65,0.16,0.95,0.29h0c0.31,0.12,0.6,0.28,0.88,0.46
			c0.28,0.19,0.56,0.4,0.82,0.65v0c0.25,0.23,0.46,0.49,0.65,0.77c0.18,0.28,0.34,0.58,0.46,0.91l0,0v0l0,0.01
			c0.12,0.33,0.22,0.69,0.28,1.08c0.06,0.39,0.1,0.8,0.1,1.25C38.91,10.81,38.91,10.86,38.91,10.92z"/>
		<path class="st0" d="M69,0.5c-0.04-0.02-0.07-0.04-0.12-0.05c-0.04-0.01-0.09-0.02-0.13-0.02h0h-6.1h0h-0.01
			c-0.09,0-0.18,0.03-0.25,0.08c-0.04,0.02-0.07,0.05-0.09,0.09c-0.03,0.03-0.05,0.07-0.07,0.12l-4.45,11.53
			c-0.06,0.15-0.2,0.24-0.35,0.24c-0.16,0-0.3-0.09-0.36-0.24L52.37,0.7c-0.03-0.08-0.09-0.15-0.16-0.2
			c-0.07-0.05-0.16-0.08-0.25-0.08h-5.79h0h0c-0.06,0-0.12,0.01-0.17,0.04c-0.08,0.04-0.15,0.09-0.19,0.16
			c-0.02,0.04-0.04,0.07-0.05,0.12h0c-0.01,0.04-0.02,0.09-0.02,0.13V20.8v0.01c0,0.06,0.02,0.12,0.04,0.17
			c0.04,0.08,0.09,0.14,0.16,0.19c0.04,0.02,0.07,0.04,0.12,0.05c0.04,0.01,0.09,0.02,0.13,0.02h4.22h0.01
			c0.06,0,0.11-0.01,0.17-0.04c0.05-0.02,0.1-0.05,0.14-0.09c0.04-0.04,0.07-0.09,0.1-0.14c0.02-0.05,0.03-0.11,0.03-0.17v-8.75
			c0-0.18,0.13-0.34,0.31-0.37c0.18-0.04,0.36,0.06,0.43,0.23l3.61,9.05c0.03,0.08,0.09,0.15,0.16,0.2l0,0
			c0.07,0.05,0.16,0.08,0.25,0.08h3.6h0.01c0.09,0,0.18-0.03,0.25-0.08c0.04-0.02,0.07-0.05,0.09-0.09
			c0.03-0.03,0.05-0.07,0.06-0.11l3.61-9.17c0.07-0.17,0.25-0.27,0.43-0.24c0.18,0.04,0.31,0.19,0.31,0.38v8.86v0.01
			c0,0.06,0.01,0.12,0.04,0.17c0.04,0.08,0.09,0.14,0.16,0.19c0.04,0.02,0.07,0.04,0.12,0.05c0.04,0.01,0.09,0.02,0.13,0.02h4.36
			h0.01c0.06,0,0.11-0.01,0.17-0.04c0.05-0.02,0.1-0.05,0.14-0.09c0.04-0.04,0.07-0.09,0.1-0.14c0.02-0.05,0.03-0.11,0.03-0.17V0.87
			V0.86c0-0.06-0.02-0.12-0.04-0.17C69.13,0.61,69.07,0.54,69,0.5z"/>
		<path class="st0" d="M86.18,7.11c-0.01-0.47-0.06-0.93-0.14-1.37c-0.09-0.44-0.22-0.85-0.39-1.25h0c-0.17-0.4-0.38-0.78-0.63-1.13
			c-0.25-0.36-0.54-0.69-0.87-1c-0.34-0.32-0.7-0.6-1.09-0.84c-0.39-0.24-0.81-0.44-1.24-0.6c-0.88-0.32-1.85-0.48-2.91-0.48H71.4
			h-0.01c-0.06,0-0.12,0.01-0.17,0.04c-0.08,0.04-0.14,0.09-0.19,0.16C71,0.67,70.99,0.71,70.97,0.75
			c-0.01,0.04-0.02,0.09-0.02,0.13v0v19.94v0.01c0,0.06,0.01,0.12,0.04,0.17c0.04,0.08,0.09,0.15,0.16,0.19
			c0.04,0.02,0.07,0.04,0.12,0.06c0.04,0.01,0.09,0.02,0.13,0.02h4.44h0.01c0.06,0,0.11-0.01,0.17-0.04
			c0.05-0.02,0.1-0.05,0.14-0.09c0.04-0.04,0.07-0.09,0.1-0.14c0.02-0.05,0.03-0.11,0.03-0.17v-6.35c0-0.1,0.04-0.2,0.11-0.27
			c0.07-0.07,0.17-0.11,0.27-0.11h2.24c0.06,0,0.12,0,0.19,0h0c1.01-0.02,1.95-0.18,2.79-0.5c0.85-0.31,1.6-0.78,2.26-1.39
			c0.34-0.32,0.64-0.66,0.89-1.02c0.26-0.37,0.47-0.76,0.64-1.17v0c0.17-0.41,0.3-0.85,0.38-1.31c0.08-0.46,0.13-0.94,0.13-1.43
			C86.19,7.21,86.19,7.16,86.18,7.11L86.18,7.11z M80.85,7.29L80.85,7.29c0,0.17-0.01,0.33-0.04,0.47c-0.03,0.14-0.07,0.28-0.12,0.4
			v0c-0.05,0.12-0.12,0.24-0.2,0.34c-0.08,0.11-0.17,0.21-0.28,0.3h0C80.11,8.89,80,8.97,79.88,9.04h0
			c-0.12,0.07-0.25,0.13-0.39,0.18c-0.28,0.1-0.6,0.15-0.96,0.16c-0.02,0-0.05,0-0.07,0H76.7c-0.1,0-0.2-0.04-0.27-0.11
			C76.35,9.2,76.31,9.1,76.31,9V5.56c0-0.1,0.04-0.2,0.11-0.27c0.07-0.07,0.17-0.11,0.27-0.11h1.76c0.39,0,0.73,0.05,1.02,0.15
			c0.15,0.05,0.28,0.11,0.4,0.18c0.12,0.07,0.24,0.15,0.34,0.25h0c0.1,0.09,0.19,0.19,0.26,0.29v0c0.08,0.1,0.14,0.22,0.19,0.34
			c0.05,0.12,0.09,0.25,0.12,0.39c0.03,0.14,0.04,0.29,0.05,0.46C80.85,7.25,80.85,7.27,80.85,7.29z"/>
		<line class="st1" x1="103.09" y1="10.91" x2="103.47" y2="10.92"/>
		<path class="st0" d="M108.23,6.58c-0.25-0.64-0.56-1.24-0.94-1.81c-0.38-0.57-0.82-1.11-1.32-1.61c-1.02-1.02-2.18-1.8-3.45-2.33
			c-0.64-0.26-1.3-0.46-1.99-0.6C99.84,0.09,99.12,0.01,98.37,0c-0.08,0-0.15,0-0.23,0c-1.45,0-2.8,0.24-4.05,0.72
			c-1.25,0.48-2.4,1.2-3.43,2.16c-0.53,0.49-1.01,1.02-1.41,1.6c-0.41,0.57-0.75,1.19-1.02,1.84c-0.28,0.65-0.48,1.34-0.63,2.07
			c-0.14,0.73-0.22,1.49-0.24,2.29c0,0.08,0,0.16,0,0.25v0c0,0.76,0.06,1.5,0.19,2.2c0.13,0.7,0.31,1.37,0.57,2.01
			c0.25,0.64,0.57,1.24,0.95,1.81c0.38,0.57,0.82,1.1,1.32,1.6c1.03,1.02,2.18,1.79,3.45,2.32c0.64,0.26,1.3,0.46,1.99,0.6
			c0.69,0.14,1.41,0.21,2.16,0.22c0.08,0,0.16,0,0.23,0h0h0c1.44,0,2.79-0.24,4.04-0.72c1.25-0.48,2.39-1.2,3.42-2.16
			c0.53-0.49,1-1.02,1.4-1.6c0.41-0.57,0.74-1.18,1.02-1.83c0.27-0.65,0.48-1.34,0.63-2.06c0.14-0.72,0.22-1.48,0.23-2.27
			c0-0.08,0-0.16,0-0.25v0c0-0.77-0.06-1.5-0.19-2.2C108.67,7.89,108.48,7.21,108.23,6.58z M103.47,10.92
			c-0.01,0.47-0.05,0.9-0.12,1.3c-0.07,0.4-0.18,0.77-0.32,1.11c-0.14,0.34-0.31,0.65-0.51,0.93c-0.2,0.28-0.43,0.54-0.69,0.77h0
			c-0.53,0.46-1.09,0.8-1.7,1.03c-0.3,0.11-0.61,0.2-0.94,0.26c-0.32,0.06-0.66,0.08-1.01,0.08c-0.04,0-0.07,0-0.11,0
			c-0.36-0.01-0.71-0.04-1.04-0.11c-0.33-0.07-0.65-0.16-0.96-0.28c-0.31-0.12-0.61-0.28-0.89-0.46c-0.28-0.18-0.55-0.39-0.82-0.63
			v0l-0.01-0.01c-0.25-0.23-0.47-0.49-0.66-0.77c-0.19-0.28-0.34-0.58-0.47-0.91v0c-0.13-0.33-0.22-0.69-0.29-1.08
			c-0.06-0.39-0.1-0.8-0.1-1.25c0-0.05,0-0.11,0-0.16c0.01-0.47,0.05-0.9,0.12-1.3c0.08-0.4,0.18-0.77,0.32-1.11v0
			c0.14-0.34,0.31-0.65,0.51-0.94c0.2-0.28,0.44-0.54,0.7-0.77c0.53-0.46,1.1-0.81,1.71-1.04c0.3-0.11,0.62-0.2,0.94-0.26
			c0.32-0.06,0.66-0.09,1.01-0.09c0.04,0,0.07,0,0.1,0h0.01c0.36,0.01,0.7,0.04,1.04,0.11c0.33,0.07,0.65,0.16,0.95,0.29h0
			c0.31,0.12,0.6,0.28,0.88,0.47c0.28,0.19,0.56,0.4,0.82,0.65v0c0.25,0.23,0.47,0.49,0.65,0.77c0.18,0.28,0.34,0.58,0.46,0.91l0,0
			l0,0.01c0.12,0.33,0.22,0.69,0.28,1.08c0.06,0.39,0.1,0.8,0.1,1.25C103.48,10.81,103.48,10.86,103.47,10.92z"/>
		<path class="st0" d="M125.8,4.11c-0.3-0.64-0.72-1.26-1.26-1.86c-0.28-0.32-0.62-0.6-1-0.86c-0.38-0.26-0.81-0.48-1.29-0.68
			c-0.96-0.4-2.06-0.63-3.28-0.69c-0.06,0-0.11-0.01-0.17-0.01h0c-0.99-0.03-1.92,0.09-2.8,0.36c-0.88,0.28-1.7,0.71-2.45,1.3
			c-0.39,0.3-0.74,0.63-1.04,0.98c-0.3,0.35-0.56,0.73-0.77,1.13c-0.21,0.4-0.38,0.83-0.49,1.28c-0.12,0.45-0.19,0.91-0.21,1.4
			c0,0.04,0,0.08-0.01,0.12v0v0c-0.03,0.76,0.07,1.49,0.3,2.17c0.23,0.68,0.58,1.31,1.06,1.88c0.49,0.59,1.08,1.09,1.77,1.49h0
			c0.69,0.4,1.47,0.71,2.34,0.92h0h0l2.69,0.65l0,0c0.31,0.08,0.57,0.17,0.79,0.29c0.22,0.11,0.4,0.25,0.54,0.39h0
			c0.07,0.07,0.13,0.14,0.17,0.21v0c0.05,0.07,0.09,0.15,0.12,0.22l0,0c0.03,0.08,0.05,0.16,0.06,0.24
			c0.01,0.08,0.02,0.17,0.02,0.27v0l0,0.02v0c-0.01,0.12-0.03,0.24-0.05,0.34c-0.03,0.1-0.07,0.2-0.12,0.29l0,0
			c-0.05,0.09-0.11,0.18-0.19,0.25c-0.08,0.08-0.17,0.16-0.28,0.23v0c-0.1,0.07-0.21,0.13-0.33,0.18c-0.12,0.05-0.25,0.09-0.39,0.13
			c-0.28,0.07-0.61,0.1-0.99,0.08c-0.03,0-0.06,0-0.09,0h-0.01c-0.61-0.03-1.13-0.14-1.56-0.3c-0.22-0.08-0.41-0.18-0.59-0.3
			c-0.17-0.11-0.33-0.24-0.47-0.39h0c-0.14-0.15-0.27-0.31-0.38-0.48v0c-0.02-0.02-0.03-0.04-0.04-0.07
			c-0.01-0.02-0.03-0.05-0.05-0.08c-0.03-0.06-0.07-0.13-0.11-0.2c-0.08-0.15-0.17-0.32-0.24-0.46c-0.04-0.07-0.07-0.13-0.09-0.18
			c-0.06-0.04-0.14-0.06-0.21-0.07l-0.02,0c-0.03,0-0.06,0-0.11,0.01c-0.1,0.01-0.23,0.01-0.4,0.03c-0.33,0.02-0.78,0.05-1.26,0.08
			c-0.95,0.06-2,0.14-2.42,0.16c-0.08,0.01-0.14,0.01-0.17,0.01l-0.01,0c-0.05,0.01-0.1,0.03-0.14,0.05
			c-0.06,0.04-0.12,0.09-0.16,0.15c-0.04,0.06-0.06,0.14-0.06,0.21c0,0.01,0,0.02,0,0.04c0.02,0.34,0.05,0.56,0.1,0.76
			c0.05,0.2,0.12,0.37,0.22,0.6c0.07,0.15,0.15,0.33,0.25,0.54c0.37,0.81,0.9,1.57,1.58,2.29c0.35,0.37,0.74,0.69,1.17,0.98
			c0.43,0.28,0.9,0.52,1.4,0.72c1.01,0.4,2.16,0.62,3.45,0.69c0.07,0,0.15,0.01,0.22,0.01c1.12,0.04,2.14-0.08,3.07-0.37
			c0.93-0.29,1.76-0.74,2.49-1.36v0c0.37-0.31,0.69-0.65,0.98-1c0.28-0.35,0.53-0.72,0.73-1.11c0.2-0.39,0.36-0.79,0.47-1.21
			c0.11-0.42,0.18-0.85,0.2-1.3c0-0.04,0-0.08,0.01-0.12v0v0c0.03-0.76-0.08-1.48-0.31-2.17c-0.24-0.69-0.6-1.33-1.09-1.93h0
			c-0.51-0.62-1.13-1.14-1.87-1.56c-0.73-0.42-1.57-0.74-2.51-0.96l0,0h0l-2.64-0.64l0,0h0l0,0c-0.29-0.07-0.53-0.16-0.73-0.26l0,0
			c-0.15-0.08-0.27-0.16-0.38-0.25v0c-0.08-0.06-0.14-0.14-0.19-0.21l0,0c-0.05-0.07-0.09-0.15-0.13-0.23l0,0
			c-0.03-0.08-0.06-0.17-0.07-0.26c-0.02-0.1-0.02-0.2-0.02-0.32v0c0-0.01,0-0.02,0-0.03v0c0.01-0.11,0.02-0.22,0.05-0.32l0,0
			c0.03-0.1,0.07-0.19,0.12-0.28v0c0.05-0.09,0.12-0.18,0.2-0.27c0.08-0.09,0.18-0.17,0.29-0.26c0.11-0.08,0.22-0.15,0.34-0.2
			c0.12-0.06,0.25-0.11,0.38-0.14c0.27-0.08,0.58-0.11,0.92-0.1c0.02,0,0.05,0,0.07,0h0c0.25,0.01,0.48,0.04,0.69,0.08
			c0.21,0.04,0.4,0.09,0.56,0.16c0.17,0.07,0.32,0.14,0.45,0.23h0c0.04,0.03,0.08,0.06,0.12,0.09c0.03,0.03,0.07,0.06,0.1,0.09
			c0.06,0.05,0.11,0.1,0.11,0.1l0.02,0.02c0.01,0.01,0.02,0.02,0.03,0.04c0.01,0.01,0.02,0.02,0.03,0.04
			c0.02,0.03,0.04,0.06,0.07,0.1c0.05,0.08,0.12,0.17,0.19,0.28c0.14,0.21,0.31,0.46,0.43,0.69c0.03,0.05,0.07,0.1,0.13,0.14
			c0.07,0.05,0.16,0.08,0.24,0.08c0.03,0,0.06,0,0.1-0.01c0.01,0,0.02,0,0.04-0.01h0.01l4.06-0.37c0.05-0.01,0.09-0.03,0.13-0.06
			c0.06-0.04,0.11-0.09,0.15-0.15c0.04-0.06,0.06-0.13,0.06-0.21c0-0.02,0-0.05,0-0.07C126.3,5.41,126.1,4.75,125.8,4.11z"/>
		<path class="st0" d="M141.7,0.72c-0.02-0.05-0.05-0.1-0.09-0.14c-0.04-0.04-0.09-0.07-0.15-0.1c-0.05-0.02-0.11-0.04-0.17-0.04h0
			l-12.63-0.04h-0.01c-0.06,0-0.12,0.01-0.17,0.04c-0.08,0.04-0.15,0.09-0.19,0.16c-0.02,0.04-0.04,0.07-0.05,0.11v0
			c-0.01,0.04-0.02,0.09-0.02,0.13l-0.06,19.94v0.01c0,0.06,0.01,0.11,0.04,0.17c0.02,0.05,0.05,0.1,0.09,0.14
			c0.04,0.04,0.09,0.07,0.14,0.1c0.05,0.02,0.11,0.03,0.17,0.03l12.65,0.04h0.01c0.06,0,0.11-0.01,0.16-0.04
			c0.05-0.02,0.1-0.05,0.14-0.09c0.04-0.04,0.07-0.09,0.1-0.14c0.02-0.05,0.04-0.11,0.04-0.17l0.01-4.22v-0.01
			c0-0.06-0.01-0.12-0.04-0.17c-0.03-0.08-0.09-0.15-0.16-0.19c-0.04-0.02-0.07-0.04-0.12-0.05c-0.04-0.01-0.09-0.02-0.13-0.02
			l-7.39-0.02c-0.1,0-0.2-0.04-0.27-0.11c-0.07-0.07-0.11-0.17-0.11-0.27l0.01-2.17c0-0.1,0.04-0.2,0.11-0.27
			c0.07-0.07,0.17-0.11,0.27-0.11l6.6,0.02h0h0.01c0.06,0,0.11-0.01,0.17-0.04c0.05-0.02,0.1-0.05,0.14-0.09
			c0.04-0.04,0.07-0.09,0.1-0.14c0.02-0.05,0.03-0.11,0.04-0.17l0.01-3.91V8.87c0-0.06-0.01-0.11-0.04-0.17
			c-0.02-0.05-0.05-0.1-0.09-0.14c-0.04-0.04-0.09-0.07-0.14-0.1c-0.05-0.02-0.11-0.04-0.17-0.04l-6.6-0.02
			c-0.1,0-0.2-0.04-0.27-0.11c-0.07-0.07-0.11-0.17-0.11-0.27l0.01-2.14c0-0.1,0.04-0.2,0.11-0.27c0.07-0.07,0.17-0.11,0.27-0.11
			l7.36,0.02h0.01c0.06,0,0.11-0.01,0.17-0.04c0.05-0.02,0.1-0.05,0.14-0.09c0.04-0.04,0.07-0.09,0.1-0.14
			c0.02-0.05,0.03-0.11,0.04-0.17l0.01-4.19v0v0V0.88C141.73,0.83,141.72,0.77,141.7,0.72z"/>
	</g>
	<g>
		<path class="st0" d="M4.12,5.72c0.05,0.09,0.12,0.18,0.21,0.27c0.09,0.08,0.17,0.13,0.26,0.17c0.08,0.04,0.16,0.05,0.25,0.05
			c0.02,0,0.04,0,0.06,0C5,6.19,5.09,6.17,5.17,6.13c0.08-0.04,0.15-0.1,0.22-0.17C5.46,5.88,5.51,5.8,5.54,5.72
			c0.03-0.08,0.05-0.17,0.05-0.27v0v0c0-0.05-0.01-0.09-0.02-0.14C5.56,5.26,5.54,5.22,5.52,5.17C5.47,5.08,5.4,4.99,5.3,4.9
			C5.22,4.83,5.13,4.77,5.05,4.73C4.96,4.7,4.88,4.68,4.8,4.68c-0.02,0-0.04,0-0.06,0c-0.1,0.01-0.19,0.04-0.27,0.08
			C4.39,4.8,4.32,4.85,4.25,4.93C4.18,5,4.14,5.08,4.1,5.17C4.07,5.25,4.05,5.34,4.05,5.44v0v0c0,0.05,0.01,0.09,0.02,0.14
			C4.08,5.63,4.1,5.67,4.12,5.72z"/>
		<path class="st0" d="M11.69,2.44c0,0,0.01,0,0.01,0c0.06,0,0.11-0.01,0.15-0.02c0.04-0.01,0.08-0.03,0.11-0.06
			c0.03-0.03,0.05-0.05,0.07-0.09c0.01-0.03,0.02-0.07,0.02-0.12c0,0,0-0.01,0-0.01c0-0.05-0.01-0.09-0.02-0.12
			c-0.01-0.03-0.03-0.06-0.06-0.09c-0.03-0.03-0.06-0.05-0.11-0.06c-0.04-0.01-0.1-0.02-0.16-0.02l-0.31,0l-0.01,0.6L11.69,2.44
			L11.69,2.44z"/>
		<path class="st0" d="M7.55,17.61c-0.06-0.06-0.12-0.12-0.21-0.16c-0.05-0.03-0.11-0.05-0.16-0.06c-0.06-0.01-0.11-0.02-0.17-0.02
			c-0.06,0-0.12,0.01-0.19,0.02c-0.04,0.01-0.09,0.03-0.12,0.05c-0.04,0.02-0.08,0.05-0.11,0.08c-0.07,0.06-0.14,0.15-0.2,0.26
			c-0.04,0.07-0.06,0.14-0.08,0.2c-0.02,0.06-0.03,0.12-0.03,0.18c0,0.07,0.01,0.13,0.03,0.19c0.03,0.09,0.08,0.17,0.14,0.23
			c0.06,0.07,0.13,0.12,0.21,0.16c0.06,0.03,0.11,0.05,0.17,0.06c0.06,0.01,0.11,0.02,0.17,0.02c0.06,0,0.12-0.01,0.19-0.02
			c0.04-0.01,0.08-0.03,0.12-0.05c0.04-0.02,0.08-0.05,0.11-0.08c0.07-0.06,0.14-0.15,0.2-0.26c0.04-0.07,0.06-0.14,0.08-0.2
			c0.02-0.06,0.03-0.12,0.03-0.18c0-0.07-0.01-0.13-0.03-0.19C7.65,17.75,7.61,17.68,7.55,17.61z"/>
		<path class="st0" d="M13.93,4.01c0.06,0.07,0.14,0.12,0.23,0.17c0.06,0.03,0.11,0.05,0.17,0.06c0.06,0.01,0.11,0.02,0.17,0.02
			c0.07,0,0.14-0.01,0.21-0.03c0.05-0.01,0.09-0.03,0.13-0.05c0.04-0.02,0.08-0.05,0.12-0.09c0.07-0.07,0.14-0.16,0.2-0.28
			c0.04-0.07,0.06-0.14,0.08-0.21c0.02-0.07,0.03-0.13,0.03-0.19c0-0.08-0.01-0.15-0.04-0.22c-0.04-0.1-0.09-0.18-0.15-0.24
			c-0.06-0.07-0.14-0.12-0.23-0.17c-0.06-0.03-0.11-0.05-0.17-0.06c-0.06-0.01-0.11-0.02-0.17-0.02c-0.07,0-0.14,0.01-0.22,0.03
			c-0.05,0.01-0.09,0.03-0.13,0.05c-0.04,0.02-0.08,0.05-0.12,0.09c-0.08,0.07-0.14,0.16-0.2,0.28c-0.04,0.07-0.06,0.14-0.08,0.21
			c-0.02,0.07-0.03,0.13-0.03,0.19c0,0.08,0.01,0.15,0.04,0.22C13.82,3.86,13.87,3.94,13.93,4.01z"/>
		<path class="st0" d="M13.79,7.63c-0.05,0-0.1,0.01-0.16,0.04l-3.48,1.57C10.08,9.27,10,9.3,9.93,9.33
			C9.72,9.42,9.5,9.63,9.36,9.92l-1.8,3.56c-0.09,0.16-0.06,0.3,0.07,0.43l0,0c0.08,0.08,0.16,0.13,0.25,0.13
			c0.05,0,0.1-0.01,0.16-0.04l3.58-1.63c0.35-0.17,0.5-0.35,0.64-0.61l1.84-3.57c0.09-0.16,0.06-0.3-0.07-0.44
			C13.96,7.67,13.88,7.63,13.79,7.63z M11.23,11.29c-0.19,0.18-0.42,0.27-0.62,0.27c-0.15,0-0.29-0.05-0.39-0.16
			c-0.23-0.25-0.15-0.69,0.18-1c0.19-0.18,0.42-0.27,0.62-0.27c0.15,0,0.29,0.05,0.39,0.16C11.64,10.53,11.56,10.98,11.23,11.29z"/>
		<path class="st0" d="M15.94,13.13c-0.01,0.02-0.01,0.03-0.02,0.05c-0.01,0.02-0.02,0.04-0.03,0.06c-0.01,0.02-0.01,0.03-0.02,0.04
			c-0.01,0.02-0.02,0.04-0.03,0.06c-0.01,0.01-0.01,0.03-0.02,0.04c-0.01,0.02-0.02,0.05-0.04,0.07c-0.01,0.01-0.01,0.02-0.02,0.03
			c-0.02,0.03-0.04,0.07-0.05,0.1c0,0.01-0.01,0.02-0.02,0.03c-0.01,0.02-0.03,0.05-0.04,0.07c-0.01,0.01-0.02,0.02-0.02,0.04v0
			c-0.01,0.02-0.02,0.04-0.04,0.06l0,0c-0.01,0.01-0.02,0.03-0.03,0.04c-0.01,0.02-0.02,0.04-0.03,0.05
			c-0.01,0.01-0.02,0.03-0.03,0.04c-0.01,0.02-0.02,0.03-0.03,0.05c-0.01,0.01-0.02,0.03-0.03,0.04c-0.01,0.02-0.02,0.03-0.03,0.05
			v0c-0.01,0.01-0.02,0.03-0.03,0.04c-0.01,0.02-0.02,0.03-0.04,0.05c-0.01,0.01-0.02,0.03-0.03,0.04
			c-0.01,0.02-0.02,0.03-0.04,0.05c-0.01,0.01-0.02,0.03-0.03,0.04c-0.01,0.02-0.02,0.03-0.04,0.05c-0.01,0.01-0.02,0.03-0.03,0.04
			l0,0c-0.01,0.02-0.03,0.03-0.04,0.05c-0.01,0.01-0.02,0.03-0.03,0.04c-0.01,0.02-0.03,0.03-0.04,0.04
			c-0.01,0.01-0.02,0.03-0.04,0.04c-0.01,0.01-0.03,0.03-0.04,0.04c-0.01,0.01-0.02,0.03-0.04,0.04c-0.01,0.01-0.03,0.03-0.04,0.04
			c-0.01,0.01-0.02,0.03-0.04,0.04c-0.01,0.01-0.03,0.03-0.04,0.04c-0.01,0.01-0.03,0.03-0.04,0.04c-0.01,0.01-0.03,0.03-0.04,0.04
			c-0.01,0.01-0.03,0.03-0.04,0.04c-0.01,0.01-0.03,0.03-0.04,0.04c-0.01,0.01-0.03,0.02-0.04,0.04c-0.01,0.01-0.03,0.03-0.04,0.04
			c-0.01,0.01-0.03,0.02-0.04,0.04c-0.01,0.01-0.03,0.03-0.04,0.04c-0.01,0.01-0.03,0.02-0.04,0.04c-0.01,0.01-0.03,0.03-0.04,0.04
			c-0.01,0.01-0.03,0.02-0.04,0.03c-0.02,0.01-0.03,0.02-0.05,0.04c-0.01,0.01-0.03,0.02-0.04,0.03c-0.02,0.01-0.03,0.02-0.05,0.04
			c-0.01,0.01-0.03,0.02-0.04,0.03c-0.02,0.01-0.03,0.02-0.05,0.03c-0.01,0.01-0.03,0.02-0.04,0.03c-0.02,0.01-0.03,0.02-0.05,0.03
			c-0.02,0.01-0.03,0.02-0.05,0.03c-0.02,0.01-0.03,0.02-0.05,0.03c-0.02,0.01-0.03,0.02-0.05,0.03c-0.02,0.01-0.03,0.02-0.05,0.03
			c-0.02,0.01-0.03,0.02-0.05,0.03c-0.02,0.01-0.03,0.02-0.05,0.03c-0.02,0.01-0.03,0.02-0.05,0.03c-0.02,0.01-0.03,0.02-0.05,0.03
			c-0.02,0.01-0.03,0.02-0.05,0.03c-0.02,0.01-0.03,0.02-0.05,0.03c-0.02,0.01-0.03,0.02-0.05,0.03c-0.02,0.01-0.03,0.02-0.05,0.03
			c-0.02,0.01-0.03,0.02-0.05,0.03c-0.02,0.01-0.03,0.02-0.05,0.03c-0.02,0.01-0.03,0.02-0.05,0.03c-0.02,0.01-0.03,0.02-0.05,0.03
			c-0.02,0.01-0.03,0.02-0.05,0.02c-0.02,0.01-0.04,0.02-0.05,0.02c-0.02,0.01-0.03,0.02-0.05,0.02c-0.02,0.01-0.04,0.02-0.05,0.02
			c-0.02,0.01-0.03,0.01-0.05,0.02C12.99,16,12.98,16,12.96,16.01c-0.02,0.01-0.03,0.01-0.05,0.02c-0.02,0.01-0.04,0.01-0.06,0.02
			c-0.02,0.01-0.03,0.01-0.05,0.02c-0.02,0.01-0.04,0.01-0.06,0.02c-0.02,0.01-0.03,0.01-0.05,0.02c-0.02,0.01-0.04,0.01-0.06,0.02
			c-0.02,0.01-0.04,0.01-0.05,0.02c-0.02,0.01-0.04,0.01-0.06,0.02c-0.02,0.01-0.04,0.01-0.05,0.02c-0.02,0.01-0.04,0.01-0.06,0.02
			c-0.02,0.01-0.04,0.01-0.05,0.02c-0.02,0.01-0.04,0.01-0.06,0.02c-0.02,0-0.04,0.01-0.05,0.01c-0.02,0.01-0.04,0.01-0.06,0.01
			c-0.02,0-0.04,0.01-0.05,0.01c-0.02,0-0.04,0.01-0.06,0.01c-0.02,0-0.04,0.01-0.05,0.01c-0.02,0-0.04,0.01-0.06,0.01
			c-0.02,0-0.04,0.01-0.05,0.01c-0.02,0-0.04,0.01-0.06,0.01c-0.02,0-0.04,0.01-0.05,0.01c-0.02,0-0.04,0.01-0.06,0.01
			c-0.02,0-0.04,0.01-0.05,0.01c-0.02,0-0.04,0.01-0.06,0.01c-0.02,0-0.04,0.01-0.05,0.01c-0.02,0-0.04,0.01-0.06,0.01
			c-0.02,0-0.04,0-0.05,0.01c-0.02,0-0.04,0-0.07,0.01c-0.02,0-0.04,0-0.05,0.01c-0.02,0-0.04,0-0.07,0.01c-0.02,0-0.03,0-0.05,0
			c-0.02,0-0.05,0-0.07,0c-0.02,0-0.03,0-0.05,0c-0.03,0-0.05,0-0.08,0c-0.01,0-0.03,0-0.04,0c-0.04,0-0.08,0-0.12,0
			c-1.09,0-2.05-0.3-2.97-0.85c-1.03-0.59-1.75-1.73-1.75-1.73c-0.55-0.87-0.88-1.9-0.88-3c0-1.54,0.63-2.94,1.64-3.95
			c1.01-1.01,2.41-1.64,3.95-1.64c1.09,0,2.11,0.31,2.97,0.85l0,0c0.02,0.01,0.24,0.16,0.24,0.16c0.82,0.56,1.5,1.53,1.5,1.53
			s0.03,0.04,0.03,0.05c0.01,0.01,0.01,0.02,0.02,0.03c0,0.01,0.01,0.01,0.01,0.02c0.01,0.01,0.01,0.02,0.02,0.03
			c0,0.01,0.01,0.01,0.01,0.02c0.01,0.01,0.01,0.02,0.02,0.03c0,0.01,0.01,0.01,0.01,0.01c0.01,0.01,0.02,0.03,0.03,0.04l0,0l0,0
			c0.01,0.02,0.02,0.03,0.03,0.05c0,0,0,0.01,0.01,0.01c0.01,0.01,0.01,0.02,0.02,0.03c0,0.01,0.01,0.01,0.01,0.02v0
			c0.01,0.01,0.01,0.02,0.02,0.03c0,0.01,0.01,0.01,0.01,0.02c0.01,0.01,0.01,0.02,0.02,0.03c0,0.01,0.01,0.01,0.01,0.02
			c0,0.01,0.01,0.02,0.01,0.03c0,0.01,0.01,0.01,0.01,0.02c0,0.01,0.01,0.02,0.01,0.03c0,0.01,0.01,0.01,0.01,0.02
			c0,0.01,0.01,0.02,0.01,0.03c0,0.01,0.01,0.02,0.01,0.02c0,0.01,0.01,0.02,0.01,0.03c0,0.01,0.01,0.02,0.01,0.02
			c0,0.01,0.01,0.02,0.01,0.03c0,0.01,0.01,0.02,0.01,0.02c0,0.01,0.01,0.02,0.01,0.03c0,0.01,0.01,0.02,0.01,0.02
			c0,0.01,0.01,0.02,0.01,0.03c0,0.01,0.01,0.02,0.01,0.02c0,0.01,0.01,0.02,0.01,0.03c0,0.01,0.01,0.02,0.01,0.02
			c0,0.01,0.01,0.02,0.01,0.03C16,8.68,16,8.69,16.01,8.7c0,0.01,0.01,0.02,0.01,0.03c0,0.01,0.01,0.02,0.01,0.02
			c0,0.01,0.01,0.02,0.01,0.03c0,0.01,0.01,0.02,0.01,0.02c0,0.01,0.01,0.02,0.01,0.03c0,0.01,0.01,0.02,0.01,0.02
			c0,0.01,0.01,0.02,0.01,0.03c0,0.01,0.01,0.02,0.01,0.02c0,0.01,0.01,0.02,0.01,0.03c0,0.01,0.01,0.02,0.01,0.02
			c0,0.01,0.01,0.02,0.01,0.03c0,0.01,0.01,0.01,0.01,0.02c0,0.01,0.01,0.02,0.01,0.04c0,0.01,0,0.01,0.01,0.02
			c0,0.02,0.01,0.03,0.01,0.05c0,0,0,0.01,0,0.01c0.01,0.02,0.01,0.04,0.02,0.06c0,0,0,0.01,0,0.01c0,0.01,0.01,0.03,0.01,0.04
			c0,0.01,0,0.01,0.01,0.02c0,0.01,0.01,0.02,0.01,0.04c0,0.01,0,0.02,0.01,0.02l0,0.01l0-0.01c0,0.01,0.01,0.02,0.01,0.03
			c0,0.01,0,0.02,0.01,0.02c0,0.01,0.01,0.02,0.01,0.03c0,0.01,0,0.02,0.01,0.02c0,0.01,0.01,0.02,0.01,0.03
			c0,0.01,0,0.02,0.01,0.03c0,0.01,0.01,0.02,0.01,0.03c0,0.01,0,0.02,0.01,0.03c0,0.01,0,0.02,0.01,0.03c0,0.01,0,0.02,0.01,0.03
			c0,0.01,0,0.02,0.01,0.03c0,0.01,0,0.02,0.01,0.03c0,0.01,0,0.02,0.01,0.03c0,0.01,0,0.02,0.01,0.02h5.3
			c0-0.04-0.01-0.07-0.01-0.11c0-0.02,0-0.03-0.01-0.04c0-0.04-0.01-0.07-0.01-0.11c0-0.02-0.01-0.04-0.01-0.06
			c0-0.03-0.01-0.06-0.01-0.1c0-0.02-0.01-0.04-0.01-0.06c0-0.03-0.01-0.06-0.01-0.09c0-0.02-0.01-0.04-0.01-0.07
			c0-0.03-0.01-0.06-0.01-0.09c0-0.02-0.01-0.04-0.01-0.07c-0.01-0.03-0.01-0.06-0.02-0.09c0-0.02-0.01-0.04-0.01-0.07
			c-0.01-0.03-0.01-0.06-0.02-0.09c0-0.02-0.01-0.04-0.01-0.07c-0.01-0.03-0.01-0.06-0.02-0.09c0-0.02-0.01-0.04-0.01-0.07
			c-0.01-0.03-0.01-0.06-0.02-0.09c0-0.02-0.01-0.04-0.01-0.06c-0.01-0.03-0.01-0.06-0.02-0.09c0-0.02-0.01-0.04-0.01-0.06
			c-0.01-0.03-0.02-0.07-0.03-0.1c0-0.02-0.01-0.03-0.01-0.05c-0.01-0.05-0.03-0.1-0.04-0.15c-0.02-0.08-0.05-0.17-0.07-0.25
			c-0.04-0.13-0.08-0.25-0.12-0.37C21.04,7.17,21.01,7.09,20.98,7C20.9,6.8,20.82,6.6,20.73,6.39c-0.03-0.07-0.06-0.14-0.09-0.2
			c-0.03-0.05-0.05-0.11-0.08-0.16c-0.03-0.06-0.06-0.12-0.09-0.18c-0.02-0.04-0.04-0.07-0.06-0.11c-0.49-0.92-1.13-1.79-1.91-2.57
			c-1.59-1.59-3.54-2.58-5.59-2.98c-0.09-0.02-0.17-0.03-0.26-0.05c-0.13-0.02-0.26-0.04-0.39-0.06c-0.04-0.01-0.09-0.01-0.13-0.02
			c-0.09-0.01-0.17-0.02-0.26-0.03c-0.09-0.01-0.17-0.02-0.26-0.02C11.36,0.01,11.1,0,10.84,0c-0.17,0-0.34,0-0.51,0.01
			c-2.6,0.12-5.16,1.18-7.15,3.16C2.31,4.03,1.63,5,1.12,6.03C1.08,6.11,1.04,6.19,1,6.27C0.93,6.43,0.86,6.6,0.79,6.76
			C0.76,6.84,0.73,6.92,0.7,7C0.64,7.17,0.58,7.33,0.52,7.5C0.5,7.58,0.47,7.67,0.45,7.75C0.42,7.84,0.4,7.92,0.38,8
			C0.36,8.08,0.34,8.15,0.32,8.23C0.11,9.08,0,9.96,0,10.84c0,0.61,0.05,1.21,0.15,1.81c0.01,0.09,0.03,0.17,0.05,0.26
			c0.02,0.13,0.05,0.26,0.08,0.38c0.01,0.04,0.02,0.08,0.03,0.13c0.02,0.08,0.04,0.17,0.07,0.25c0.02,0.08,0.05,0.17,0.07,0.25
			c0.02,0.08,0.05,0.17,0.08,0.25c0.05,0.17,0.11,0.33,0.17,0.5c0.03,0.08,0.06,0.16,0.1,0.25C0.86,15.08,0.93,15.24,1,15.4
			c0.04,0.08,0.08,0.16,0.11,0.24c0.51,1.03,1.2,2,2.06,2.86c0.86,0.86,1.83,1.55,2.86,2.06c0.29,0.14,0.58,0.27,0.88,0.39
			c0.1,0.04,0.2,0.08,0.31,0.11c0.02,0.01,0.05,0.02,0.07,0.03c1.15,0.4,2.35,0.59,3.55,0.59c0.82,0,1.65-0.09,2.45-0.28
			c0.13-0.03,0.25-0.06,0.38-0.1c0.21-0.06,0.42-0.12,0.63-0.19c0.08-0.03,0.17-0.06,0.25-0.09c0.04-0.01,0.08-0.03,0.12-0.05
			c0.83-0.31,1.64-0.74,2.39-1.26c0.05-0.04,0.11-0.07,0.16-0.11c0.09-0.07,0.18-0.13,0.27-0.2c0.06-0.04,0.11-0.09,0.17-0.14
			c0.01-0.01,0.03-0.02,0.04-0.03c0.28-0.23,0.55-0.47,0.8-0.73c0.5-0.5,0.93-1.03,1.31-1.59c0.08-0.11,0.15-0.22,0.22-0.34
			c0.05-0.08,0.09-0.15,0.14-0.23c0.07-0.12,0.13-0.23,0.2-0.35c0.04-0.08,0.08-0.16,0.12-0.24c0.04-0.08,0.08-0.16,0.12-0.24
			c0.04-0.08,0.08-0.16,0.11-0.24c0.09-0.2,0.17-0.4,0.25-0.61c0.03-0.08,0.06-0.16,0.09-0.25c0.04-0.12,0.08-0.25,0.12-0.37
			c0.02-0.07,0.04-0.15,0.07-0.22c0.01-0.02,0.01-0.04,0.02-0.06l0,0c0.01-0.05,0.03-0.1,0.04-0.15c0-0.01,0-0.02,0.01-0.02
			c0.01-0.05,0.02-0.1,0.04-0.15c0-0.01,0-0.02,0.01-0.03c0.01-0.05,0.02-0.1,0.03-0.15c0-0.01,0-0.01,0-0.02
			c0.01-0.05,0.02-0.1,0.03-0.15v0c0,0,0-0.01,0-0.01v0c0,0,0-0.01,0-0.01h-5.48C15.95,13.1,15.94,13.12,15.94,13.13z M19.45,6.6
			c0.01,0,0.03,0,0.04,0.01c0.02,0.01,0.04,0.03,0.05,0.05l0.64,1.7c0,0.01,0.01,0.02,0.01,0.03c0,0.01,0,0.03-0.01,0.04
			c-0.01,0.02-0.03,0.04-0.05,0.05L19.55,8.7c-0.01,0-0.02,0.01-0.03,0.01c-0.01,0-0.03,0-0.04-0.01c-0.02-0.01-0.04-0.03-0.05-0.05
			l-0.38-1.01l-0.33,0.13l0.34,0.91c0,0.01,0.01,0.02,0.01,0.03c0,0.01,0,0.03-0.01,0.04C19.05,8.76,19.03,8.78,19,8.79l-0.53,0.2
			c-0.01,0-0.02,0.01-0.03,0.01c-0.01,0-0.03,0-0.04-0.01c-0.02-0.01-0.04-0.03-0.05-0.05l-0.34-0.91l-0.34,0.13l0.38,1.02
			c0,0.01,0.01,0.02,0.01,0.03c0,0.01,0,0.03-0.01,0.04C18.04,9.25,18.02,9.27,18,9.28l-0.57,0.21c-0.01,0-0.02,0.01-0.03,0.01
			c-0.01,0-0.03,0-0.04-0.01c-0.02-0.01-0.04-0.03-0.05-0.05l-0.64-1.7c0-0.01-0.01-0.02-0.01-0.03c0-0.01,0-0.03,0.01-0.04
			c0.01-0.02,0.03-0.04,0.05-0.05l2.68-1C19.42,6.6,19.44,6.6,19.45,6.6z M16.3,5.52C16.31,5.53,16.31,5.53,16.3,5.52
			c0.02,0.02,0.02,0.04,0.02,0.05c0,0,0,0,0,0c-0.01,0.02-0.02,0.05-0.03,0.08c-0.01,0.01-0.01,0.03-0.02,0.04
			c-0.01,0.01-0.01,0.02-0.01,0.03c-0.01,0.03-0.01,0.05-0.02,0.08v0c0,0.02,0,0.03,0,0.05c0,0.01,0,0.02,0,0.04
			c0,0.03,0.01,0.06,0.02,0.09c0.02,0.06,0.05,0.13,0.1,0.2l0,0l0,0c0,0,0,0.01,0.01,0.01c0.03,0.04,0.06,0.07,0.09,0.1
			c0.02,0.01,0.03,0.02,0.05,0.03c0.02,0.01,0.03,0.01,0.05,0.02h0c0.02,0.01,0.03,0.01,0.05,0.01c0.01,0,0.01,0,0.02,0
			c0.01,0,0.02,0,0.03,0h0h0c0.01,0,0.03-0.01,0.04-0.01h0c0.01-0.01,0.03-0.01,0.04-0.02l0,0l0,0l0,0l0,0
			c0.01-0.01,0.02-0.02,0.03-0.02c0.01-0.01,0.01-0.02,0.02-0.03l0,0c0.01-0.01,0.01-0.02,0.01-0.03c0-0.01,0.01-0.02,0.01-0.04l0,0
			c0-0.01,0-0.02,0-0.03c0-0.02,0-0.04-0.01-0.05v0l0,0c-0.01-0.03-0.02-0.07-0.04-0.11l0,0l-0.17-0.36l0,0l0,0l0,0
			c-0.05-0.12-0.09-0.23-0.11-0.34c-0.01-0.05-0.01-0.1-0.01-0.15c0-0.06,0.01-0.13,0.02-0.19c0.02-0.11,0.06-0.2,0.12-0.29
			c0.06-0.09,0.13-0.16,0.22-0.23l0,0c0,0,0.01-0.01,0.01-0.01c0.06-0.04,0.12-0.08,0.18-0.1c0.06-0.03,0.12-0.05,0.19-0.06
			c0.06-0.01,0.11-0.02,0.17-0.02c0.01,0,0.02,0,0.03,0c0.07,0,0.14,0.01,0.2,0.03c0.13,0.03,0.26,0.08,0.37,0.16
			c0.11,0.07,0.21,0.17,0.29,0.28l0,0c0,0.01,0.01,0.01,0.01,0.02c0.1,0.14,0.18,0.29,0.22,0.43c0.02,0.07,0.03,0.14,0.04,0.21
			c0,0.03,0,0.05,0,0.07c0,0.04,0,0.08-0.01,0.12c-0.02,0.11-0.05,0.22-0.1,0.31c-0.04,0.09-0.1,0.17-0.17,0.24
			c0,0-0.01,0.01-0.01,0.01c-0.01,0.01-0.02,0.01-0.03,0.01c0,0-0.01,0-0.01,0c-0.01,0-0.02,0-0.03,0c-0.01,0-0.02-0.01-0.02-0.01
			l-0.38-0.39l0,0L17.76,5.7c0,0-0.01-0.01-0.01-0.01c-0.01-0.01-0.01-0.03-0.02-0.04l0,0c0-0.01,0-0.02,0.01-0.03
			c0.01-0.03,0.03-0.07,0.04-0.11c0.01-0.02,0.01-0.03,0.01-0.05c0-0.01,0-0.01,0-0.02c0,0,0-0.01,0-0.01l0,0l0,0c0,0,0-0.02,0-0.04
			c0-0.01,0-0.01,0-0.02c0-0.02-0.01-0.04-0.01-0.07c-0.01-0.02-0.02-0.05-0.03-0.07c-0.01-0.03-0.03-0.05-0.05-0.08
			c0,0,0-0.01-0.01-0.01c-0.03-0.04-0.06-0.07-0.09-0.09c-0.02-0.01-0.03-0.02-0.05-0.03C17.54,5.01,17.52,5,17.51,5
			c-0.02,0-0.04-0.01-0.05-0.01c0,0-0.01,0-0.01,0c-0.01,0-0.02,0-0.03,0h0C17.4,5,17.38,5,17.37,5c-0.01,0.01-0.02,0.01-0.04,0.02
			l0,0l0,0l0,0l0,0c-0.01,0.01-0.02,0.02-0.03,0.03c-0.01,0.01-0.02,0.02-0.02,0.03l0,0c-0.01,0.01-0.01,0.02-0.01,0.03v0
			c0,0.01,0,0.02-0.01,0.04v0c0,0,0,0.01,0,0.01c0,0.02,0,0.03,0.01,0.05l0,0.01l0,0c0.01,0.03,0.02,0.06,0.03,0.1l0,0c0,0,0,0,0,0
			l0,0l0.16,0.35v0l0,0l0,0l0,0c0.06,0.13,0.1,0.25,0.12,0.37c0.01,0.05,0.01,0.11,0.01,0.16c0,0.06-0.01,0.13-0.02,0.19l0,0
			c-0.02,0.11-0.06,0.21-0.12,0.3c-0.06,0.09-0.13,0.17-0.22,0.23l0,0l0,0c0,0-0.01,0.01-0.01,0.01C17.18,6.96,17.12,7,17.06,7.02
			c-0.06,0.03-0.12,0.04-0.18,0.06l0,0l0,0c-0.06,0.01-0.12,0.02-0.18,0.02H16.7c-0.07,0-0.13-0.01-0.2-0.02
			C16.36,7.05,16.23,7,16.12,6.92C16,6.84,15.9,6.74,15.8,6.61c-0.01-0.01-0.01-0.02-0.02-0.03c-0.11-0.15-0.19-0.3-0.23-0.45
			c-0.02-0.07-0.04-0.15-0.05-0.22c0-0.03,0-0.06,0-0.09c0-0.04,0-0.09,0.01-0.13c0.02-0.14,0.06-0.27,0.11-0.38
			c0.06-0.12,0.11-0.2,0.21-0.28l0.01,0c0.01-0.01,0.02-0.01,0.04-0.01c0,0,0.01,0,0.01,0c0.01,0,0.02,0,0.03,0.01
			c0.01,0,0.02,0.01,0.02,0.01l0,0L16.3,5.52L16.3,5.52z M12.9,3.52L12.9,3.52L12.9,3.52c0-0.12,0.02-0.24,0.05-0.37
			c0.03-0.12,0.08-0.25,0.14-0.37c0.1-0.21,0.23-0.38,0.39-0.52c0.16-0.14,0.34-0.24,0.54-0.3c0.16-0.05,0.31-0.07,0.47-0.07h0h0
			c0.12,0,0.25,0.02,0.37,0.05c0.12,0.03,0.24,0.08,0.36,0.13c0.2,0.1,0.36,0.22,0.5,0.37c0.13,0.15,0.24,0.33,0.31,0.53
			c0.06,0.16,0.09,0.33,0.09,0.49v0v0c0,0.12-0.02,0.25-0.05,0.37c-0.03,0.12-0.08,0.25-0.14,0.37c-0.1,0.21-0.23,0.38-0.39,0.52
			C15.38,4.85,15.2,4.95,15,5.01c-0.16,0.05-0.32,0.07-0.47,0.07h0h0c-0.12,0-0.24-0.02-0.37-0.05c-0.12-0.03-0.24-0.08-0.36-0.13
			c-0.2-0.1-0.36-0.22-0.5-0.37c-0.14-0.15-0.24-0.33-0.31-0.52C12.93,3.85,12.9,3.68,12.9,3.52L12.9,3.52z M10.52,4.07l0.05-2.87
			c0-0.02,0.01-0.05,0.03-0.07c0.02-0.02,0.04-0.03,0.07-0.03h0l1.08,0.02c0.15,0,0.3,0.03,0.43,0.08c0.13,0.05,0.24,0.12,0.34,0.22
			c0.1,0.09,0.17,0.2,0.22,0.32C12.78,1.87,12.8,2,12.8,2.14v0v0v0c0,0.01,0,0.01,0,0.02c0,0.15-0.03,0.28-0.08,0.4l0,0
			c-0.05,0.12-0.13,0.23-0.23,0.32h0c-0.1,0.09-0.21,0.16-0.34,0.2c-0.13,0.04-0.26,0.07-0.41,0.07h0c-0.01,0-0.02,0-0.03,0
			l-0.35-0.01l-0.02,0.94c0,0.02-0.01,0.05-0.03,0.07c-0.02,0.02-0.04,0.03-0.07,0.03h0l-0.64-0.01c-0.02,0-0.05-0.01-0.07-0.03
			C10.53,4.12,10.52,4.1,10.52,4.07L10.52,4.07z M5.91,2.45C5.92,2.43,5.94,2.41,5.97,2.4l0.78-0.29c0.01,0,0.02-0.01,0.03-0.01
			c0.03,0,0.05,0.01,0.07,0.03L8.1,3.5l0.02-1.84c0-0.04,0.02-0.07,0.06-0.09l0.82-0.31c0.01,0,0.02-0.01,0.03-0.01
			c0.01,0,0.03,0,0.04,0.01C9.1,1.28,9.12,1.3,9.13,1.32l1,2.69c0,0.01,0.01,0.02,0.01,0.03c0,0.01,0,0.03-0.01,0.04
			c-0.01,0.02-0.03,0.04-0.05,0.05L9.49,4.35c-0.01,0-0.02,0.01-0.03,0.01c-0.01,0-0.03,0-0.04-0.01C9.39,4.33,9.38,4.32,9.37,4.29
			L8.88,2.98L8.85,4.52c0,0.04-0.03,0.07-0.06,0.09L8.3,4.79c-0.01,0-0.02,0.01-0.03,0.01c-0.03,0-0.05-0.01-0.07-0.03L7.17,3.63
			l0.48,1.3c0,0.01,0.01,0.02,0.01,0.03c0,0.01,0,0.03-0.01,0.04C7.64,5.02,7.62,5.04,7.6,5.05L7.03,5.26
			C7.02,5.27,7.01,5.27,7,5.27c-0.01,0-0.03,0-0.04-0.01C6.94,5.25,6.92,5.23,6.91,5.21l-1-2.69c0-0.01-0.01-0.02-0.01-0.03
			C5.9,2.48,5.91,2.46,5.91,2.45z M3.22,5.46c0-0.2,0.04-0.39,0.11-0.57C3.4,4.71,3.5,4.54,3.64,4.38C3.79,4.22,3.95,4.09,4.13,4
			c0.18-0.09,0.38-0.14,0.59-0.16c0.04,0,0.08,0,0.11,0h0c0.19,0,0.37,0.04,0.55,0.11c0.18,0.07,0.34,0.18,0.5,0.32
			c0.17,0.15,0.31,0.32,0.4,0.51c0.09,0.19,0.14,0.39,0.15,0.6c0,0.02,0,0.04,0,0.06v0c0,0.2-0.04,0.39-0.11,0.57
			c-0.07,0.18-0.18,0.35-0.32,0.5C5.86,6.67,5.7,6.79,5.52,6.89C5.34,6.98,5.14,7.03,4.93,7.05c-0.04,0-0.08,0-0.12,0h0
			c-0.19,0-0.37-0.04-0.55-0.11C4.09,6.87,3.92,6.77,3.77,6.63C3.59,6.47,3.46,6.3,3.37,6.11c-0.09-0.19-0.14-0.39-0.15-0.6v0
			C3.22,5.49,3.22,5.48,3.22,5.46L3.22,5.46z M2.44,9.96L2.44,9.96c-0.01,0-0.02-0.01-0.03-0.01C2.3,9.9,2.19,9.84,2.1,9.78
			c-0.09-0.06-0.18-0.13-0.25-0.2C1.78,9.5,1.71,9.42,1.65,9.33C1.6,9.24,1.55,9.15,1.51,9.05C1.44,8.86,1.41,8.67,1.41,8.48
			c0-0.01,0-0.02,0-0.03c0-0.2,0.05-0.4,0.13-0.6v0c0-0.01,0.01-0.02,0.01-0.03c0.04-0.1,0.09-0.2,0.15-0.29
			c0.06-0.09,0.12-0.17,0.2-0.24c0.14-0.15,0.32-0.26,0.52-0.35c0.1-0.04,0.2-0.07,0.3-0.09C2.81,6.83,2.9,6.82,3,6.82
			c0.01,0,0.01,0,0.02,0c0.02,0,0.04,0,0.06,0c0.01,0,0.01,0,0.02,0c0.01,0,0.02,0,0.03,0c0,0,0,0,0,0
			c0.07,0.01,0.11,0.09,0.08,0.16l-0.1,0.24L2.95,7.61C2.94,7.64,2.91,7.66,2.88,7.66c-0.01,0-0.03,0-0.04,0.01
			C2.79,7.68,2.74,7.69,2.7,7.71C2.65,7.74,2.6,7.76,2.56,7.79C2.52,7.82,2.49,7.85,2.45,7.88c0,0,0,0,0,0h0L2.38,7.95h0.01
			C2.38,7.97,2.37,7.98,2.36,8C2.33,8.04,2.31,8.08,2.29,8.13l0,0l0,0c0,0.01,0,0.01-0.01,0.01C2.26,8.19,2.25,8.24,2.24,8.29
			C2.23,8.33,2.22,8.38,2.22,8.43c0,0.01,0,0.01,0,0.02c0,0.09,0.02,0.18,0.05,0.27v0c0.02,0.05,0.04,0.09,0.07,0.14
			c0.03,0.04,0.06,0.08,0.1,0.12c0.04,0.04,0.08,0.07,0.13,0.1C2.62,9.1,2.67,9.13,2.73,9.16c0.01,0,0.02,0.01,0.02,0.01
			C2.82,9.2,2.88,9.21,2.93,9.23c0.06,0.01,0.11,0.02,0.16,0.02c0.01,0,0.01,0,0.02,0c0.05,0,0.09,0,0.13-0.01
			c0.05-0.01,0.09-0.03,0.14-0.05h0c0.05-0.02,0.09-0.05,0.13-0.08c0.04-0.03,0.08-0.06,0.11-0.09C3.66,8.98,3.69,8.94,3.71,8.9
			c0.03-0.04,0.05-0.09,0.07-0.13c0,0,0-0.01,0.01-0.01c0.02-0.05,0.03-0.09,0.04-0.14c0.01-0.05,0.02-0.09,0.02-0.14
			c0-0.01,0-0.01,0-0.02c0-0.09-0.01-0.17-0.05-0.26C3.79,8.14,3.77,8.1,3.74,8.05C3.73,8.04,3.72,8.02,3.71,8.01c0,0,0,0,0,0
			C3.69,7.98,3.68,7.95,3.69,7.92l0.26-0.62C3.98,7.23,4.07,7.2,4.13,7.24c0,0,0,0,0,0c0,0,0,0,0,0c0.01,0.01,0.02,0.02,0.04,0.03
			c0.01,0,0.01,0.01,0.02,0.01C4.2,7.3,4.22,7.31,4.23,7.33c0.07,0.07,0.14,0.16,0.2,0.25c0.06,0.09,0.1,0.18,0.14,0.29v0
			c0.07,0.19,0.11,0.38,0.11,0.57c0,0.01,0,0.02,0,0.03c0,0.2-0.05,0.4-0.13,0.6v0c0,0.01-0.01,0.02-0.01,0.03
			c-0.04,0.1-0.1,0.2-0.15,0.29c-0.06,0.09-0.12,0.17-0.2,0.24l0,0C4.04,9.77,3.87,9.88,3.67,9.97c-0.1,0.04-0.2,0.07-0.3,0.09
			c-0.1,0.02-0.19,0.03-0.29,0.03c0,0-0.01,0-0.01,0c-0.1,0-0.21-0.01-0.31-0.04C2.65,10.03,2.55,10,2.44,9.96z M5.12,16.05
			c0-0.01,0.01-0.02,0.01-0.03c0.01-0.05,0.02-0.09,0.02-0.14v0c0-0.05,0-0.1-0.01-0.15c-0.01-0.05-0.02-0.09-0.04-0.13l0,0l0,0
			c0,0,0,0,0,0l-0.08-0.14c-0.02-0.03-0.05-0.06-0.08-0.09l0,0v0c0,0-0.01-0.01-0.01-0.01c-0.03-0.03-0.07-0.06-0.11-0.09
			c-0.04-0.03-0.08-0.05-0.12-0.06h0c-0.08-0.03-0.17-0.05-0.27-0.06c-0.01,0-0.01,0-0.02,0c-0.04,0-0.09,0-0.13,0.01
			c-0.05,0.01-0.1,0.03-0.14,0.05c-0.05,0.02-0.1,0.05-0.14,0.08s-0.1,0.08-0.15,0.12c-0.01,0.01-0.01,0.01-0.02,0.02
			c-0.05,0.05-0.09,0.09-0.12,0.14c-0.03,0.05-0.06,0.09-0.08,0.14v0c-0.02,0.05-0.04,0.09-0.05,0.14
			c-0.01,0.04-0.01,0.09-0.01,0.13c0,0,0,0.01,0,0.01c0,0.05,0.01,0.1,0.01,0.15c0.01,0.05,0.02,0.09,0.04,0.13
			c0.02,0.04,0.04,0.08,0.06,0.12c0.03,0.04,0.06,0.08,0.09,0.11c0,0,0.01,0.01,0.01,0.01c0.03,0.03,0.07,0.06,0.11,0.09
			c0.04,0.03,0.08,0.05,0.12,0.06c0.08,0.03,0.17,0.05,0.27,0.06h0c0.01,0,0.01,0,0.02,0c0.04,0,0.09,0,0.13-0.01
			c0.01,0,0.02-0.01,0.04-0.01c0.04-0.01,0.08,0,0.11,0.03l0.46,0.44c0,0,0,0,0,0c0.04,0.04,0.03,0.1-0.01,0.13c0,0,0,0,0,0
			C5.01,17.31,5,17.32,4.99,17.33c0,0,0,0,0,0c-0.02,0.01-0.03,0.02-0.05,0.03c0,0-0.01,0.01-0.01,0.01
			c-0.02,0.01-0.04,0.02-0.06,0.03v0c-0.1,0.04-0.19,0.07-0.29,0.1c-0.1,0.02-0.2,0.03-0.31,0.03h0c-0.2,0-0.39-0.04-0.57-0.11
			c-0.17-0.07-0.33-0.18-0.48-0.32l0,0c-0.01-0.01-0.02-0.02-0.02-0.02C3.12,17,3.06,16.92,3,16.84c-0.05-0.08-0.1-0.17-0.14-0.26
			c-0.07-0.17-0.1-0.36-0.1-0.55c0-0.01,0-0.02,0-0.03c0-0.1,0.01-0.2,0.04-0.3c0.02-0.1,0.05-0.19,0.1-0.29
			c0.04-0.09,0.09-0.18,0.16-0.27c0.06-0.09,0.13-0.17,0.21-0.25l0,0v0c0.01-0.01,0.02-0.02,0.03-0.03
			c0.09-0.08,0.17-0.16,0.26-0.22c0.09-0.06,0.18-0.12,0.28-0.16c0.1-0.04,0.2-0.07,0.3-0.1c0.1-0.02,0.2-0.03,0.31-0.03h0
			c0.2,0,0.39,0.04,0.57,0.11c0.18,0.07,0.33,0.18,0.48,0.32l0,0c0.01,0.01,0.02,0.02,0.02,0.02c0.07,0.07,0.14,0.15,0.19,0.24
			c0.05,0.08,0.1,0.17,0.14,0.26c0.07,0.17,0.1,0.35,0.1,0.55c0,0.01,0,0.03,0,0.04c0,0.1-0.01,0.2-0.04,0.3
			c-0.02,0.1-0.05,0.19-0.1,0.29c-0.01,0.02-0.02,0.04-0.03,0.05c0,0.01-0.01,0.01-0.01,0.02c-0.01,0.01-0.01,0.02-0.02,0.03
			c0,0,0,0,0,0.01c0,0,0,0,0,0c-0.03,0.04-0.09,0.05-0.13,0.01h0l-0.46-0.44C5.12,16.13,5.11,16.09,5.12,16.05z M8.6,18.07
			L8.6,18.07c0,0.13-0.02,0.26-0.05,0.38c-0.03,0.13-0.08,0.26-0.15,0.38c-0.11,0.2-0.24,0.37-0.4,0.51
			c-0.16,0.13-0.34,0.23-0.54,0.29C7.3,19.68,7.16,19.7,7.01,19.7h0h0c-0.13,0-0.26-0.02-0.38-0.05c-0.13-0.03-0.25-0.08-0.37-0.15
			c-0.19-0.1-0.36-0.23-0.49-0.38c-0.13-0.15-0.23-0.33-0.3-0.53c-0.05-0.15-0.08-0.31-0.08-0.47v0v0c0-0.13,0.02-0.25,0.05-0.38
			c0.03-0.13,0.08-0.25,0.15-0.38c0.11-0.21,0.24-0.38,0.4-0.51c0.16-0.13,0.34-0.23,0.55-0.29c0.15-0.04,0.29-0.06,0.44-0.06h0h0
			c0.13,0,0.26,0.02,0.38,0.05c0.13,0.03,0.25,0.08,0.38,0.15c0.19,0.1,0.36,0.23,0.49,0.38c0.13,0.15,0.23,0.33,0.3,0.53
			C8.57,17.76,8.6,17.92,8.6,18.07L8.6,18.07z M11.07,17.71l-0.08,0.6c0,0.02-0.02,0.05-0.04,0.06c-0.02,0.01-0.04,0.02-0.06,0.02
			c0,0-0.01,0-0.01,0l-1.11-0.14l-0.05,0.41l0.96,0.12c0.02,0,0.05,0.02,0.06,0.04c0.01,0.02,0.02,0.04,0.02,0.06c0,0,0,0.01,0,0.01
			l-0.07,0.58c0,0.02-0.02,0.05-0.04,0.06c-0.02,0.01-0.04,0.02-0.06,0.02c0,0-0.01,0-0.01,0l-0.96-0.12L9.5,20.39
			c0,0.02-0.02,0.05-0.04,0.06c-0.02,0.01-0.04,0.02-0.06,0.02c0,0-0.01,0-0.01,0l-0.64-0.08c-0.02,0-0.05-0.02-0.06-0.04
			c-0.01-0.02-0.02-0.04-0.02-0.06c0,0,0-0.01,0-0.01l0.37-2.84c0-0.02,0.02-0.05,0.04-0.06c0.02-0.01,0.04-0.02,0.06-0.02
			c0,0,0.01,0,0.01,0l1.83,0.24c0.02,0,0.05,0.02,0.06,0.04c0.01,0.02,0.02,0.04,0.02,0.06C11.07,17.7,11.07,17.7,11.07,17.71z
			 M13.63,19.07c-0.01,0.02-0.04,0.04-0.06,0.04l-0.94,0.21l0.21,0.95c0,0.01,0,0.01,0,0.02c0,0.02-0.01,0.04-0.01,0.05
			c-0.01,0.02-0.03,0.04-0.06,0.04l-0.63,0.14c-0.01,0-0.01,0-0.02,0c-0.02,0-0.04-0.01-0.05-0.01c-0.02-0.01-0.04-0.04-0.04-0.06
			l-0.63-2.8c0-0.01,0-0.01,0-0.02c0-0.02,0.01-0.04,0.01-0.05c0.01-0.02,0.04-0.04,0.06-0.04l1.8-0.41c0.01,0,0.01,0,0.02,0
			c0.02,0,0.04,0.01,0.05,0.01c0.02,0.01,0.04,0.03,0.04,0.06l0.13,0.59c0,0.01,0,0.01,0,0.02c0,0.02-0.01,0.04-0.01,0.05
			c-0.01,0.02-0.04,0.04-0.06,0.04l-1.09,0.24l0.09,0.41l0.95-0.21c0.01,0,0.01,0,0.02,0c0.02,0,0.04,0.01,0.05,0.01
			c0.02,0.01,0.04,0.03,0.04,0.06L13.65,19c0,0.01,0,0.01,0,0.02C13.65,19.04,13.64,19.05,13.63,19.07z M16.95,18.45
			c-0.01,0.02-0.02,0.05-0.04,0.06l-1.53,0.98c-0.02,0.01-0.03,0.01-0.05,0.01c-0.01,0-0.01,0-0.02,0
			c-0.02-0.01-0.05-0.02-0.06-0.04l-1.55-2.41c-0.01-0.02-0.01-0.03-0.01-0.05c0-0.01,0-0.01,0-0.02c0.01-0.02,0.02-0.05,0.04-0.06
			l1.53-0.98c0.02-0.01,0.03-0.01,0.05-0.01c0.01,0,0.01,0,0.02,0c0.02,0.01,0.05,0.02,0.06,0.04l0.33,0.51
			c0.01,0.02,0.01,0.03,0.01,0.05c0,0.01,0,0.01,0,0.02c-0.01,0.02-0.02,0.05-0.04,0.06l-0.91,0.59l0.19,0.3l0.82-0.53
			c0.02-0.01,0.03-0.01,0.05-0.01c0.03,0,0.06,0.02,0.08,0.04l0.3,0.47c0.01,0.01,0.01,0.03,0.01,0.05c0,0.01,0,0.01,0,0.02
			c-0.01,0.02-0.02,0.05-0.04,0.06l-0.82,0.53l0.2,0.3l0.91-0.59c0.02-0.01,0.03-0.02,0.05-0.02c0.01,0,0.01,0,0.02,0
			c0.02,0.01,0.05,0.02,0.06,0.04l0.33,0.51c0.01,0.01,0.02,0.03,0.01,0.05C16.96,18.44,16.96,18.45,16.95,18.45z M16.82,14.05
			c0,0,0.01,0,0.01,0c0.02,0,0.04,0.01,0.06,0.02l0.48,0.36c0.02,0.01,0.03,0.04,0.04,0.06c0,0,0,0.01,0,0.01
			c0,0.02-0.01,0.04-0.02,0.06l-0.65,0.87l0.29,0.21l0.58-0.78c0.01-0.02,0.04-0.03,0.06-0.04c0,0,0.01,0,0.01,0
			c0.02,0,0.04,0.01,0.06,0.02l0.45,0.34c0.02,0.01,0.03,0.04,0.04,0.06c0,0,0,0.01,0,0.01c0,0.02-0.01,0.04-0.02,0.06l-0.58,0.78
			l0.29,0.22l0.65-0.87c0.01-0.02,0.04-0.03,0.06-0.04c0,0,0.01,0,0.01,0c0.02,0,0.04,0.01,0.06,0.02l0.49,0.36
			c0.02,0.01,0.03,0.04,0.04,0.06c0,0,0,0.01,0,0.01c0,0.02-0.01,0.04-0.02,0.06l-1.09,1.46c-0.01,0.02-0.04,0.03-0.06,0.04
			c0,0-0.01,0-0.01,0c-0.02,0-0.04-0.01-0.06-0.02l-2.3-1.72c-0.02-0.01-0.03-0.04-0.04-0.06c0,0,0-0.01,0-0.01
			c0-0.02,0.01-0.04,0.02-0.06l1.09-1.45C16.77,14.07,16.79,14.05,16.82,14.05z"/>
	</g>
</g>
</svg>
