<?xml version="1.0" encoding="utf-8"?>
<!-- Generator: Adobe Illustrator 28.0.0, SVG Export Plug-In . SVG Version: 6.00 Build 0)  -->

<svg version="1.1" id="레이어_1" xmlns="http://www.w3.org/2000/svg" xmlns:xlink="http://www.w3.org/1999/xlink" x="0px"
	 y="0px" viewBox="0 0 22.68 22.68" style="enable-background:new 0 0 22.68 22.68;" xml:space="preserve">
<style type="text/css">
	.st0{fill:#FFFFFF;}
	.st1{fill:#FFFFFF;stroke:#F2CA35;stroke-width:0;stroke-linecap:round;stroke-linejoin:round;}
	.emblum_opacity{
		opacity:0.2
	}
</style>
<polygon class="st0" points="-35.07,58.3 -35.07,58.3 -35.07,58.3 "/>
<line class="st1" x1="-34.8" y1="49.49" x2="-34.8" y2="49.48"/>
<g class="emblum_opacity">
	<path d="M4.34,5.98c0.05,0.09,0.12,0.19,0.22,0.28C4.66,6.34,4.75,6.4,4.83,6.44c0.09,0.04,0.17,0.06,0.26,0.06
		c0.02,0,0.04,0,0.07,0c0.1-0.01,0.2-0.04,0.28-0.08c0.08-0.04,0.16-0.1,0.23-0.18c0.07-0.08,0.12-0.16,0.15-0.25
		C5.86,5.89,5.87,5.8,5.87,5.7v0v0c0-0.05-0.01-0.1-0.02-0.14C5.84,5.5,5.83,5.46,5.8,5.41C5.76,5.32,5.68,5.22,5.58,5.13
		C5.49,5.05,5.4,4.99,5.31,4.95C5.22,4.91,5.14,4.89,5.05,4.89c-0.02,0-0.04,0-0.06,0c-0.1,0.01-0.2,0.04-0.28,0.08
		c-0.08,0.04-0.16,0.1-0.23,0.18C4.41,5.23,4.36,5.32,4.32,5.4C4.29,5.49,4.27,5.59,4.27,5.69v0v0c0,0.05,0.01,0.1,0.02,0.15
		C4.3,5.89,4.32,5.93,4.34,5.98z"/>
	<path d="M12.26,2.56c0,0,0.01,0,0.01,0c0.06,0,0.11-0.01,0.16-0.02c0.04-0.01,0.08-0.04,0.11-0.06c0.03-0.03,0.05-0.06,0.07-0.09
		c0.01-0.03,0.02-0.08,0.02-0.13c0,0,0-0.01,0-0.01c0-0.05-0.01-0.1-0.02-0.13c-0.01-0.03-0.03-0.06-0.06-0.09
		c-0.03-0.03-0.07-0.05-0.11-0.06c-0.05-0.02-0.1-0.03-0.17-0.03l-0.32,0l-0.01,0.63L12.26,2.56L12.26,2.56z"/>
	<path d="M7.93,18.43c-0.06-0.07-0.13-0.12-0.22-0.17c-0.06-0.03-0.11-0.05-0.17-0.07c-0.06-0.01-0.12-0.02-0.18-0.02
		c-0.06,0-0.13,0.01-0.2,0.03c-0.05,0.01-0.09,0.03-0.13,0.05c-0.04,0.02-0.08,0.05-0.12,0.08c-0.08,0.07-0.14,0.16-0.21,0.27
		c-0.04,0.07-0.07,0.14-0.09,0.21c-0.02,0.07-0.03,0.13-0.03,0.19c0,0.07,0.01,0.14,0.04,0.2c0.04,0.09,0.08,0.17,0.14,0.24
		c0.06,0.07,0.13,0.12,0.22,0.17c0.06,0.03,0.12,0.05,0.17,0.07c0.06,0.01,0.12,0.02,0.18,0.02c0.06,0,0.13-0.01,0.19-0.03
		c0.05-0.01,0.09-0.03,0.13-0.05c0.04-0.02,0.08-0.05,0.12-0.08c0.07-0.07,0.14-0.16,0.21-0.27c0.04-0.07,0.07-0.15,0.09-0.21
		c0.02-0.07,0.03-0.13,0.03-0.19c0-0.07-0.01-0.14-0.03-0.2C8.03,18.57,7.99,18.49,7.93,18.43z"/>
	<path d="M14.61,4.2c0.07,0.07,0.14,0.13,0.24,0.18c0.06,0.03,0.12,0.05,0.18,0.07c0.06,0.01,0.12,0.02,0.18,0.02
		c0.07,0,0.15-0.01,0.22-0.03c0.05-0.01,0.09-0.03,0.14-0.06c0.04-0.02,0.08-0.05,0.12-0.09c0.08-0.07,0.15-0.17,0.21-0.3
		c0.04-0.08,0.07-0.15,0.08-0.22c0.02-0.07,0.03-0.13,0.03-0.2c0-0.08-0.01-0.15-0.04-0.23c-0.04-0.1-0.09-0.18-0.15-0.25
		c-0.06-0.07-0.14-0.13-0.24-0.18c-0.06-0.03-0.12-0.05-0.18-0.07c-0.06-0.01-0.12-0.02-0.18-0.02c-0.07,0-0.15,0.01-0.23,0.03
		c-0.05,0.01-0.09,0.03-0.14,0.06c-0.04,0.02-0.08,0.05-0.12,0.09c-0.08,0.07-0.15,0.17-0.21,0.3c-0.04,0.08-0.07,0.15-0.08,0.22
		c-0.02,0.07-0.03,0.13-0.03,0.19c0,0.08,0.01,0.16,0.04,0.23C14.49,4.04,14.54,4.13,14.61,4.2z"/>
	<path d="M14.45,7.98c-0.05,0-0.11,0.01-0.17,0.04l-3.64,1.64c-0.07,0.03-0.15,0.07-0.23,0.1c-0.22,0.09-0.45,0.31-0.6,0.62
		l-1.88,3.73c-0.09,0.17-0.06,0.31,0.07,0.45l0,0c0.09,0.09,0.17,0.13,0.26,0.13c0.05,0,0.11-0.01,0.17-0.04l3.74-1.7
		c0.36-0.18,0.53-0.37,0.67-0.64l1.93-3.73c0.09-0.17,0.06-0.32-0.07-0.46C14.63,8.03,14.55,7.98,14.45,7.98z M11.78,11.81
		c-0.2,0.19-0.44,0.28-0.65,0.28c-0.16,0-0.3-0.05-0.41-0.16c-0.24-0.26-0.16-0.73,0.18-1.05c0.2-0.19,0.44-0.28,0.65-0.28
		c0.16,0,0.3,0.05,0.41,0.16C12.2,11.01,12.12,11.48,11.78,11.81z"/>
	<path d="M16.7,13.74c-0.01,0.02-0.01,0.03-0.02,0.05c-0.01,0.02-0.02,0.04-0.03,0.06c-0.01,0.02-0.01,0.03-0.02,0.05
		c-0.01,0.02-0.02,0.04-0.03,0.06c-0.01,0.01-0.01,0.03-0.02,0.04c-0.01,0.02-0.03,0.05-0.04,0.07c-0.01,0.01-0.01,0.02-0.02,0.03
		c-0.02,0.03-0.04,0.07-0.06,0.1c-0.01,0.01-0.01,0.02-0.02,0.03c-0.01,0.03-0.03,0.05-0.04,0.07c-0.01,0.01-0.02,0.03-0.02,0.04v0
		c-0.01,0.02-0.02,0.04-0.04,0.06l0,0c-0.01,0.01-0.02,0.03-0.03,0.04c-0.01,0.02-0.02,0.04-0.04,0.06
		c-0.01,0.01-0.02,0.03-0.03,0.04c-0.01,0.02-0.02,0.04-0.04,0.05c-0.01,0.01-0.02,0.03-0.03,0.04c-0.01,0.02-0.02,0.04-0.04,0.05v0
		c-0.01,0.01-0.02,0.03-0.03,0.04c-0.01,0.02-0.02,0.03-0.04,0.05c-0.01,0.01-0.02,0.03-0.03,0.04c-0.01,0.02-0.03,0.03-0.04,0.05
		c-0.01,0.01-0.02,0.03-0.03,0.04c-0.01,0.02-0.03,0.03-0.04,0.05c-0.01,0.01-0.02,0.03-0.04,0.04l0,0
		c-0.01,0.02-0.03,0.03-0.04,0.05c-0.01,0.01-0.02,0.03-0.04,0.04c-0.01,0.02-0.03,0.03-0.04,0.05c-0.01,0.01-0.02,0.03-0.04,0.04
		c-0.01,0.02-0.03,0.03-0.04,0.05c-0.01,0.01-0.03,0.03-0.04,0.04c-0.01,0.02-0.03,0.03-0.04,0.04c-0.01,0.01-0.03,0.03-0.04,0.04
		c-0.01,0.01-0.03,0.03-0.04,0.04c-0.01,0.01-0.03,0.03-0.04,0.04c-0.01,0.01-0.03,0.03-0.04,0.04c-0.01,0.01-0.03,0.03-0.04,0.04
		c-0.01,0.01-0.03,0.03-0.04,0.04c-0.01,0.01-0.03,0.03-0.04,0.04c-0.02,0.01-0.03,0.03-0.04,0.04c-0.01,0.01-0.03,0.03-0.04,0.04
		c-0.02,0.01-0.03,0.03-0.05,0.04c-0.01,0.01-0.03,0.02-0.04,0.04c-0.02,0.01-0.03,0.03-0.05,0.04c-0.01,0.01-0.03,0.02-0.04,0.04
		c-0.02,0.01-0.03,0.03-0.05,0.04c-0.01,0.01-0.03,0.02-0.05,0.04c-0.02,0.01-0.03,0.03-0.05,0.04c-0.02,0.01-0.03,0.02-0.05,0.03
		c-0.02,0.01-0.03,0.02-0.05,0.04c-0.02,0.01-0.03,0.02-0.05,0.03c-0.02,0.01-0.03,0.02-0.05,0.04c-0.02,0.01-0.03,0.02-0.05,0.03
		c-0.02,0.01-0.03,0.02-0.05,0.03c-0.02,0.01-0.03,0.02-0.05,0.03c-0.02,0.01-0.03,0.02-0.05,0.03c-0.02,0.01-0.03,0.02-0.05,0.03
		c-0.02,0.01-0.03,0.02-0.05,0.03c-0.02,0.01-0.03,0.02-0.05,0.03c-0.02,0.01-0.03,0.02-0.05,0.03c-0.02,0.01-0.03,0.02-0.05,0.03
		c-0.02,0.01-0.04,0.02-0.05,0.03c-0.02,0.01-0.03,0.02-0.05,0.03c-0.02,0.01-0.04,0.02-0.05,0.03c-0.02,0.01-0.03,0.02-0.05,0.03
		c-0.02,0.01-0.04,0.02-0.05,0.03c-0.02,0.01-0.03,0.02-0.05,0.03c-0.02,0.01-0.04,0.02-0.06,0.03c-0.02,0.01-0.03,0.02-0.05,0.03
		c-0.02,0.01-0.04,0.02-0.06,0.03c-0.02,0.01-0.04,0.02-0.05,0.02c-0.02,0.01-0.04,0.02-0.06,0.02c-0.02,0.01-0.04,0.02-0.05,0.02
		c-0.02,0.01-0.04,0.02-0.06,0.02c-0.02,0.01-0.04,0.01-0.05,0.02c-0.02,0.01-0.04,0.02-0.06,0.02c-0.02,0.01-0.04,0.01-0.05,0.02
		c-0.02,0.01-0.04,0.01-0.06,0.02c-0.02,0.01-0.04,0.01-0.05,0.02c-0.02,0.01-0.04,0.01-0.06,0.02c-0.02,0.01-0.04,0.01-0.06,0.02
		c-0.02,0.01-0.04,0.01-0.06,0.02c-0.02,0.01-0.04,0.01-0.06,0.02c-0.02,0.01-0.04,0.01-0.06,0.02c-0.02,0.01-0.04,0.01-0.06,0.02
		c-0.02,0.01-0.04,0.01-0.06,0.02c-0.02,0.01-0.04,0.01-0.06,0.02c-0.02,0.01-0.04,0.01-0.06,0.02c-0.02,0-0.04,0.01-0.06,0.01
		c-0.02,0-0.04,0.01-0.06,0.01c-0.02,0-0.04,0.01-0.06,0.01c-0.02,0-0.04,0.01-0.06,0.01c-0.02,0-0.04,0.01-0.06,0.01
		c-0.02,0-0.04,0.01-0.06,0.01c-0.02,0-0.04,0.01-0.06,0.01c-0.02,0-0.04,0.01-0.06,0.01c-0.02,0-0.04,0.01-0.06,0.01
		c-0.02,0-0.04,0.01-0.07,0.01c-0.02,0-0.04,0.01-0.06,0.01c-0.02,0-0.04,0.01-0.07,0.01c-0.02,0-0.04,0-0.06,0.01
		c-0.02,0-0.05,0-0.07,0.01c-0.02,0-0.04,0-0.06,0.01c-0.02,0-0.05,0-0.07,0.01c-0.02,0-0.04,0-0.05,0c-0.02,0-0.05,0-0.08,0
		c-0.02,0-0.03,0-0.05,0c-0.03,0-0.06,0-0.08,0c-0.01,0-0.03,0-0.04,0c-0.04,0-0.08,0-0.13,0c-1.14,0-2.15-0.32-3.1-0.89
		c-1.07-0.62-1.83-1.81-1.83-1.81c-0.58-0.91-0.92-1.99-0.92-3.14c0-1.62,0.65-3.08,1.71-4.14c1.06-1.06,2.52-1.71,4.14-1.71
		c1.14,0,2.2,0.33,3.1,0.89l0,0c0.02,0.01,0.25,0.16,0.25,0.16c0.86,0.59,1.56,1.6,1.56,1.6s0.03,0.04,0.03,0.05
		c0.01,0.01,0.01,0.02,0.02,0.03c0,0.01,0.01,0.01,0.01,0.02c0.01,0.01,0.01,0.02,0.02,0.03c0,0.01,0.01,0.01,0.01,0.02
		c0.01,0.01,0.01,0.02,0.02,0.03c0,0.01,0.01,0.01,0.01,0.02c0.01,0.02,0.02,0.03,0.03,0.05l0,0l0,0c0.01,0.02,0.02,0.03,0.03,0.05
		c0,0,0.01,0.01,0.01,0.01c0.01,0.01,0.01,0.02,0.02,0.04c0,0.01,0.01,0.01,0.01,0.02v0c0.01,0.01,0.01,0.02,0.02,0.03
		c0,0.01,0.01,0.01,0.01,0.02c0.01,0.01,0.01,0.02,0.02,0.03c0,0.01,0.01,0.01,0.01,0.02c0.01,0.01,0.01,0.02,0.02,0.03
		c0,0.01,0.01,0.02,0.01,0.02c0,0.01,0.01,0.02,0.01,0.03c0,0.01,0.01,0.02,0.01,0.02c0,0.01,0.01,0.02,0.01,0.03
		c0,0.01,0.01,0.02,0.01,0.02c0,0.01,0.01,0.02,0.01,0.03c0,0.01,0.01,0.02,0.01,0.02c0,0.01,0.01,0.02,0.01,0.03
		c0,0.01,0.01,0.02,0.01,0.02c0,0.01,0.01,0.02,0.01,0.03c0,0.01,0.01,0.02,0.01,0.02c0,0.01,0.01,0.02,0.01,0.03
		c0,0.01,0.01,0.02,0.01,0.03c0,0.01,0.01,0.02,0.01,0.03c0,0.01,0.01,0.02,0.01,0.03c0,0.01,0.01,0.02,0.01,0.03
		c0,0.01,0.01,0.02,0.01,0.03c0,0.01,0.01,0.02,0.01,0.03c0,0.01,0.01,0.02,0.01,0.03c0,0.01,0.01,0.02,0.01,0.03
		c0,0.01,0.01,0.02,0.01,0.03c0,0.01,0.01,0.02,0.01,0.03c0,0.01,0.01,0.02,0.01,0.02c0,0.01,0.01,0.02,0.01,0.03
		c0,0.01,0.01,0.02,0.01,0.02c0,0.01,0.01,0.02,0.01,0.03c0,0.01,0.01,0.02,0.01,0.02c0,0.01,0.01,0.02,0.01,0.04
		c0,0.01,0.01,0.02,0.01,0.02c0,0.01,0.01,0.03,0.01,0.04c0,0.01,0,0.01,0.01,0.02c0.01,0.02,0.01,0.03,0.02,0.05c0,0,0,0.01,0,0.01
		c0.01,0.02,0.01,0.04,0.02,0.06c0,0,0,0.01,0,0.01c0,0.02,0.01,0.03,0.01,0.05c0,0.01,0,0.01,0.01,0.02c0,0.01,0.01,0.03,0.01,0.04
		c0,0.01,0,0.02,0.01,0.02l0,0.01l0-0.01c0,0.01,0.01,0.02,0.01,0.04c0,0.01,0,0.02,0.01,0.03c0,0.01,0.01,0.02,0.01,0.03
		c0,0.01,0,0.02,0.01,0.03c0,0.01,0.01,0.02,0.01,0.03c0,0.01,0,0.02,0.01,0.03c0,0.01,0.01,0.02,0.01,0.03c0,0.01,0,0.02,0.01,0.03
		c0,0.01,0.01,0.02,0.01,0.03c0,0.01,0,0.02,0.01,0.03c0,0.01,0,0.02,0.01,0.03c0,0.01,0,0.02,0.01,0.03c0,0.01,0,0.02,0.01,0.03
		c0,0.01,0,0.02,0.01,0.03h5.55c0-0.04-0.01-0.08-0.01-0.11c0-0.02,0-0.03-0.01-0.05c0-0.04-0.01-0.08-0.01-0.11
		c0-0.02-0.01-0.04-0.01-0.06c0-0.03-0.01-0.07-0.01-0.1c0-0.02-0.01-0.04-0.01-0.07c0-0.03-0.01-0.06-0.01-0.09
		c0-0.02-0.01-0.05-0.01-0.07c0-0.03-0.01-0.06-0.02-0.09c0-0.02-0.01-0.05-0.01-0.07c-0.01-0.03-0.01-0.06-0.02-0.09
		c0-0.02-0.01-0.05-0.01-0.07c-0.01-0.03-0.01-0.06-0.02-0.09c0-0.02-0.01-0.05-0.01-0.07C22.46,9,22.46,8.97,22.45,8.94
		c0-0.02-0.01-0.05-0.01-0.07c-0.01-0.03-0.01-0.06-0.02-0.09c-0.01-0.02-0.01-0.04-0.02-0.07c-0.01-0.03-0.02-0.06-0.02-0.1
		c-0.01-0.02-0.01-0.04-0.02-0.06c-0.01-0.04-0.02-0.07-0.03-0.11c0-0.02-0.01-0.03-0.01-0.05c-0.01-0.05-0.03-0.1-0.04-0.16
		c-0.02-0.09-0.05-0.18-0.08-0.26c-0.04-0.13-0.08-0.26-0.13-0.39c-0.03-0.09-0.06-0.17-0.09-0.26c-0.08-0.21-0.17-0.43-0.26-0.64
		c-0.03-0.07-0.06-0.14-0.1-0.21c-0.03-0.06-0.05-0.11-0.08-0.17c-0.03-0.06-0.06-0.13-0.1-0.19c-0.02-0.04-0.04-0.08-0.06-0.12
		c-0.51-0.97-1.18-1.87-1.99-2.69c-1.66-1.66-3.71-2.7-5.85-3.11c-0.09-0.02-0.18-0.03-0.27-0.05C13.13,0.14,13,0.12,12.86,0.1
		c-0.05-0.01-0.09-0.01-0.14-0.02c-0.09-0.01-0.18-0.02-0.27-0.03c-0.09-0.01-0.18-0.02-0.27-0.02C11.91,0.01,11.64,0,11.37,0
		c-0.18,0-0.36,0-0.54,0.01c-2.72,0.13-5.4,1.23-7.48,3.31c-0.9,0.9-1.62,1.91-2.15,2.99C1.16,6.4,1.12,6.48,1.08,6.56
		C1,6.73,0.93,6.9,0.86,7.07c-0.03,0.09-0.07,0.17-0.1,0.26C0.69,7.5,0.63,7.67,0.58,7.85C0.55,7.94,0.52,8.02,0.5,8.11
		C0.47,8.2,0.45,8.29,0.42,8.37C0.4,8.45,0.38,8.53,0.36,8.61c-0.22,0.9-0.33,1.81-0.33,2.73c0,0.63,0.05,1.27,0.16,1.9
		c0.02,0.09,0.03,0.18,0.05,0.27c0.03,0.13,0.05,0.27,0.09,0.4c0.01,0.04,0.02,0.09,0.03,0.13c0.02,0.09,0.04,0.18,0.07,0.27
		c0.02,0.09,0.05,0.18,0.07,0.26c0.03,0.09,0.05,0.18,0.08,0.26c0.06,0.17,0.12,0.35,0.18,0.52c0.03,0.09,0.07,0.17,0.1,0.26
		c0.07,0.17,0.14,0.34,0.22,0.51c0.04,0.08,0.08,0.17,0.12,0.25c0.53,1.08,1.25,2.09,2.15,2.99c0.9,0.9,1.91,1.62,2.99,2.15
		c0.3,0.15,0.61,0.28,0.92,0.4c0.11,0.04,0.21,0.08,0.32,0.12c0.03,0.01,0.05,0.02,0.08,0.03c1.2,0.41,2.45,0.62,3.71,0.62
		c0.86,0,1.72-0.1,2.57-0.29c0.13-0.03,0.27-0.06,0.4-0.1c0.22-0.06,0.44-0.13,0.66-0.2c0.09-0.03,0.17-0.06,0.26-0.09
		c0.04-0.02,0.09-0.03,0.13-0.05c0.87-0.33,1.71-0.77,2.5-1.32c0.06-0.04,0.11-0.08,0.17-0.12c0.1-0.07,0.19-0.14,0.28-0.21
		c0.06-0.05,0.12-0.09,0.18-0.14c0.01-0.01,0.03-0.02,0.04-0.03c0.29-0.24,0.57-0.49,0.84-0.76c0.52-0.52,0.98-1.08,1.37-1.66
		c0.08-0.12,0.16-0.24,0.23-0.35c0.05-0.08,0.1-0.16,0.15-0.24c0.07-0.12,0.14-0.24,0.21-0.37c0.04-0.08,0.09-0.16,0.13-0.25
		c0.04-0.08,0.08-0.17,0.12-0.25c0.04-0.08,0.08-0.17,0.12-0.25c0.09-0.21,0.18-0.42,0.26-0.64c0.03-0.09,0.06-0.17,0.09-0.26
		c0.05-0.13,0.09-0.26,0.13-0.39c0.02-0.08,0.05-0.16,0.07-0.23c0.01-0.02,0.01-0.04,0.02-0.06l0,0c0.01-0.05,0.03-0.11,0.04-0.16
		c0-0.01,0-0.02,0.01-0.03c0.01-0.05,0.03-0.1,0.04-0.15c0-0.01,0-0.02,0.01-0.03c0.01-0.05,0.02-0.1,0.04-0.15
		c0-0.01,0-0.01,0-0.02c0.01-0.05,0.02-0.1,0.03-0.15v0c0,0,0-0.01,0-0.01v0c0,0,0-0.01,0-0.01h-5.74
		C16.72,13.7,16.71,13.72,16.7,13.74z M20.37,6.91c0.01,0,0.03,0,0.04,0.01c0.02,0.01,0.04,0.03,0.05,0.06l0.67,1.78
		c0,0.01,0.01,0.02,0.01,0.03c0,0.01,0,0.03-0.01,0.04c-0.01,0.02-0.03,0.04-0.06,0.05L20.48,9.1c-0.01,0-0.02,0.01-0.03,0.01
		c-0.01,0-0.03,0-0.04-0.01c-0.02-0.01-0.04-0.03-0.05-0.06l-0.4-1.06l-0.35,0.13l0.36,0.95c0,0.01,0.01,0.02,0.01,0.03
		c0,0.01,0,0.03-0.01,0.04c-0.01,0.02-0.03,0.04-0.06,0.05L19.36,9.4c-0.01,0-0.02,0.01-0.03,0.01c-0.01,0-0.03,0-0.04-0.01
		c-0.02-0.01-0.04-0.03-0.05-0.06l-0.36-0.95l-0.35,0.13l0.4,1.06c0,0.01,0.01,0.02,0.01,0.03c0,0.01,0,0.03-0.01,0.04
		c-0.01,0.02-0.03,0.04-0.06,0.05l-0.59,0.22c-0.01,0-0.02,0.01-0.03,0.01c-0.01,0-0.03,0-0.04-0.01c-0.02-0.01-0.04-0.03-0.05-0.06
		l-0.67-1.78c0-0.01-0.01-0.02-0.01-0.03c0-0.01,0-0.03,0.01-0.04c0.01-0.02,0.03-0.04,0.06-0.05l2.81-1.05
		C20.35,6.91,20.36,6.91,20.37,6.91z M17.09,5.78C17.09,5.78,17.09,5.78,17.09,5.78c0.02,0.02,0.02,0.04,0.02,0.05c0,0,0,0,0,0
		c-0.01,0.02-0.02,0.05-0.03,0.08c-0.01,0.02-0.01,0.03-0.02,0.04c-0.01,0.01-0.01,0.02-0.01,0.03c-0.01,0.03-0.02,0.06-0.02,0.09v0
		c0,0.02,0,0.03,0,0.05c0,0.01,0,0.03,0,0.04c0,0.03,0.01,0.06,0.02,0.09c0.02,0.06,0.06,0.13,0.11,0.21l0,0l0,0
		c0,0,0,0.01,0.01,0.01c0.03,0.04,0.07,0.08,0.1,0.1c0.02,0.01,0.03,0.02,0.05,0.03c0.02,0.01,0.03,0.02,0.05,0.02h0
		c0.02,0.01,0.03,0.01,0.05,0.01c0.01,0,0.01,0,0.02,0c0.01,0,0.02,0,0.03,0h0h0c0.01,0,0.03-0.01,0.04-0.01h0
		c0.01-0.01,0.03-0.01,0.04-0.02l0,0l0,0l0,0l0,0c0.01-0.01,0.02-0.02,0.03-0.02c0.01-0.01,0.01-0.02,0.02-0.03l0,0
		c0.01-0.01,0.01-0.02,0.01-0.03c0-0.01,0.01-0.02,0.01-0.04l0,0c0-0.01,0-0.02,0-0.03c0-0.02,0-0.04-0.01-0.06v0l0,0
		c-0.01-0.03-0.02-0.07-0.04-0.11l0,0l-0.18-0.37l0,0l0,0l0,0c-0.06-0.12-0.09-0.24-0.11-0.36c-0.01-0.05-0.01-0.1-0.01-0.15
		c0-0.07,0.01-0.13,0.02-0.2c0.02-0.11,0.06-0.21,0.12-0.3c0.06-0.09,0.13-0.17,0.23-0.24l0,0c0,0,0.01-0.01,0.02-0.01
		c0.06-0.04,0.12-0.08,0.19-0.11c0.06-0.03,0.13-0.05,0.2-0.06c0.06-0.01,0.12-0.02,0.18-0.02c0.01,0,0.02,0,0.03,0
		c0.07,0,0.14,0.01,0.21,0.03c0.14,0.03,0.27,0.09,0.38,0.17c0.12,0.08,0.22,0.18,0.31,0.29l0,0c0.01,0.01,0.01,0.01,0.02,0.02
		c0.11,0.15,0.18,0.3,0.23,0.45c0.02,0.07,0.04,0.15,0.04,0.22c0,0.03,0,0.05,0,0.08c0,0.04,0,0.08-0.01,0.12
		c-0.02,0.12-0.05,0.23-0.1,0.32c-0.05,0.1-0.11,0.18-0.18,0.26c0,0-0.01,0.01-0.01,0.01c-0.01,0.01-0.02,0.01-0.04,0.02
		c0,0-0.01,0-0.01,0c-0.01,0-0.02,0-0.03,0c-0.01,0-0.02-0.01-0.02-0.01l-0.39-0.41l0,0l-0.03-0.03c0,0-0.01-0.01-0.01-0.01
		c-0.01-0.01-0.02-0.03-0.02-0.04l0,0c0-0.01,0-0.02,0.01-0.03c0.01-0.03,0.03-0.08,0.04-0.11c0.01-0.02,0.01-0.03,0.01-0.05
		c0-0.01,0-0.01,0-0.02c0-0.01,0-0.01,0-0.01l0,0l0,0c0,0,0-0.02,0-0.05c0-0.01,0-0.01,0-0.02c0-0.02-0.01-0.05-0.01-0.07
		c-0.01-0.02-0.02-0.05-0.03-0.08c-0.01-0.03-0.03-0.06-0.05-0.09c0,0,0-0.01-0.01-0.01c-0.03-0.04-0.06-0.07-0.09-0.09
		c-0.02-0.01-0.03-0.02-0.05-0.03c-0.02-0.01-0.03-0.01-0.05-0.02c-0.02-0.01-0.04-0.01-0.05-0.01c-0.01,0-0.01,0-0.01,0
		c-0.01,0-0.02,0-0.03,0h0c-0.01,0-0.03,0.01-0.04,0.01c-0.01,0.01-0.03,0.01-0.04,0.02l0,0l0,0l0,0l0,0
		c-0.01,0.01-0.02,0.02-0.03,0.03c-0.01,0.01-0.02,0.02-0.02,0.03l0,0c-0.01,0.01-0.01,0.02-0.01,0.03v0c0,0.01-0.01,0.02-0.01,0.04
		v0c0,0,0,0.01,0,0.01c0,0.02,0,0.03,0.01,0.05l0,0.01l0,0c0.01,0.03,0.02,0.06,0.04,0.1l0,0c0,0,0,0,0,0l0,0l0.17,0.37v0l0,0l0,0
		l0,0c0.06,0.13,0.1,0.26,0.12,0.39c0.01,0.06,0.01,0.11,0.01,0.17c0,0.07-0.01,0.13-0.02,0.2l0,0c-0.02,0.11-0.06,0.22-0.12,0.31
		c-0.06,0.09-0.13,0.17-0.23,0.24l0,0l0,0c0,0-0.01,0.01-0.01,0.01c-0.05,0.04-0.11,0.07-0.17,0.1c-0.06,0.03-0.12,0.05-0.19,0.06
		l0,0l0,0c-0.06,0.01-0.13,0.02-0.19,0.02H17.5c-0.07,0-0.14-0.01-0.21-0.02c-0.14-0.03-0.27-0.08-0.39-0.16
		c-0.12-0.08-0.23-0.19-0.33-0.33c-0.01-0.01-0.01-0.02-0.02-0.03c-0.11-0.16-0.2-0.31-0.24-0.47c-0.02-0.08-0.04-0.16-0.05-0.23
		c0-0.03,0-0.06,0-0.1c0-0.04,0-0.09,0.01-0.13c0.02-0.15,0.06-0.28,0.12-0.4c0.06-0.12,0.12-0.21,0.22-0.3l0.01,0
		c0.01-0.01,0.02-0.01,0.04-0.02c0,0,0.01,0,0.01,0c0.01,0,0.02,0,0.03,0.01c0.01,0,0.02,0.01,0.02,0.01l0,0L17.09,5.78L17.09,5.78z
		 M13.53,3.68L13.53,3.68L13.53,3.68c0-0.13,0.02-0.26,0.05-0.38c0.03-0.13,0.08-0.26,0.15-0.39c0.11-0.22,0.24-0.4,0.41-0.54
		c0.16-0.14,0.35-0.25,0.56-0.32c0.16-0.05,0.33-0.08,0.49-0.08h0h0c0.13,0,0.26,0.02,0.38,0.05c0.13,0.03,0.25,0.08,0.38,0.14
		c0.2,0.1,0.38,0.23,0.52,0.39c0.14,0.16,0.25,0.34,0.32,0.55c0.06,0.17,0.09,0.34,0.09,0.52v0v0c0,0.13-0.02,0.26-0.05,0.39
		c-0.03,0.13-0.08,0.26-0.15,0.39c-0.11,0.22-0.24,0.4-0.4,0.54c-0.16,0.14-0.35,0.25-0.56,0.31c-0.16,0.05-0.33,0.08-0.49,0.08h0h0
		c-0.13,0-0.26-0.02-0.38-0.05c-0.13-0.03-0.25-0.08-0.38-0.14c-0.2-0.1-0.38-0.23-0.52-0.39C13.8,4.59,13.7,4.41,13.62,4.2
		C13.56,4.03,13.53,3.85,13.53,3.68L13.53,3.68z M11.03,4.26l0.05-3c0-0.03,0.01-0.05,0.03-0.07c0.02-0.02,0.04-0.03,0.07-0.03h0
		l1.13,0.02c0.16,0,0.31,0.03,0.45,0.08c0.14,0.05,0.26,0.13,0.36,0.23c0.1,0.1,0.18,0.21,0.23,0.34c0.05,0.12,0.08,0.26,0.08,0.41
		v0v0v0c0,0.01,0,0.01,0,0.02c0,0.15-0.03,0.3-0.09,0.42l0,0c-0.06,0.13-0.14,0.24-0.24,0.34h0c-0.1,0.09-0.22,0.16-0.35,0.21
		C12.6,3.28,12.46,3.3,12.3,3.3h0c-0.01,0-0.02,0-0.03,0l-0.36-0.01L11.9,4.27c0,0.03-0.01,0.05-0.03,0.07
		c-0.02,0.02-0.04,0.03-0.07,0.03h0l-0.67-0.01c-0.03,0-0.05-0.01-0.07-0.03C11.04,4.31,11.03,4.29,11.03,4.26L11.03,4.26z
		 M6.22,2.56c0.01-0.02,0.03-0.04,0.06-0.05l0.82-0.3C7.1,2.2,7.11,2.2,7.12,2.2c0.03,0,0.05,0.01,0.07,0.03l1.31,1.43l0.02-1.92
		c0-0.04,0.03-0.08,0.06-0.09l0.86-0.32c0.01,0,0.02-0.01,0.03-0.01c0.01,0,0.03,0,0.04,0.01c0.02,0.01,0.04,0.03,0.05,0.06
		l1.05,2.81c0,0.01,0.01,0.02,0.01,0.03c0,0.01,0,0.03-0.01,0.04c-0.01,0.02-0.03,0.04-0.06,0.05L9.96,4.55
		c-0.01,0-0.02,0.01-0.03,0.01c-0.01,0-0.03,0-0.04-0.01C9.86,4.54,9.84,4.51,9.83,4.49L9.32,3.12L9.29,4.73
		c0,0.04-0.03,0.08-0.06,0.09L8.72,5.01c-0.01,0-0.02,0.01-0.03,0.01c-0.03,0-0.05-0.01-0.07-0.03L7.53,3.8l0.51,1.36
		c0,0.01,0.01,0.02,0.01,0.03c0,0.01,0,0.03-0.01,0.04C8.03,5.26,8.01,5.28,7.98,5.28L7.39,5.51c-0.01,0-0.02,0.01-0.03,0.01
		c-0.01,0-0.03,0-0.04-0.01C7.29,5.49,7.27,5.47,7.26,5.45L6.21,2.64c0-0.01-0.01-0.02-0.01-0.03C6.21,2.59,6.21,2.58,6.22,2.56z
		 M3.4,5.71c0-0.21,0.04-0.41,0.11-0.6c0.07-0.19,0.19-0.36,0.33-0.53c0.15-0.17,0.32-0.3,0.51-0.4c0.19-0.09,0.39-0.15,0.62-0.17
		c0.04,0,0.08,0,0.12,0h0c0.2,0,0.39,0.04,0.57,0.11c0.18,0.08,0.36,0.19,0.52,0.33C6.36,4.63,6.5,4.81,6.6,5
		c0.1,0.19,0.15,0.4,0.15,0.63c0,0.02,0,0.04,0,0.06v0c0,0.21-0.04,0.41-0.11,0.6C6.57,6.47,6.46,6.64,6.31,6.81
		C6.16,6.98,5.99,7.11,5.8,7.2C5.61,7.3,5.41,7.35,5.18,7.37c-0.04,0-0.09,0-0.13,0h0c-0.2,0-0.39-0.04-0.57-0.11
		C4.3,7.19,4.13,7.08,3.97,6.93C3.79,6.77,3.65,6.59,3.55,6.4C3.46,6.2,3.4,5.99,3.4,5.77v0C3.4,5.75,3.4,5.73,3.4,5.71L3.4,5.71z
		 M2.58,10.42L2.58,10.42c-0.01-0.01-0.02-0.01-0.04-0.02c-0.11-0.05-0.22-0.11-0.32-0.17c-0.1-0.06-0.18-0.13-0.26-0.21
		C1.89,9.94,1.82,9.86,1.76,9.76C1.7,9.67,1.65,9.57,1.61,9.46C1.54,9.27,1.5,9.07,1.5,8.87c0-0.01,0-0.02,0-0.03
		c0-0.21,0.05-0.42,0.13-0.63v0c0-0.01,0.01-0.02,0.01-0.03c0.05-0.11,0.1-0.21,0.16-0.3C1.87,7.78,1.94,7.7,2.01,7.62
		c0.15-0.15,0.33-0.27,0.54-0.36c0.1-0.04,0.21-0.08,0.31-0.1c0.1-0.02,0.2-0.03,0.3-0.03c0.01,0,0.01,0,0.02,0
		c0.02,0,0.04,0,0.06,0c0.01,0,0.01,0,0.02,0c0.01,0,0.02,0,0.03,0c0,0,0,0,0,0c0.07,0.01,0.12,0.09,0.09,0.16l-0.1,0.25L3.11,7.96
		C3.1,7.99,3.07,8.01,3.04,8.02c-0.02,0-0.03,0-0.04,0.01C2.95,8.03,2.9,8.05,2.85,8.07C2.8,8.09,2.75,8.12,2.71,8.15
		C2.67,8.18,2.63,8.21,2.6,8.25c0,0,0,0,0,0h0L2.52,8.32h0.01C2.52,8.33,2.51,8.35,2.5,8.37C2.47,8.41,2.45,8.46,2.43,8.51l0,0l0,0
		c0,0.01,0,0.01-0.01,0.02C2.4,8.57,2.38,8.62,2.37,8.67c-0.01,0.05-0.02,0.1-0.02,0.15c0,0.01,0,0.01,0,0.02
		c0,0.09,0.02,0.18,0.05,0.28v0c0.02,0.05,0.04,0.1,0.07,0.14C2.5,9.3,2.53,9.34,2.57,9.38c0.04,0.04,0.09,0.08,0.14,0.11
		c0.05,0.03,0.11,0.06,0.18,0.09c0.01,0,0.02,0.01,0.02,0.01C2.98,9.62,3.04,9.64,3.1,9.65c0.06,0.01,0.11,0.02,0.17,0.02
		c0.01,0,0.01,0,0.02,0c0.05,0,0.09,0,0.14-0.01c0.05-0.01,0.1-0.03,0.14-0.05h0c0.05-0.02,0.1-0.05,0.14-0.08
		c0.04-0.03,0.08-0.06,0.12-0.1c0.04-0.04,0.07-0.08,0.1-0.12c0.03-0.04,0.05-0.09,0.07-0.14c0-0.01,0-0.01,0.01-0.02
		c0.02-0.05,0.04-0.1,0.05-0.15c0.01-0.05,0.02-0.1,0.02-0.15c0-0.01,0-0.01,0-0.02c0-0.09-0.02-0.18-0.05-0.28
		c-0.02-0.05-0.04-0.1-0.07-0.14C3.93,8.41,3.92,8.39,3.91,8.38c0,0,0,0,0,0C3.89,8.35,3.88,8.31,3.89,8.28l0.27-0.65
		c0.03-0.07,0.12-0.1,0.18-0.05c0,0,0,0,0,0c0,0,0,0,0,0C4.36,7.59,4.37,7.6,4.39,7.61c0.01,0,0.01,0.01,0.02,0.01
		c0.02,0.01,0.04,0.03,0.05,0.05C4.53,7.75,4.6,7.83,4.66,7.92c0.06,0.09,0.11,0.19,0.15,0.3v0c0.07,0.2,0.11,0.39,0.11,0.59
		c0,0.01,0,0.02,0,0.03c0,0.21-0.05,0.42-0.13,0.63v0c0,0.01-0.01,0.02-0.01,0.03c-0.05,0.11-0.1,0.21-0.16,0.3
		c-0.06,0.09-0.13,0.18-0.2,0.25l0,0c-0.15,0.15-0.33,0.28-0.54,0.36c-0.1,0.04-0.21,0.08-0.31,0.1c-0.1,0.02-0.2,0.03-0.3,0.03
		c-0.01,0-0.01,0-0.02,0c-0.11,0-0.22-0.01-0.33-0.04C2.8,10.5,2.69,10.46,2.58,10.42z M5.38,16.79c0-0.01,0.01-0.02,0.01-0.03
		c0.01-0.05,0.02-0.1,0.02-0.15v0c0-0.05,0-0.1-0.01-0.15c-0.01-0.05-0.02-0.09-0.04-0.14l0,0l0,0c0,0,0,0,0,0l-0.08-0.15
		c-0.02-0.03-0.05-0.06-0.08-0.09l0,0v0c0,0-0.01-0.01-0.01-0.01C5.15,16.03,5.11,16,5.07,15.97c-0.04-0.03-0.08-0.05-0.12-0.07h0
		c-0.09-0.04-0.18-0.06-0.29-0.06c-0.01,0-0.01,0-0.02,0c-0.05,0-0.09,0-0.13,0.01c-0.05,0.01-0.1,0.03-0.15,0.05
		c-0.05,0.02-0.1,0.05-0.15,0.09c-0.05,0.04-0.1,0.08-0.15,0.13c-0.01,0.01-0.01,0.01-0.02,0.02c-0.05,0.05-0.09,0.1-0.12,0.15
		c-0.03,0.05-0.06,0.1-0.09,0.14v0c-0.02,0.05-0.04,0.1-0.05,0.15c-0.01,0.05-0.02,0.09-0.02,0.14c0,0,0,0.01,0,0.01
		c0,0.05,0.01,0.1,0.02,0.15c0.01,0.05,0.02,0.1,0.04,0.14c0.02,0.04,0.04,0.09,0.07,0.13c0.03,0.04,0.06,0.08,0.09,0.12
		c0,0,0.01,0.01,0.01,0.01c0.04,0.04,0.07,0.07,0.11,0.09c0.04,0.03,0.08,0.05,0.12,0.07c0.09,0.04,0.18,0.06,0.28,0.06h0
		c0.01,0,0.01,0,0.02,0c0.04,0,0.09,0,0.13-0.01c0.01,0,0.03-0.01,0.04-0.01c0.04-0.01,0.09,0,0.12,0.03l0.48,0.46c0,0,0,0,0,0
		c0.04,0.04,0.04,0.1-0.01,0.14c0,0,0,0,0,0c-0.01,0.01-0.02,0.02-0.04,0.02c0,0,0,0,0,0c-0.02,0.01-0.04,0.02-0.06,0.03
		c0,0-0.01,0.01-0.01,0.01c-0.02,0.01-0.04,0.02-0.06,0.03v0c-0.1,0.04-0.2,0.08-0.31,0.1c-0.11,0.02-0.21,0.03-0.32,0.03h0
		c-0.21,0-0.41-0.04-0.59-0.11c-0.18-0.07-0.35-0.19-0.5-0.34l0,0c-0.01-0.01-0.02-0.02-0.02-0.02c-0.08-0.08-0.14-0.16-0.2-0.25
		c-0.06-0.09-0.1-0.18-0.14-0.27c-0.07-0.18-0.11-0.37-0.11-0.58c0-0.01,0-0.02,0-0.04c0-0.11,0.01-0.21,0.04-0.32
		c0.02-0.1,0.06-0.2,0.1-0.3c0.04-0.1,0.1-0.19,0.16-0.28c0.06-0.09,0.14-0.18,0.22-0.27l0,0v0c0.01-0.01,0.02-0.02,0.03-0.03
		c0.09-0.09,0.18-0.16,0.28-0.23c0.1-0.07,0.19-0.12,0.29-0.17c0.1-0.04,0.2-0.08,0.31-0.1c0.1-0.02,0.21-0.03,0.32-0.03h0
		c0.21,0,0.41,0.04,0.6,0.11c0.18,0.08,0.35,0.19,0.5,0.34l0,0c0.01,0.01,0.02,0.02,0.02,0.02c0.08,0.08,0.14,0.16,0.2,0.25
		c0.06,0.09,0.1,0.18,0.14,0.27c0.07,0.18,0.1,0.37,0.1,0.57c0,0.01,0,0.03,0,0.04c0,0.11-0.02,0.21-0.04,0.31
		c-0.02,0.1-0.06,0.2-0.1,0.3c-0.01,0.02-0.02,0.04-0.03,0.06c0,0.01-0.01,0.01-0.01,0.02c-0.01,0.01-0.01,0.02-0.02,0.04
		c0,0,0,0,0,0.01c0,0,0,0,0,0C6,17.39,5.94,17.4,5.9,17.36h0l-0.48-0.46C5.39,16.88,5.37,16.83,5.38,16.79z M9.02,18.91L9.02,18.91
		c0,0.13-0.02,0.27-0.05,0.4c-0.04,0.13-0.09,0.27-0.16,0.4c-0.11,0.21-0.25,0.39-0.42,0.53c-0.16,0.14-0.36,0.24-0.57,0.3
		c-0.15,0.04-0.31,0.07-0.46,0.07h0h0c-0.13,0-0.27-0.02-0.4-0.05c-0.13-0.03-0.26-0.09-0.39-0.15c-0.2-0.11-0.37-0.24-0.51-0.4
		c-0.14-0.16-0.24-0.35-0.31-0.56c-0.05-0.16-0.08-0.32-0.08-0.49v0v0c0-0.13,0.02-0.27,0.05-0.4c0.04-0.13,0.09-0.27,0.16-0.4
		c0.11-0.22,0.25-0.39,0.42-0.53c0.17-0.14,0.36-0.24,0.57-0.3c0.15-0.04,0.31-0.07,0.46-0.07h0h0c0.14,0,0.27,0.02,0.4,0.05
		C7.86,17.35,8,17.4,8.12,17.47c0.2,0.11,0.37,0.24,0.51,0.4c0.14,0.16,0.24,0.35,0.31,0.56C9,18.58,9.02,18.74,9.02,18.91
		L9.02,18.91z M11.61,18.52l-0.08,0.63c0,0.03-0.02,0.05-0.04,0.07c-0.02,0.01-0.04,0.02-0.06,0.02c0,0-0.01,0-0.01,0l-1.16-0.15
		l-0.06,0.43l1.01,0.13c0.03,0,0.05,0.02,0.07,0.04c0.01,0.02,0.02,0.04,0.02,0.06c0,0,0,0.01,0,0.01l-0.08,0.6
		c0,0.03-0.02,0.05-0.04,0.07c-0.02,0.01-0.04,0.02-0.06,0.02c0,0-0.01,0-0.01,0l-1-0.13l-0.13,1.01c0,0.03-0.02,0.05-0.04,0.07
		c-0.02,0.01-0.04,0.02-0.06,0.02c0,0-0.01,0-0.01,0l-0.67-0.09c-0.03,0-0.05-0.02-0.07-0.04c-0.01-0.02-0.02-0.04-0.02-0.06
		c0,0,0-0.01,0-0.01l0.39-2.97c0-0.03,0.02-0.05,0.04-0.07c0.02-0.01,0.04-0.02,0.06-0.02c0,0,0.01,0,0.01,0l1.92,0.25
		c0.03,0,0.05,0.02,0.07,0.04c0.01,0.02,0.02,0.04,0.02,0.06C11.61,18.52,11.61,18.52,11.61,18.52z M14.29,19.95
		c-0.01,0.02-0.04,0.04-0.06,0.04l-0.98,0.22l0.22,1c0,0.01,0,0.01,0,0.02c0,0.02-0.01,0.04-0.02,0.05
		c-0.01,0.02-0.04,0.04-0.06,0.04l-0.66,0.15c-0.01,0-0.01,0-0.02,0c-0.02,0-0.04-0.01-0.05-0.02c-0.02-0.01-0.04-0.04-0.04-0.06
		l-0.66-2.93c0-0.01,0-0.01,0-0.02c0-0.02,0.01-0.04,0.02-0.05c0.01-0.02,0.04-0.04,0.06-0.04l1.89-0.42c0.01,0,0.01,0,0.02,0
		c0.02,0,0.04,0.01,0.05,0.02c0.02,0.01,0.04,0.04,0.04,0.06l0.14,0.62c0,0.01,0,0.01,0,0.02c0,0.02-0.01,0.04-0.02,0.05
		c-0.01,0.02-0.04,0.04-0.06,0.04L12.97,19l0.1,0.43l0.99-0.22c0.01,0,0.01,0,0.02,0c0.02,0,0.04,0.01,0.05,0.02
		c0.02,0.01,0.04,0.04,0.04,0.06l0.13,0.59c0,0.01,0,0.01,0,0.02C14.31,19.91,14.3,19.93,14.29,19.95z M17.77,19.3
		c-0.01,0.03-0.02,0.05-0.04,0.06l-1.6,1.03c-0.02,0.01-0.03,0.02-0.05,0.02c-0.01,0-0.01,0-0.02,0c-0.03-0.01-0.05-0.02-0.06-0.04
		l-1.62-2.52c-0.01-0.02-0.02-0.03-0.02-0.05c0-0.01,0-0.01,0-0.02c0.01-0.03,0.02-0.05,0.04-0.06l1.6-1.03
		c0.02-0.01,0.03-0.02,0.05-0.02c0.01,0,0.01,0,0.02,0c0.03,0.01,0.05,0.02,0.06,0.04l0.34,0.53c0.01,0.02,0.02,0.03,0.02,0.05
		c0,0.01,0,0.01,0,0.02c-0.01,0.03-0.02,0.05-0.04,0.06l-0.95,0.61l0.2,0.31l0.86-0.55c0.02-0.01,0.03-0.02,0.05-0.02
		c0.03,0,0.06,0.02,0.08,0.05L17,18.28c0.01,0.02,0.02,0.03,0.02,0.05c0,0.01,0,0.01,0,0.02c-0.01,0.03-0.02,0.05-0.04,0.06
		l-0.86,0.55l0.2,0.32l0.96-0.61c0.02-0.01,0.03-0.02,0.05-0.02c0.01,0,0.01,0,0.02,0c0.03,0.01,0.05,0.02,0.06,0.04l0.34,0.53
		c0.01,0.02,0.02,0.03,0.02,0.05C17.77,19.29,17.77,19.3,17.77,19.3z M17.62,14.7c0,0,0.01,0,0.01,0c0.02,0,0.04,0.01,0.06,0.02
		l0.5,0.38c0.02,0.02,0.03,0.04,0.04,0.06c0,0,0,0.01,0,0.01c0,0.02-0.01,0.04-0.02,0.06l-0.68,0.91l0.3,0.22l0.61-0.82
		c0.02-0.02,0.04-0.03,0.06-0.04c0,0,0.01,0,0.01,0c0.02,0,0.04,0.01,0.06,0.02l0.47,0.35c0.02,0.02,0.03,0.04,0.04,0.06
		c0,0,0,0.01,0,0.01c0,0.02-0.01,0.04-0.02,0.06l-0.61,0.82l0.3,0.23l0.68-0.91c0.02-0.02,0.04-0.03,0.06-0.04c0,0,0.01,0,0.01,0
		c0.02,0,0.04,0.01,0.06,0.02l0.51,0.38c0.02,0.02,0.03,0.04,0.04,0.06c0,0,0,0.01,0,0.01c0,0.02-0.01,0.04-0.02,0.06l-1.14,1.53
		c-0.02,0.02-0.04,0.03-0.06,0.04c0,0-0.01,0-0.01,0c-0.02,0-0.04-0.01-0.06-0.02l-2.4-1.79c-0.02-0.02-0.03-0.04-0.04-0.06
		c0,0,0-0.01,0-0.01c0-0.02,0.01-0.04,0.02-0.06l1.14-1.52C17.57,14.72,17.6,14.7,17.62,14.7z"/>
</g>
</svg>
