<?xml version="1.0" encoding="utf-8"?>
<!-- Generator: Adobe Illustrator 28.0.0, SVG Export Plug-In . SVG Version: 6.00 Build 0)  -->
<svg version="1.1" id="레이어_1" xmlns="http://www.w3.org/2000/svg" xmlns:xlink="http://www.w3.org/1999/xlink" x="0px"
	 y="0px" viewBox="0 0 14.17 13.69" style="enable-background:new 0 0 14.17 13.69;" xml:space="preserve">
<style type="text/css">
	.st0{fill:#FFFFFF;}
</style>
<path class="st0" d="M13.38,0c-0.11,0-0.22,0.03-0.34,0.09L5.62,3.43C5.47,3.5,5.31,3.56,5.16,3.63C4.71,3.81,4.24,4.26,3.94,4.89
	l-3.83,7.6c-0.18,0.35-0.12,0.64,0.15,0.92l0,0c0.17,0.18,0.34,0.27,0.54,0.27c0.11,0,0.22-0.03,0.35-0.09l7.63-3.47
	c0.74-0.37,1.08-0.75,1.36-1.31l3.93-7.61c0.19-0.35,0.13-0.65-0.15-0.93C13.74,0.09,13.57,0,13.38,0z M7.93,7.8
	C7.52,8.18,7.03,8.37,6.6,8.37c-0.32,0-0.62-0.11-0.83-0.33C5.27,7.52,5.44,6.56,6.14,5.9c0.4-0.38,0.89-0.57,1.33-0.57
	c0.32,0,0.62,0.11,0.83,0.33C8.79,6.18,8.63,7.14,7.93,7.8z"/>
</svg>
