<?xml version="1.0" encoding="utf-8"?>
<!-- Generator: Adobe Illustrator 23.1.0, SVG Export Plug-In . SVG Version: 6.00 Build 0)  -->
<svg version="1.1" id="Layer_1" xmlns="http://www.w3.org/2000/svg" xmlns:xlink="http://www.w3.org/1999/xlink" x="0px" y="0px"
	 viewBox="0 0 100 100" style="enable-background:new 0 0 100 100;" xml:space="preserve">
<style type="text/css">
	.st0{fill:#FFFFFF;}
</style>
<g>
	<path class="st0" d="M19.2,26.4c0.2,0.4,0.5,0.8,1,1.2c0.4,0.4,0.8,0.6,1.2,0.8c0.4,0.2,0.7,0.3,1.1,0.3c0.1,0,0.2,0,0.3,0
		c0.4,0,0.9-0.2,1.2-0.4c0.4-0.2,0.7-0.4,1-0.8c0.3-0.4,0.5-0.7,0.7-1.1c0.2-0.4,0.2-0.8,0.2-1.3c0-0.2,0-0.4-0.1-0.6
		c0-0.3-0.1-0.4-0.2-0.7c-0.2-0.4-0.5-0.8-1-1.2c-0.4-0.4-0.8-0.6-1.2-0.8c-0.4-0.2-0.7-0.3-1.1-0.3c-0.1,0-0.2,0-0.3,0
		c-0.4,0-0.9,0.2-1.2,0.4c-0.4,0.2-0.7,0.4-1,0.8c-0.3,0.4-0.5,0.7-0.7,1.1c-0.1,0.4-0.2,0.8-0.2,1.3c0,0.2,0,0.4,0.1,0.7
		C19,26,19.1,26.1,19.2,26.4z"/>
	<path class="st0" d="M54.2,11.3c0.3,0,0.5,0,0.7-0.1c0.2,0,0.4-0.2,0.5-0.3c0.1-0.1,0.2-0.3,0.3-0.4c0-0.1,0.1-0.4,0.1-0.6v0
		c0-0.2,0-0.4-0.1-0.6c0-0.1-0.1-0.3-0.3-0.4c-0.1-0.1-0.3-0.2-0.5-0.3c-0.2-0.1-0.4-0.1-0.7-0.1h-1.4l0,2.8L54.2,11.3L54.2,11.3z"
		/>
	<path class="st0" d="M35,81.3c-0.3-0.3-0.6-0.5-1-0.7c-0.3-0.1-0.5-0.2-0.7-0.3c-0.3,0-0.5-0.1-0.8-0.1c-0.3,0-0.6,0-0.9,0.1
		c-0.2,0-0.4,0.1-0.6,0.2c-0.2,0.1-0.4,0.2-0.5,0.4c-0.4,0.3-0.6,0.7-0.9,1.2c-0.2,0.3-0.3,0.6-0.4,0.9c-0.1,0.3-0.1,0.6-0.1,0.8
		c0,0.3,0,0.6,0.2,0.9c0.2,0.4,0.4,0.7,0.6,1.1c0.3,0.3,0.6,0.5,1,0.7c0.3,0.1,0.5,0.2,0.7,0.3c0.3,0,0.5,0.1,0.8,0.1
		c0.3,0,0.6,0,0.8-0.1c0.2,0,0.4-0.1,0.6-0.2c0.2-0.1,0.4-0.2,0.5-0.4c0.3-0.3,0.6-0.7,0.9-1.2c0.2-0.3,0.3-0.7,0.4-0.9
		c0.1-0.3,0.1-0.6,0.1-0.8c0-0.3,0-0.6-0.1-0.9C35.5,81.9,35.3,81.5,35,81.3z"/>
	<path class="st0" d="M64.5,18.5c0.3,0.3,0.6,0.6,1.1,0.8c0.3,0.1,0.5,0.2,0.8,0.3c0.3,0,0.5,0.1,0.8,0.1c0.3,0,0.7,0,1-0.1
		c0.2,0,0.4-0.1,0.6-0.3c0.2-0.1,0.4-0.2,0.5-0.4c0.4-0.3,0.7-0.7,0.9-1.3c0.2-0.4,0.3-0.7,0.4-1c0.1-0.3,0.1-0.6,0.1-0.9
		c0-0.4,0-0.7-0.2-1c-0.2-0.4-0.4-0.8-0.7-1.1c-0.3-0.3-0.6-0.6-1.1-0.8c-0.3-0.1-0.5-0.2-0.8-0.3c-0.3,0-0.5-0.1-0.8-0.1
		c-0.3,0-0.7,0-1,0.1c-0.2,0-0.4,0.1-0.6,0.3c-0.2,0.1-0.4,0.2-0.5,0.4c-0.4,0.3-0.7,0.7-0.9,1.3c-0.2,0.4-0.3,0.7-0.4,1
		c-0.1,0.3-0.1,0.6-0.1,0.8c0,0.4,0,0.7,0.2,1C64,17.8,64.2,18.2,64.5,18.5z"/>
	<path class="st0" d="M63,35.4l-16,7.2c-0.3,0.1-0.7,0.3-1,0.4c-1,0.4-2,1.4-2.6,2.7L35,62.2c-0.4,0.7-0.3,1.4,0.3,2
		c0.4,0.4,0.7,0.6,1.1,0.6c0.2,0,0.5,0,0.7-0.2l16.5-7.5c1.6-0.8,2.3-1.6,3-2.8l8.5-16.4c0.4-0.7,0.3-1.4-0.3-2
		c-0.3-0.4-0.7-0.6-1.1-0.6C63.6,35.2,63.3,35.2,63,35.4z M52,52.1c-0.9,0.8-1.9,1.2-2.9,1.2c-0.7,0-1.3-0.2-1.8-0.7
		c-1.1-1.1-0.7-3.2,0.8-4.6c0.9-0.8,1.9-1.2,2.9-1.2c0.7,0,1.3,0.2,1.8,0.7C53.9,48.5,53.5,50.6,52,52.1z"/>
	<path class="st0" d="M73.7,60.6c0,0.1,0,0.1-0.1,0.2c0,0.1-0.1,0.2-0.1,0.3c0,0.1,0,0.1-0.1,0.2c0,0.1-0.1,0.2-0.1,0.3
		c0,0,0,0.1-0.1,0.2c0,0.1-0.1,0.2-0.2,0.3c0,0,0,0.1-0.1,0.1c-0.1,0.1-0.2,0.3-0.3,0.4c0,0,0,0.1-0.1,0.1c0,0.1-0.1,0.2-0.2,0.3
		c0,0-0.1,0.1-0.1,0.2c0,0.1-0.1,0.2-0.2,0.3c0,0-0.1,0.1-0.1,0.2c0,0.1-0.1,0.2-0.2,0.3c0,0-0.1,0.1-0.1,0.2c0,0.1-0.1,0.2-0.2,0.2
		c0,0-0.1,0.1-0.1,0.2c0,0.1-0.1,0.2-0.2,0.2c0,0-0.1,0.1-0.1,0.2c0,0.1-0.1,0.1-0.2,0.2c0,0-0.1,0.1-0.1,0.2c0,0.1-0.1,0.1-0.2,0.2
		c0,0-0.1,0.1-0.1,0.2c0,0.1-0.1,0.1-0.2,0.2c0,0-0.1,0.1-0.2,0.2c0,0.1-0.1,0.1-0.2,0.2c0,0-0.1,0.1-0.2,0.2c0,0.1-0.1,0.1-0.2,0.2
		c0,0-0.1,0.1-0.2,0.2c0,0.1-0.1,0.1-0.2,0.2c0,0-0.1,0.1-0.2,0.2c0,0.1-0.1,0.1-0.2,0.2c0,0-0.1,0.1-0.2,0.2c0,0-0.1,0.1-0.2,0.2
		s-0.1,0.1-0.2,0.2s-0.1,0.1-0.2,0.2c0,0-0.1,0.1-0.2,0.2c0,0-0.1,0.1-0.2,0.2c0,0-0.1,0.1-0.2,0.2c-0.1,0-0.1,0.1-0.2,0.2
		S67.3,69,67.3,69c-0.1,0-0.1,0.1-0.2,0.2c0,0-0.1,0.1-0.2,0.2c-0.1,0-0.1,0.1-0.2,0.2c0,0-0.1,0.1-0.2,0.2c-0.1,0-0.1,0.1-0.2,0.2
		c0,0-0.1,0.1-0.2,0.2c-0.1,0-0.1,0.1-0.2,0.2s-0.1,0.1-0.2,0.1c-0.1,0-0.1,0.1-0.2,0.2c-0.1,0-0.1,0.1-0.2,0.1
		c-0.1,0-0.1,0.1-0.2,0.2c-0.1,0-0.1,0.1-0.2,0.1c-0.1,0-0.1,0.1-0.2,0.1c-0.1,0-0.1,0.1-0.2,0.1c-0.1,0-0.1,0.1-0.2,0.1
		c-0.1,0-0.1,0.1-0.2,0.1c-0.1,0-0.1,0.1-0.2,0.1c-0.1,0-0.1,0.1-0.2,0.1c-0.1,0-0.1,0.1-0.2,0.1c-0.1,0-0.1,0.1-0.2,0.1
		c-0.1,0-0.2,0.1-0.2,0.1c-0.1,0-0.1,0.1-0.2,0.1c-0.1,0-0.2,0.1-0.2,0.1c-0.1,0-0.1,0.1-0.2,0.1c-0.1,0-0.2,0.1-0.2,0.1
		c-0.1,0-0.1,0.1-0.2,0.1c-0.1,0-0.2,0.1-0.3,0.1s-0.1,0.1-0.2,0.1c-0.1,0-0.2,0.1-0.3,0.1c-0.1,0-0.2,0.1-0.2,0.1
		c-0.1,0-0.2,0.1-0.3,0.1c-0.1,0-0.2,0.1-0.2,0.1c-0.1,0-0.2,0.1-0.3,0.1c-0.1,0-0.2,0-0.2,0.1c-0.1,0-0.2,0.1-0.3,0.1
		c-0.1,0-0.2,0-0.2,0.1c-0.1,0-0.2,0-0.3,0.1c-0.1,0-0.2,0-0.2,0.1c-0.1,0-0.2,0-0.3,0.1c-0.1,0-0.2,0-0.3,0.1c-0.1,0-0.2,0-0.3,0.1
		c-0.1,0-0.2,0-0.3,0.1c-0.1,0-0.2,0-0.3,0.1c-0.1,0-0.2,0-0.3,0.1c-0.1,0-0.2,0-0.3,0.1c-0.1,0-0.2,0-0.3,0.1s-0.2,0-0.3,0.1
		c-0.1,0-0.2,0-0.3,0s-0.2,0-0.3,0c-0.1,0-0.2,0-0.3,0c-0.1,0-0.2,0-0.3,0c-0.1,0-0.2,0-0.3,0c-0.1,0-0.2,0-0.3,0
		c-0.1,0-0.2,0-0.3,0c-0.1,0-0.2,0-0.3,0c-0.1,0-0.2,0-0.3,0c-0.1,0-0.2,0-0.3,0c-0.1,0-0.2,0-0.3,0c-0.1,0-0.2,0-0.3,0
		c-0.1,0-0.2,0-0.3,0c-0.1,0-0.2,0-0.3,0c-0.1,0-0.2,0-0.3,0c-0.1,0-0.2,0-0.3,0c-0.1,0-0.2,0-0.2,0c-0.1,0-0.2,0-0.4,0
		c-0.1,0-0.1,0-0.2,0c-0.1,0-0.3,0-0.4,0c0,0-0.1,0-0.2,0c-0.2,0-0.4,0-0.6,0c-5,0-9.5-1.4-13.7-3.9c-4.7-2.7-8.1-8-8.1-8
		c-2.6-4-4.1-8.8-4.1-13.8c0-7.1,2.9-13.6,7.5-18.3S42.9,24,50,24c5,0,9.7,1.5,13.7,3.9c0.1,0,1.1,0.7,1.1,0.7
		c3.8,2.6,6.9,7.1,6.9,7.1s0.1,0.2,0.1,0.2c0,0,0,0.1,0.1,0.1c0,0,0,0,0,0.1c0,0,0,0.1,0.1,0.1c0,0,0,0,0,0.1c0,0,0,0.1,0.1,0.1
		c0,0,0,0,0,0.1c0,0.1,0.1,0.1,0.1,0.2c0,0.1,0.1,0.1,0.1,0.2l0,0c0,0,0,0.1,0.1,0.2c0,0,0,0,0,0.1c0,0,0,0.1,0.1,0.1c0,0,0,0,0,0.1
		c0,0,0,0.1,0.1,0.1c0,0,0,0,0,0.1c0,0,0,0.1,0.1,0.1c0,0,0,0.1,0,0.1c0,0,0,0.1,0,0.1s0,0.1,0,0.1c0,0,0,0.1,0,0.1c0,0,0,0.1,0,0.1
		c0,0,0,0.1,0,0.1c0,0,0,0.1,0,0.1c0,0,0,0.1,0,0.1c0,0,0,0.1,0,0.1c0,0,0,0.1,0,0.1c0,0,0,0.1,0,0.1c0,0,0,0.1,0,0.1
		c0,0,0,0.1,0,0.1c0,0,0,0.1,0,0.1s0,0.1,0,0.1c0,0,0,0.1,0,0.1c0,0,0,0.1,0,0.1c0,0,0,0.1,0,0.1s0,0.1,0,0.1c0,0,0,0.1,0,0.1
		c0,0,0,0.1,0,0.1c0,0,0,0.1,0,0.1c0,0,0,0.1,0,0.1c0,0,0,0.1,0,0.1c0,0,0,0.1,0,0.1c0,0,0,0.1,0,0.1c0,0,0,0.1,0,0.1
		c0,0,0,0.1,0,0.2c0,0,0,0.1,0,0.1c0,0,0,0.1,0,0.2c0,0,0,0,0,0.1c0,0.1,0,0.1,0.1,0.2v0c0,0.1,0,0.2,0.1,0.3v0c0,0.1,0,0.1,0,0.2
		c0,0,0,0,0,0.1c0,0,0,0.1,0,0.2c0,0,0,0.1,0,0.1c0,0,0,0.1,0,0.2c0,0,0,0.1,0,0.1c0,0,0,0.1,0,0.1c0,0,0,0.1,0,0.1c0,0,0,0.1,0,0.1
		c0,0,0,0.1,0,0.1c0,0,0,0.1,0,0.1c0,0,0,0.1,0,0.1c0,0,0,0.1,0,0.1c0,0,0,0.1,0,0.1c0,0,0,0.1,0,0.1c0,0,0,0.1,0,0.1
		c0,0,0,0.1,0,0.1c0,0,0,0.1,0,0.1h24.5c0-0.2,0-0.4,0-0.5c0-0.1,0-0.1,0-0.2c0-0.2,0-0.4,0-0.5c0-0.1,0-0.2,0-0.3
		c0-0.1,0-0.3,0-0.4c0-0.1,0-0.2,0-0.3c0-0.1,0-0.3,0-0.4c0-0.1,0-0.2,0-0.3c0-0.1,0-0.3-0.1-0.4c0-0.1,0-0.2,0-0.3
		c0-0.1,0-0.3-0.1-0.4c0-0.1,0-0.2,0-0.3c0-0.1,0-0.3-0.1-0.4c0-0.1,0-0.2,0-0.3c0,0,0-0.1,0-0.2c0-0.1,0-0.2,0-0.3
		c0-0.1,0-0.3-0.1-0.4c0-0.1,0-0.2-0.1-0.3c0-0.1-0.1-0.3-0.1-0.4c0-0.1,0-0.2-0.1-0.3c0-0.2-0.1-0.3-0.1-0.5c0-0.1,0-0.1,0-0.2
		c0-0.2-0.1-0.4-0.2-0.7c-0.1-0.4-0.2-0.8-0.4-1.1c-0.2-0.6-0.4-1.1-0.6-1.7c-0.1-0.4-0.3-0.7-0.4-1.1c-0.4-0.9-0.7-1.9-1.1-2.8
		c-0.1-0.3-0.3-0.6-0.4-0.9c-0.1-0.3-0.2-0.5-0.4-0.7c-0.1-0.3-0.3-0.6-0.4-0.8c-0.1-0.2-0.2-0.4-0.3-0.5c-2.2-4.3-5.2-8.2-8.8-11.9
		C78.2,7.2,69.2,2.6,59.8,0.8c-0.4-0.1-0.8-0.1-1.2-0.2c-0.6,0-1.2-0.1-1.8-0.2c-0.2,0-0.4,0-0.6-0.1c-0.4,0-0.8-0.1-1.2-0.1
		c-0.4,0-0.8-0.1-1.2-0.1C52.6,0,51.4,0,50.2,0c-0.8,0-1.6,0-2.4,0c-12,0.6-23.8,5.4-33,14.6c-4,4-7.1,8.4-9.5,13.2
		c-0.2,0.4-0.4,0.7-0.5,1.1c-0.4,0.7-0.7,1.5-1,2.2c-0.1,0.4-0.3,0.7-0.4,1.1c-0.3,0.7-0.6,1.5-0.8,2.3c-0.1,0.4-0.3,0.7-0.4,1.1
		c-0.1,0.4-0.2,0.8-0.4,1.1c-0.1,0.4-0.2,0.7-0.3,1.1c-1,4-1.5,8-1.5,12c0,2.8,0.2,5.6,0.7,8.4C1,58.8,1,59.2,1.1,59.6
		c0.1,0.6,0.2,1.2,0.4,1.8c0,0.2,0.1,0.4,0.1,0.6c0.1,0.4,0.2,0.8,0.3,1.2c0.1,0.4,0.2,0.8,0.3,1.1c0.1,0.4,0.2,0.8,0.4,1.1
		c0.3,0.7,0.5,1.5,0.8,2.3c0.1,0.4,0.3,0.7,0.4,1.1c0.3,0.7,0.6,1.5,1,2.2c0.2,0.4,0.4,0.7,0.5,1.1c2.3,4.8,5.5,9.2,9.5,13.2
		c4,4,8.4,7.1,13.2,9.5c1.3,0.7,2.7,1.2,4.1,1.8c0.5,0.2,0.9,0.4,1.4,0.5c0.1,0,0.2,0.1,0.4,0.1c5.3,1.8,10.8,2.7,16.4,2.7
		c3.8,0,7.6-0.4,11.3-1.3c0.6-0.1,1.2-0.3,1.8-0.4c1-0.3,1.9-0.6,2.9-0.9c0.4-0.1,0.7-0.3,1.1-0.4c0.2-0.1,0.4-0.1,0.6-0.2
		c3.8-1.5,7.5-3.4,11-5.8c0.3-0.2,0.5-0.4,0.7-0.5c0.4-0.3,0.8-0.6,1.2-0.9c0.3-0.2,0.5-0.4,0.8-0.6c0,0,0.1-0.1,0.2-0.1
		c1.3-1.1,2.5-2.2,3.7-3.4c2.3-2.3,4.3-4.8,6-7.3c0.4-0.5,0.7-1.1,1-1.5c0.2-0.4,0.4-0.7,0.7-1.1c0.3-0.5,0.6-1.1,0.9-1.6
		c0.2-0.4,0.4-0.7,0.6-1.1c0.2-0.4,0.4-0.7,0.5-1.1c0.2-0.4,0.4-0.7,0.5-1.1c0.4-0.9,0.8-1.9,1.1-2.8c0.1-0.4,0.3-0.7,0.4-1.1
		c0.2-0.6,0.4-1.1,0.6-1.7c0.1-0.4,0.2-0.7,0.3-1c0-0.1,0-0.2,0.1-0.3c0-0.2,0.1-0.5,0.2-0.7c0,0,0-0.1,0-0.1c0-0.2,0.1-0.4,0.2-0.7
		c0,0,0-0.1,0-0.1c0-0.2,0.1-0.4,0.2-0.7c0,0,0,0,0-0.1c0-0.2,0.1-0.4,0.1-0.7v0v0H73.8C73.8,60.4,73.7,60.5,73.7,60.6z M89.9,30.5
		c0,0,0.1,0,0.2,0c0.1,0,0.2,0.1,0.2,0.3l3,7.8c0,0,0,0.1,0,0.1c0,0,0,0.1,0,0.2c0,0.1-0.1,0.2-0.3,0.2l-2.6,1c0,0-0.1,0-0.1,0
		c0,0-0.1,0-0.2,0c-0.1,0-0.2-0.1-0.2-0.3l-1.8-4.7l-1.5,0.6l1.6,4.2c0,0,0,0.1,0,0.1s0,0.1,0,0.2c0,0.1-0.1,0.2-0.3,0.2l-2.4,1
		c0,0-0.1,0-0.1,0s-0.1,0-0.2,0c-0.1,0-0.2-0.1-0.2-0.3L83.3,37l-1.5,0.6l1.8,4.7c0,0,0,0.1,0,0.1c0,0,0,0.1,0,0.2
		c0,0.1-0.1,0.2-0.3,0.2l-2.6,1c0,0-0.1,0-0.1,0c0,0-0.1,0-0.2,0c-0.1,0-0.2-0.1-0.2-0.3l-3-7.8c0,0,0-0.1,0-0.1c0,0,0-0.1,0-0.2
		c0-0.1,0.1-0.2,0.3-0.2L89.9,30.5C89.8,30.5,89.8,30.5,89.9,30.5z M75.5,25.7c0,0.1-0.1,0.2-0.1,0.4c0,0.1,0,0.1-0.1,0.2
		c0,0,0,0.1,0,0.1c0,0.1-0.1,0.3-0.1,0.4c0,0.1,0,0.1,0,0.2c0,0,0,0.1,0,0.2c0,0.1,0,0.3,0.1,0.4c0.1,0.3,0.3,0.6,0.5,0.9
		c0,0,0,0,0,0c0.1,0.2,0.3,0.4,0.4,0.4c0.1,0,0.1,0.1,0.2,0.1c0.1,0,0.1,0.1,0.2,0.1c0.1,0,0.1,0,0.2,0c0,0,0,0,0.1,0
		c0,0,0.1,0,0.1,0s0.1,0,0.2,0c0,0,0.1,0,0.2-0.1c0,0,0.1-0.1,0.1-0.1c0,0,0-0.1,0.1-0.1c0,0,0-0.1,0-0.1c0,0,0-0.1,0-0.2
		c0,0,0-0.1,0-0.1c0-0.1,0-0.2,0-0.3c0-0.1-0.1-0.3-0.2-0.5l-0.8-1.6c-0.3-0.5-0.4-1.1-0.5-1.6c0-0.2,0-0.4,0-0.7
		c0-0.3,0-0.6,0.1-0.9c0.1-0.5,0.3-0.9,0.5-1.3c0.3-0.4,0.6-0.7,1-1.1c0,0,0,0,0.1,0c0.3-0.2,0.5-0.4,0.8-0.5
		c0.3-0.1,0.6-0.2,0.9-0.3c0.3,0,0.5-0.1,0.8-0.1c0,0,0.1,0,0.1,0c0.3,0,0.6,0,0.9,0.1c0.6,0.1,1.2,0.4,1.7,0.7
		c0.5,0.4,1,0.8,1.4,1.3c0,0,0,0,0.1,0.1c0.5,0.7,0.8,1.3,1,2c0.1,0.3,0.2,0.7,0.2,1c0,0.1,0,0.2,0,0.4c0,0.2,0,0.4,0,0.5
		c-0.1,0.5-0.2,1-0.4,1.4c-0.2,0.4-0.5,0.8-0.8,1.1l0,0c0,0-0.1,0-0.2,0.1h0c0,0-0.1,0-0.1,0c0,0-0.1,0-0.1,0l-1.7-1.8l-0.1-0.1l0,0
		c0,0-0.1-0.1-0.1-0.2c0,0,0-0.1,0-0.1c0-0.1,0.1-0.4,0.2-0.5c0-0.1,0-0.1,0-0.2c0,0,0,0,0-0.1s0,0,0,0s0-0.1,0-0.2c0,0,0,0,0-0.1
		c0-0.1,0-0.2,0-0.3c0-0.1-0.1-0.2-0.1-0.4c0-0.1-0.1-0.3-0.2-0.4c0,0,0,0,0,0c-0.1-0.2-0.3-0.3-0.4-0.4c-0.1,0-0.1-0.1-0.2-0.1
		c-0.1,0-0.1,0-0.2-0.1c-0.1,0-0.2,0-0.2,0c0,0,0,0,0,0c0,0-0.1,0-0.1,0s-0.1,0-0.2,0c0,0-0.1,0-0.2,0.1c0,0-0.1,0.1-0.1,0.1
		c0,0-0.1,0.1-0.1,0.1c0,0,0,0.1,0,0.1c0,0,0,0.1,0,0.2v0c0,0.1,0,0.1,0,0.2v0c0,0.1,0.1,0.3,0.2,0.4l0.7,1.6
		c0.3,0.6,0.4,1.1,0.5,1.7c0,0.3,0,0.5,0,0.7c0,0.3,0,0.6-0.1,0.9c-0.1,0.5-0.3,1-0.5,1.4c-0.3,0.4-0.6,0.7-1,1.1l0,0
		c-0.2,0.2-0.5,0.3-0.7,0.4c-0.3,0.1-0.5,0.2-0.8,0.3c-0.3,0-0.6,0.1-0.8,0.1h-0.2c-0.3,0-0.6,0-0.9-0.1c-0.6-0.1-1.2-0.4-1.7-0.7
		c-0.5-0.4-1-0.8-1.5-1.5c0,0,0-0.1-0.1-0.1c-0.5-0.7-0.9-1.4-1.1-2.1c-0.1-0.4-0.2-0.7-0.2-1c0-0.1,0-0.3,0-0.4c0-0.2,0-0.4,0-0.6
		c0.1-0.7,0.3-1.2,0.5-1.8s0.5-0.9,1-1.3h0c0,0,0.1,0,0.2-0.1h0c0,0,0.1,0,0.1,0c0,0,0.1,0,0.1,0l1.6,2.2
		C75.5,25.6,75.5,25.7,75.5,25.7z M59.9,14.6c0.1-0.6,0.4-1.1,0.7-1.7c0.5-1,1.1-1.8,1.8-2.4C63.1,9.8,64,9.3,64.9,9
		c0.7-0.2,1.5-0.4,2.2-0.4c0.6,0,1.1,0.1,1.7,0.2c0.6,0.1,1.1,0.4,1.7,0.6c0.9,0.4,1.7,1,2.3,1.7c0.6,0.7,1.1,1.5,1.4,2.4
		c0.3,0.7,0.4,1.5,0.4,2.3c0,0.6-0.1,1.1-0.2,1.7c-0.1,0.6-0.4,1.1-0.7,1.7c-0.5,1-1.1,1.8-1.8,2.4c-0.7,0.6-1.5,1.1-2.5,1.4
		c-0.7,0.2-1.5,0.4-2.2,0.4c-0.6,0-1.1-0.1-1.7-0.2c-0.6-0.1-1.1-0.4-1.7-0.6c-0.9-0.4-1.7-1-2.3-1.7c-0.7-0.7-1.1-1.5-1.5-2.4
		c-0.3-0.7-0.4-1.5-0.4-2.3C59.7,15.7,59.8,15.1,59.9,14.6z M48.9,5.6c0-0.1,0-0.2,0.1-0.3c0.1-0.1,0.2-0.1,0.3-0.1l5,0.1
		c0.7,0,1.4,0.1,2,0.4c0.6,0.2,1.1,0.6,1.6,1c0.4,0.4,0.8,0.9,1,1.5c0.2,0.5,0.4,1.1,0.4,1.8c0,0,0,0,0,0.1c0,0.7-0.1,1.3-0.4,1.9
		c-0.3,0.6-0.6,1.1-1.1,1.5c-0.4,0.4-1,0.7-1.5,0.9c-0.7,0.2-1.3,0.3-2,0.3c0,0-0.1,0-0.1,0l-1.6,0l0,4.3c0,0.1,0,0.2-0.1,0.3
		c-0.1,0.1-0.2,0.1-0.3,0.1l-3,0c-0.1,0-0.2,0-0.3-0.1c-0.1-0.1-0.1-0.2-0.1-0.3L48.9,5.6z M27.5,11.3c0-0.1,0.1-0.2,0.3-0.2
		l3.6-1.3c0,0,0,0,0.1,0c0.1,0,0.2,0,0.3,0.1l5.8,6.3l0.1-8.5c0-0.2,0.1-0.4,0.3-0.4l3.8-1.4c0,0,0.1,0,0.1,0c0,0,0.1,0,0.2,0
		c0.1,0,0.2,0.1,0.2,0.3l4.6,12.4c0,0,0,0.1,0,0.1c0,0,0,0.1,0,0.2c0,0.1-0.1,0.2-0.3,0.2l-2.6,1c0,0-0.1,0-0.1,0c0,0-0.1,0-0.2,0
		c-0.1,0-0.2-0.2-0.3-0.3l-2.2-6L41,20.9c0,0.2-0.1,0.4-0.3,0.4l-2.2,0.8c0,0-0.1,0-0.1,0c-0.1,0-0.2,0-0.3-0.1l-4.8-5.2l2.2,6
		c0,0,0,0.1,0,0.1c0,0,0,0.1,0,0.2c0,0.1-0.1,0.2-0.3,0.2l-2.6,1c0,0-0.1,0-0.1,0s-0.1,0-0.2,0c-0.1-0.1-0.2-0.2-0.3-0.3l-4.6-12.4
		c0,0,0-0.1,0-0.1C27.4,11.4,27.4,11.4,27.5,11.3z M15.1,25.2c0-0.9,0.2-1.8,0.5-2.6c0.3-0.8,0.8-1.6,1.5-2.3
		c0.7-0.7,1.4-1.3,2.2-1.8c0.8-0.4,1.7-0.7,2.7-0.7c0.2,0,0.4,0,0.5,0c0.9,0,1.7,0.2,2.5,0.5c0.8,0.4,1.6,0.8,2.3,1.5
		c0.8,0.8,1.4,1.6,1.9,2.4s0.7,1.8,0.7,2.8c0,0.1,0,0.2,0,0.3c0,0.9-0.2,1.8-0.5,2.6c-0.3,0.8-0.8,1.5-1.5,2.3
		c-0.7,0.7-1.4,1.3-2.2,1.7c-0.8,0.4-1.7,0.7-2.7,0.7c-0.2,0-0.4,0-0.6,0c-0.9,0-1.7-0.2-2.5-0.5c-0.8-0.3-1.5-0.8-2.2-1.5
		c-0.8-0.7-1.4-1.5-1.9-2.3c-0.4-0.9-0.7-1.8-0.7-2.8C15.1,25.4,15.1,25.3,15.1,25.2z M11.3,45.9c-0.5-0.2-1-0.5-1.4-0.7
		c-0.4-0.3-0.8-0.6-1.1-0.9c-0.3-0.4-0.6-0.7-0.9-1.1c-0.3-0.4-0.5-0.8-0.7-1.3c-0.3-0.8-0.5-1.7-0.5-2.6c0,0,0-0.1,0-0.1
		c0-0.9,0.2-1.9,0.6-2.8c0,0,0-0.1,0-0.1c0.2-0.5,0.4-0.9,0.7-1.3c0.3-0.4,0.6-0.8,0.9-1.1c0.7-0.7,1.5-1.2,2.4-1.6
		c0.4-0.2,0.9-0.4,1.4-0.4c0.4-0.1,0.9-0.1,1.3-0.1c0,0,0,0,0.1,0c0.1,0,0.2,0,0.3,0c0,0,0,0,0.1,0c0,0,0.1,0,0.1,0
		c0.3,0,0.5,0.4,0.4,0.7l-0.4,1.1l-0.7,1.9c0,0.1-0.2,0.2-0.3,0.3c-0.1,0-0.1,0-0.2,0c-0.2,0-0.4,0.1-0.7,0.2
		c-0.2,0.1-0.4,0.2-0.6,0.4c-0.2,0.1-0.4,0.3-0.5,0.4l-0.4,0.3h0c0,0-0.1,0.1-0.1,0.2c-0.1,0.2-0.2,0.4-0.3,0.6c0,0,0,0,0,0.1
		c-0.1,0.2-0.2,0.4-0.2,0.6c0,0.2-0.1,0.4-0.1,0.7c0,0,0,0,0,0.1c0,0.4,0.1,0.8,0.2,1.2c0.1,0.2,0.2,0.4,0.3,0.6
		c0.1,0.2,0.3,0.4,0.4,0.5c0.2,0.2,0.4,0.4,0.6,0.5c0.2,0.1,0.5,0.3,0.8,0.4c0,0,0.1,0,0.1,0c0.3,0.1,0.6,0.2,0.8,0.3
		c0.3,0,0.5,0.1,0.7,0.1c0,0,0,0,0.1,0c0.2,0,0.4,0,0.6,0s0.4-0.1,0.6-0.2c0.2-0.1,0.4-0.2,0.6-0.4c0.2-0.1,0.4-0.3,0.5-0.4
		c0.2-0.2,0.3-0.4,0.4-0.5c0.1-0.2,0.2-0.4,0.3-0.6c0,0,0,0,0-0.1c0.1-0.2,0.2-0.4,0.2-0.7c0-0.2,0.1-0.4,0.1-0.7c0,0,0,0,0-0.1
		c0-0.4-0.1-0.8-0.2-1.2c-0.1-0.2-0.2-0.4-0.3-0.6c-0.1,0-0.2-0.1-0.2-0.1c-0.1-0.1-0.1-0.3-0.1-0.4l1.2-2.9
		c0.1-0.3,0.5-0.4,0.8-0.2c0.1,0,0.1,0.1,0.2,0.1c0,0,0,0,0.1,0c0.1,0,0.2,0.1,0.2,0.2c0.3,0.4,0.6,0.7,0.9,1.1
		c0.3,0.4,0.5,0.8,0.7,1.3c0.3,0.9,0.5,1.7,0.5,2.6c0,0,0,0.1,0,0.1c0,0.9-0.2,1.9-0.6,2.8c0,0,0,0.1,0,0.1
		c-0.2,0.5-0.4,0.9-0.7,1.3c-0.3,0.4-0.6,0.8-0.9,1.1c-0.7,0.7-1.5,1.2-2.4,1.6c-0.4,0.2-0.9,0.4-1.4,0.4c-0.4,0.1-0.9,0.1-1.3,0.1
		c0,0,0,0-0.1,0c-0.5,0-1,0-1.5-0.2c-0.5,0-1-0.2-1.5-0.4C11.4,45.9,11.4,45.9,11.3,45.9z M23.8,74c0,0,0-0.1,0-0.1
		c0-0.2,0.1-0.4,0.1-0.7s0-0.4,0-0.7c0-0.2-0.1-0.4-0.2-0.6l-0.4-0.7c-0.1-0.1-0.2-0.3-0.4-0.4l0,0c-0.2-0.2-0.4-0.3-0.5-0.4
		c-0.2-0.1-0.4-0.2-0.5-0.3c-0.4-0.2-0.8-0.3-1.3-0.3c0,0,0,0-0.1,0c-0.2,0-0.4,0-0.6,0c-0.2,0-0.4,0.1-0.7,0.2
		c-0.2,0.1-0.4,0.2-0.7,0.4c-0.2,0.2-0.4,0.4-0.7,0.6c0,0,0,0-0.1,0.1c-0.2,0.2-0.4,0.4-0.5,0.7c-0.1,0.2-0.3,0.4-0.4,0.6
		c-0.1,0.2-0.2,0.4-0.2,0.7c0,0.2-0.1,0.4-0.1,0.6v0c0,0.2,0,0.4,0.1,0.7c0,0.2,0.1,0.4,0.2,0.6c0.1,0.2,0.2,0.4,0.3,0.6
		c0.1,0.2,0.3,0.4,0.4,0.5l0,0c0.2,0.2,0.3,0.3,0.5,0.4c0.2,0.1,0.4,0.2,0.5,0.3c0.4,0.2,0.8,0.3,1.2,0.3c0,0,0,0,0.1,0
		c0.2,0,0.4,0,0.6,0c0,0,0.1,0,0.2,0c0.2,0,0.4,0,0.5,0.1l2.1,2c0.2,0.2,0.2,0.4,0,0.6c0,0-0.1,0.1-0.2,0.1c-0.1,0-0.2,0.1-0.3,0.1
		l0,0c-0.1,0-0.2,0.1-0.3,0.1c-0.4,0.2-0.9,0.4-1.4,0.4c-0.5,0.1-0.9,0.1-1.4,0.1c-0.9,0-1.8-0.2-2.6-0.5c-0.8-0.3-1.5-0.8-2.2-1.5
		c0,0-0.1-0.1-0.1-0.1c-0.4-0.4-0.6-0.7-0.9-1.1s-0.4-0.8-0.6-1.2c-0.3-0.8-0.5-1.6-0.5-2.6c0,0,0-0.1,0-0.2c0-0.5,0-0.9,0.2-1.4
		c0.1-0.4,0.3-0.9,0.4-1.3c0.2-0.4,0.4-0.8,0.7-1.2c0.3-0.4,0.6-0.8,1-1.2c0,0,0.1-0.1,0.1-0.1c0.4-0.4,0.8-0.7,1.2-1
		c0.4-0.3,0.8-0.5,1.3-0.7c0.4-0.2,0.9-0.4,1.4-0.4c0.4-0.1,0.9-0.1,1.4-0.1c0.9,0,1.8,0.2,2.6,0.5c0.8,0.4,1.5,0.8,2.2,1.5
		c0,0,0.1,0.1,0.1,0.1c0.4,0.4,0.6,0.7,0.9,1.1c0.3,0.4,0.4,0.8,0.6,1.2c0.3,0.8,0.4,1.6,0.4,2.5c0,0,0,0.1,0,0.2
		c0,0.5-0.1,0.9-0.2,1.4c-0.1,0.4-0.3,0.9-0.4,1.3c0,0.1-0.1,0.2-0.1,0.3c0,0,0,0,0,0.1c0,0,0,0.1-0.1,0.2c0,0,0,0,0,0
		c-0.1,0.3-0.4,0.3-0.6,0.1l-2.1-2C23.8,74.4,23.7,74.2,23.8,74z M39.6,85.1c-0.2,0.6-0.4,1.2-0.7,1.8c-0.5,0.9-1.1,1.7-1.9,2.3
		c-0.7,0.6-1.6,1.1-2.5,1.3c-0.7,0.2-1.4,0.3-2,0.3c-0.6,0-1.2-0.1-1.8-0.2c-0.6-0.1-1.1-0.4-1.7-0.7c-0.9-0.5-1.6-1.1-2.2-1.8
		c-0.6-0.7-1.1-1.5-1.4-2.5c-0.2-0.7-0.4-1.4-0.4-2.2c0-0.6,0.1-1.2,0.2-1.8c0.2-0.6,0.4-1.2,0.7-1.8c0.5-1,1.1-1.7,1.9-2.3
		c0.7-0.6,1.6-1.1,2.5-1.3c0.7-0.2,1.4-0.3,2-0.3c0.6,0,1.2,0.1,1.8,0.2c0.6,0.2,1.2,0.4,1.7,0.7c0.9,0.5,1.6,1.1,2.2,1.8
		c0.6,0.7,1.1,1.5,1.4,2.5c0.3,0.7,0.4,1.4,0.4,2.1C39.8,84,39.7,84.6,39.6,85.1z M51.3,81.7l-0.4,2.8c0,0.1-0.1,0.2-0.2,0.3
		c-0.1,0-0.2,0.1-0.3,0.1h0l-5.1-0.7L45,86.1l4.5,0.6c0.1,0,0.2,0.1,0.3,0.2c0,0.1,0.1,0.2,0.1,0.3v0l-0.4,2.6
		c0,0.1-0.1,0.2-0.2,0.3c-0.1,0-0.2,0.1-0.3,0.1h0l-4.4-0.6L44.1,94c0,0.1-0.1,0.2-0.2,0.3c-0.1,0-0.2,0.1-0.3,0.1h0l-3-0.4
		c-0.1,0-0.2-0.1-0.3-0.2c0-0.1-0.1-0.2-0.1-0.3v0L42,80.5c0-0.1,0.1-0.2,0.2-0.3c0.1,0,0.2-0.1,0.3-0.1h0l8.5,1.1
		c0.1,0,0.2,0.1,0.3,0.2C51.3,81.4,51.3,81.5,51.3,81.7C51.3,81.7,51.3,81.7,51.3,81.7z M63.1,87.7c0,0,0,0.1,0,0.2
		c0,0.1-0.2,0.2-0.3,0.2l-4.3,1l1,4.4c0,0,0,0,0,0.1c0,0.1,0,0.2-0.1,0.2c0,0.1-0.2,0.2-0.3,0.2l-2.9,0.7c0,0,0,0-0.1,0
		c-0.1,0-0.2,0-0.2-0.1c-0.1,0-0.2-0.2-0.2-0.3l-2.9-12.9c0,0,0,0,0-0.1c0-0.1,0-0.2,0.1-0.2c0-0.1,0.2-0.2,0.3-0.2l8.3-1.9
		c0,0,0,0,0.1,0c0.1,0,0.2,0,0.2,0.1c0.1,0,0.2,0.2,0.2,0.3l0.6,2.7c0,0,0,0,0,0.1c0,0.1,0,0.2-0.1,0.2c0,0.1-0.2,0.2-0.3,0.2
		l-5,1.1l0.4,1.9l4.4-1c0,0,0,0,0.1,0c0.1,0,0.2,0,0.2,0.1c0.1,0,0.2,0.2,0.2,0.3L63.1,87.7C63.1,87.7,63.1,87.7,63.1,87.7z
		 M78.4,85.1c0,0.1-0.1,0.2-0.2,0.3l-7.1,4.5c-0.1,0-0.1,0.1-0.2,0.1c0,0,0,0-0.1,0c-0.1,0-0.2-0.1-0.3-0.2l-7.1-11.1
		c0-0.1-0.1-0.1-0.1-0.2c0,0,0,0,0-0.1c0-0.1,0.1-0.2,0.2-0.3l7.1-4.5c0.1,0,0.1-0.1,0.2-0.1c0,0,0,0,0.1,0c0.1,0,0.2,0.1,0.3,0.2
		l1.5,2.3c0,0.1,0.1,0.1,0.1,0.2c0,0,0,0,0,0.1c0,0.1-0.1,0.2-0.2,0.3l-4.2,2.7l0.9,1.4l3.8-2.4c0.1,0,0.1-0.1,0.2-0.1
		c0.1,0,0.3,0.1,0.4,0.2l1.4,2.2c0,0.1,0.1,0.1,0.1,0.2c0,0,0,0,0,0.1c0,0.1-0.1,0.2-0.2,0.3l-3.8,2.4L72,85l4.2-2.7
		c0.1,0,0.1-0.1,0.2-0.1c0,0,0,0,0.1,0c0.1,0,0.2,0.1,0.3,0.2l1.5,2.3c0,0.1,0.1,0.1,0.1,0.2C78.4,85.1,78.4,85.1,78.4,85.1z
		 M77.8,64.8L77.8,64.8c0.1,0,0.2,0,0.3,0.1l2.2,1.7c0.1,0.1,0.1,0.2,0.2,0.3v0c0,0.1,0,0.2-0.1,0.3l-3,4l1.3,1l2.7-3.6
		c0.1-0.1,0.2-0.1,0.3-0.2h0c0.1,0,0.2,0,0.3,0.1L84,70c0.1,0.1,0.1,0.2,0.2,0.3v0c0,0.1,0,0.2-0.1,0.3l-2.7,3.6l1.3,1l3-4
		c0.1-0.1,0.2-0.1,0.3-0.2h0c0.1,0,0.2,0,0.3,0.1l2.2,1.7c0.1,0.1,0.1,0.2,0.2,0.3v0c0,0.1,0,0.2-0.1,0.3l-5,6.7
		c-0.1,0.1-0.2,0.1-0.3,0.2h0c-0.1,0-0.2,0-0.3-0.1l-10.6-7.9c-0.1-0.1-0.1-0.2-0.2-0.3v0c0-0.1,0-0.2,0.1-0.3l5-6.7
		C77.5,64.9,77.7,64.8,77.8,64.8z"/>
</g>
</svg>
