<?xml version="1.0" encoding="utf-8"?>
<!-- Generator: Adobe Illustrator 25.0.0, SVG Export Plug-In . SVG Version: 6.00 Build 0)  -->
<svg version="1.1" id="레이어_1" xmlns="http://www.w3.org/2000/svg" xmlns:xlink="http://www.w3.org/1999/xlink" x="0px"
	 y="0px" viewBox="0 0 53 75.41" style="enable-background:new 0 0 53 75.41;" xml:space="preserve">
<style type="text/css">
	.st0{fill:#403D3C;}
</style>
<path class="st0" d="M18.56,15.11c2.45-0.92,5.09-1.42,7.85-1.42c2.77,0,5.41,0.5,7.86,1.42l9.09-13.1l0.06-0.12h-0.08
	C43.15,0.81,42.19,0,41.07,0H11.73C10.6,0,9.66,0.81,9.45,1.89H9.41l0.03,0.07L18.56,15.11z"/>
<path class="st0" d="M52.84,55.07c-1.68,1.11-12.26,2.53-26.33,2.53c-14.09,0-25.07-1.8-26.36-2.41C0,56.09,0,56.53,0,57.47
	c0,9.91,8.02,17.94,17.94,17.94h17.13c9.9,0,17.93-8.02,17.93-17.94C53,56.53,52.98,55.98,52.84,55.07"/>
<path class="st0" d="M25.72,54.82v-0.04c0.41,0,0.88-0.01,1.39-0.01v0.04c13.76-0.04,24.9-1.31,25.59-2.9
	c0.01-0.05,0.04-0.11,0.04-0.16c0-0.09-0.06-0.18-0.11-0.28c-0.37-0.48-1.7-0.92-3.75-1.32V39.4c0-12.38-10.09-22.45-22.46-22.45
	c-12.38,0-22.45,10.08-22.45,22.45v10.76c-2.05,0.39-3.37,0.83-3.74,1.32c-0.07,0.09-0.11,0.19-0.11,0.28
	c0,0.05,0.01,0.11,0.03,0.16C0.83,53.51,11.96,54.77,25.72,54.82 M24.94,20.19c0.49-0.04,0.98-0.08,1.47-0.08
	c0.51,0,0.99,0.04,1.49,0.08v4.53c0,0.82-0.66,1.47-1.49,1.47c-0.81,0-1.47-0.66-1.47-1.47V20.19z M7.12,39.4
	c0-9.32,6.65-17.11,15.45-18.9v4.22c0,2.12,1.72,3.85,3.84,3.85c2.12,0,3.85-1.73,3.85-3.85V20.5c8.8,1.79,15.43,9.59,15.43,18.9
	v10.27c-4.81-0.6-11.66-0.98-19.29-0.98c-7.63,0-14.48,0.38-19.29,0.98V39.4z"/>
<path class="st0" d="M32.23,37.65c0-3.28-2.68-5.95-5.94-5.95c-3.31,0-5.96,2.67-5.96,5.95c0,3.27,2.65,5.95,5.96,5.95
	C29.55,43.6,32.23,40.92,32.23,37.65 M26.29,40.3c-1.47,0-2.65-1.18-2.65-2.65c0-1.46,1.18-2.65,2.65-2.65
	c1.45,0,2.63,1.2,2.63,2.65C28.92,39.12,27.74,40.3,26.29,40.3"/>
</svg>
