<?xml version="1.0" encoding="utf-8"?>
<!-- Generator: Adobe Illustrator 28.0.0, SVG Export Plug-In . SVG Version: 6.00 Build 0)  -->
<svg version="1.1" id="레이어_1" xmlns="http://www.w3.org/2000/svg" xmlns:xlink="http://www.w3.org/1999/xlink" x="0px"
	 y="0px" viewBox="0 0 14.17 14.17" style="enable-background:new 0 0 14.17 14.17;" xml:space="preserve">
<style type="text/css">
	.st0{fill:#FFFFFF;}
</style>
<g>
	<path d="M5.29,0.37C4.55,0.68,3.94,1.16,3.46,1.8C2.9,2.53,2.59,3.35,2.53,4.26c-0.03,0.42,0,0.83,0.09,1.24
		c0.26,1.16,0.86,2.08,1.83,2.77c0.13,0.09,0.27,0.18,0.4,0.26C4.82,8.55,4.8,8.56,4.78,8.57c-0.8,0.3-1.5,0.74-2.12,1.32
		c-0.28,0.26-0.53,0.53-0.75,0.84c-0.38,0.5-0.67,1.04-0.9,1.62c-0.15,0.39-0.25,0.79-0.33,1.2c-0.04,0.2,0,0.37,0.15,0.51
		c0.14,0.12,0.3,0.15,0.48,0.09c0.18-0.06,0.28-0.19,0.32-0.37c0.03-0.15,0.05-0.3,0.09-0.45c0.29-1.17,0.91-2.15,1.83-2.92
		c0.44-0.37,0.94-0.67,1.48-0.88c0.53-0.21,1.07-0.35,1.64-0.37c0.3-0.01,0.61-0.02,0.92,0c0.37,0.02,0.73,0.1,1.08,0.21
		c0.83,0.25,1.55,0.67,2.19,1.26c0.53,0.49,0.94,1.07,1.25,1.72c0.21,0.45,0.35,0.91,0.43,1.4c0.05,0.32,0.32,0.47,0.56,0.43
		c0.3-0.05,0.47-0.31,0.41-0.6c-0.03-0.12-0.06-0.24-0.08-0.36c-0.17-0.75-0.46-1.44-0.88-2.08c-0.37-0.57-0.81-1.06-1.33-1.49
		c-0.4-0.33-0.84-0.61-1.31-0.84C9.71,8.7,9.52,8.62,9.32,8.53c0.01-0.01,0.01-0.01,0.02-0.02c0.53-0.3,0.98-0.69,1.35-1.18
		c0.57-0.74,0.88-1.58,0.94-2.5c0.03-0.4,0-0.79-0.08-1.18c-0.17-0.84-0.55-1.57-1.13-2.2c-0.4-0.43-0.87-0.77-1.4-1.02
		C8.6,0.24,8.16,0.1,7.69,0.04C7.56,0.03,7.42,0.01,7.28,0C7.15,0,7.01,0,6.87,0C6.73,0.01,6.6,0.03,6.47,0.04
		C6.06,0.09,5.66,0.2,5.29,0.37z M7.09,0.98c1.95-0.01,3.59,1.59,3.58,3.6c-0.01,1.96-1.62,3.62-3.7,3.56
		C5.09,8.09,3.5,6.56,3.5,4.56C3.5,2.56,5.13,0.97,7.09,0.98z"/>
</g>
</svg>
